<svg width="846" height="500" viewBox="0 0 846 500" fill="none" xmlns="http://www.w3.org/2000/svg">
<path d="M646.522 319.4C646.61 319.416 646.701 319.416 646.789 319.4L845.74 204.4C845.801 204.367 845.854 204.322 845.896 204.267C845.938 204.213 845.968 204.15 845.985 204.083C846.002 204.016 846.005 203.946 845.993 203.878C845.981 203.81 845.956 203.746 845.918 203.688C845.887 203.626 845.843 203.571 845.789 203.527C845.735 203.483 845.673 203.451 845.606 203.433C845.539 203.414 845.469 203.41 845.4 203.42C845.331 203.431 845.265 203.455 845.207 203.492L646.522 318.261L393.802 172.269C393.723 172.217 393.63 172.188 393.535 172.188C393.44 172.188 393.347 172.217 393.268 172.269L224.865 269.55L113.769 205.36C113.647 205.29 113.501 205.271 113.364 205.307C113.228 205.344 113.111 205.433 113.04 205.556C112.97 205.679 112.95 205.825 112.987 205.961C113.024 206.098 113.113 206.215 113.236 206.286L224.58 270.617C224.662 270.661 224.754 270.684 224.847 270.684C224.94 270.684 225.031 270.661 225.114 270.617L393.499 173.337L646.256 319.329C646.339 319.369 646.43 319.393 646.522 319.4V319.4Z" fill="#42E8E0"/>
<path d="M1.42884 394.138C1.51703 394.154 1.60741 394.154 1.6956 394.138L146.913 310.237L236.938 362.239C237.017 362.283 237.105 362.306 237.195 362.306C237.286 362.306 237.374 362.283 237.453 362.239L590.565 158.178C590.645 158.134 590.712 158.07 590.759 157.992C590.805 157.914 590.831 157.824 590.832 157.733C590.832 157.64 590.807 157.548 590.761 157.466C590.714 157.385 590.646 157.318 590.565 157.271L410.018 52.9631C409.895 52.8923 409.749 52.8731 409.612 52.9098C409.476 52.9465 409.359 53.0361 409.288 53.1588C409.218 53.2815 409.199 53.4272 409.235 53.564C409.272 53.7008 409.361 53.8174 409.484 53.8882L589.25 157.733L237.187 361.101L147.179 309.098C147.097 309.054 147.006 309.032 146.913 309.032C146.82 309.032 146.728 309.054 146.646 309.098L1.16208 393.142C1.06022 393.201 0.980643 393.291 0.935589 393.4C0.890536 393.509 0.882605 393.629 0.913016 393.743C0.943427 393.856 1.01041 393.957 1.1037 394.028C1.19698 394.1 1.31131 394.138 1.42884 394.138V394.138Z" fill="#42E8E0"/>
<path d="M328.562 464.345C328.649 464.369 328.741 464.369 328.828 464.345L436.616 402.077C436.698 402.03 436.765 401.963 436.812 401.882C436.859 401.8 436.884 401.708 436.884 401.614C436.884 401.521 436.859 401.428 436.812 401.347C436.765 401.266 436.698 401.199 436.616 401.152L302.548 323.708C302.425 323.637 302.28 323.618 302.143 323.655C302.006 323.692 301.89 323.781 301.819 323.904C301.748 324.027 301.729 324.172 301.766 324.309C301.803 324.446 301.892 324.562 302.015 324.633L435.372 401.614L328.366 463.42C328.305 463.454 328.252 463.501 328.209 463.557C328.167 463.614 328.136 463.678 328.12 463.746C328.103 463.814 328.101 463.885 328.112 463.955C328.124 464.024 328.15 464.09 328.188 464.149C328.233 464.206 328.29 464.253 328.354 464.287C328.418 464.321 328.489 464.34 328.562 464.345V464.345Z" fill="#42E8E0"/>
<path d="M170.926 495.483C171.008 495.501 171.093 495.501 171.175 495.483L753.572 158.969C753.645 158.941 753.71 158.898 753.764 158.842C753.818 158.787 753.859 158.72 753.885 158.647C753.911 158.573 753.92 158.496 753.913 158.418C753.905 158.341 753.881 158.266 753.841 158.2C753.802 158.133 753.749 158.075 753.685 158.031C753.621 157.987 753.548 157.957 753.472 157.944C753.396 157.931 753.317 157.935 753.242 157.955C753.168 157.975 753.098 158.012 753.039 158.061L170.659 494.486C170.54 494.56 170.453 494.677 170.417 494.812C170.381 494.948 170.397 495.092 170.463 495.216C170.51 495.297 170.578 495.364 170.659 495.411C170.74 495.458 170.832 495.483 170.926 495.483V495.483Z" fill="#42E8E0"/>
<path d="M522.877 352.101C522.964 352.125 523.056 352.125 523.143 352.101L676.059 263.805C676.139 263.761 676.206 263.697 676.253 263.618C676.3 263.54 676.325 263.451 676.326 263.36C676.326 263.266 676.302 263.174 676.255 263.093C676.208 263.012 676.141 262.944 676.059 262.898L541.991 185.454C541.867 185.388 541.723 185.371 541.588 185.407C541.452 185.444 541.336 185.53 541.262 185.65C541.227 185.709 541.205 185.775 541.196 185.843C541.187 185.911 541.192 185.98 541.21 186.047C541.228 186.113 541.26 186.175 541.302 186.229C541.345 186.283 541.398 186.328 541.458 186.361L674.815 263.36L523.019 351.033L158.794 140.639C158.734 140.604 158.669 140.582 158.601 140.573C158.532 140.564 158.463 140.569 158.397 140.587C158.331 140.605 158.269 140.636 158.215 140.679C158.161 140.721 158.116 140.774 158.083 140.834C158.047 140.895 158.025 140.962 158.016 141.032C158.006 141.101 158.011 141.172 158.029 141.24C158.047 141.308 158.079 141.371 158.121 141.427C158.164 141.482 158.217 141.529 158.278 141.564L522.61 352.03C522.69 352.078 522.783 352.103 522.877 352.101V352.101Z" fill="#42E8E0"/>
<path opacity="0.3" d="M623.331 160.836L669.544 134.15L623.331 107.464L577.136 134.15L623.331 160.836Z" fill="#42E8E0"/>
<path opacity="0.5" d="M623.331 130.093L669.544 103.406L623.331 76.7021L577.136 103.406L623.331 130.093Z" fill="#42E8E0"/>
<path opacity="0.7" d="M623.331 105.444L669.544 78.74L623.331 52.0537L577.136 78.74L623.331 105.444Z" fill="#42E8E0"/>
<path d="M623.353 106.752C623.579 106.754 623.801 106.692 623.993 106.574L670.224 79.8881C670.423 79.7724 670.588 79.6063 670.703 79.4065C670.818 79.2067 670.879 78.9801 670.879 78.7495C670.879 78.5189 670.818 78.2924 670.703 78.0926C670.588 77.8928 670.423 77.7267 670.224 77.6109L623.993 50.9246C623.793 50.8108 623.566 50.751 623.335 50.751C623.105 50.751 622.878 50.8108 622.677 50.9246L576.447 77.6109C576.248 77.7267 576.082 77.8928 575.967 78.0926C575.852 78.2924 575.792 78.5189 575.792 78.7495C575.792 78.9801 575.852 79.2067 575.967 79.4065C576.082 79.6063 576.248 79.7724 576.447 79.8881L622.677 106.574C622.881 106.698 623.115 106.76 623.353 106.752V106.752ZM666.934 78.7495L623.353 103.924L579.772 78.7495L623.353 53.5755L666.934 78.7495Z" fill="#42E8E0"/>
<path style="mix-blend-mode:lighten" opacity="0.3" d="M153.654 500C77.7249 500 16.1719 464.443 16.1719 420.581C16.1719 376.72 77.7249 341.163 153.654 341.163C229.584 341.163 291.137 376.72 291.137 420.581C291.137 464.443 229.584 500 153.654 500Z" fill="url(#paint0_radial_515_1372)"/>
<path opacity="0.7" d="M255.796 459.949L302.009 433.262L255.796 406.576L209.601 433.262L255.796 459.949Z" fill="#42E8E0"/>
<path d="M255.819 461.268C256.049 461.261 256.275 461.2 256.477 461.09L302.707 434.404C302.906 434.287 303.071 434.121 303.186 433.921C303.301 433.722 303.363 433.496 303.365 433.265C303.367 433.034 303.307 432.806 303.191 432.606C303.075 432.406 302.908 432.24 302.707 432.126L256.477 405.44C256.279 405.317 256.052 405.252 255.819 405.252C255.586 405.252 255.359 405.317 255.161 405.44L208.931 432.126C208.734 432.244 208.572 432.411 208.459 432.611C208.347 432.81 208.289 433.036 208.29 433.265C208.292 433.493 208.352 433.718 208.464 433.917C208.576 434.116 208.736 434.283 208.931 434.404L255.161 461.09C255.362 461.202 255.588 461.263 255.819 461.268V461.268ZM299.4 433.265L255.819 458.439L212.238 433.265L255.819 408.091L299.4 433.265Z" fill="#42E8E0"/>
<path opacity="0.7" d="M153.647 434.579L177.9 420.578L153.647 406.576L129.412 420.578L153.647 434.579Z" fill="#42E8E0"/>
<path opacity="0.5" d="M153.647 420.581L177.9 406.58L153.647 392.578L129.412 406.58L153.647 420.581Z" fill="#42E8E0"/>
<path opacity="0.3" d="M153.647 406.572L177.9 392.571L153.647 378.569L129.412 392.571L153.647 406.572Z" fill="#42E8E0"/>
<path d="M153.664 435.88C153.893 435.88 154.118 435.825 154.322 435.72L178.557 421.701C178.757 421.588 178.923 421.423 179.038 421.225C179.154 421.026 179.215 420.801 179.215 420.571C179.215 420.342 179.154 420.116 179.038 419.918C178.923 419.719 178.757 419.555 178.557 419.442L154.322 405.44C154.124 405.317 153.896 405.252 153.664 405.252C153.431 405.252 153.203 405.317 153.006 405.44L128.77 419.442C128.569 419.556 128.402 419.721 128.287 419.921C128.171 420.122 128.111 420.349 128.112 420.58C128.115 420.811 128.176 421.037 128.291 421.236C128.407 421.436 128.572 421.602 128.77 421.719L153.006 435.72C153.209 435.827 153.435 435.882 153.664 435.88V435.88ZM175.285 420.58L153.664 433.034L132.042 420.58L153.664 408.127L175.285 420.58Z" fill="#42E8E0"/>
<path opacity="0.7" d="M684.178 349.096L708.413 335.094L684.178 321.093L659.942 335.094L684.178 349.096Z" fill="#42E8E0"/>
<path d="M684.179 350.411C684.41 350.407 684.636 350.346 684.837 350.233L709.09 336.232C709.288 336.114 709.452 335.947 709.567 335.748C709.682 335.549 709.744 335.323 709.748 335.093C709.746 334.863 709.684 334.637 709.569 334.437C709.454 334.238 709.289 334.071 709.09 333.955L684.837 319.953C684.64 319.839 684.416 319.779 684.188 319.779C683.96 319.779 683.736 319.839 683.539 319.953L659.286 333.955C659.085 334.069 658.918 334.234 658.802 334.434C658.686 334.635 658.626 334.862 658.628 335.093C658.628 335.324 658.689 335.551 658.804 335.751C658.92 335.951 659.086 336.116 659.286 336.232L683.539 350.233C683.735 350.344 683.954 350.405 684.179 350.411V350.411ZM705.801 335.093L684.179 347.547L662.575 335.093L684.197 322.64L705.801 335.093Z" fill="#42E8E0"/>
<path opacity="0.1" d="M415.757 103.288C401.648 95.1373 401.647 68.7119 415.753 44.2649C429.86 19.8179 452.733 6.60679 466.842 14.7571C480.951 22.9075 480.953 49.3329 466.846 73.7799C452.74 98.2269 429.866 111.438 415.757 103.288Z" fill="url(#paint1_linear_515_1372)"/>
<path opacity="0.3" d="M431.653 112.412C417.544 104.261 417.542 77.8359 431.649 53.3889C445.755 28.9419 468.629 15.7308 482.738 23.8812C496.847 32.0315 496.848 58.4569 482.742 82.9039C468.635 107.351 445.762 120.562 431.653 112.412Z" fill="url(#paint2_linear_515_1372)"/>
<path opacity="0.48" d="M447.569 121.514C433.46 113.364 433.458 86.9385 447.565 62.4914C461.671 38.0444 484.545 24.8333 498.654 32.9837C512.763 41.134 512.765 67.5594 498.658 92.0065C484.551 116.453 461.678 129.665 447.569 121.514Z" fill="url(#paint3_linear_515_1372)"/>
<path d="M509.333 192.095C512.427 190.316 512.427 187.416 509.333 185.637C507.605 184.752 505.691 184.29 503.75 184.29C501.808 184.29 499.895 184.752 498.166 185.637C495.073 187.416 495.073 190.298 498.166 192.095C499.899 192.965 501.811 193.418 503.75 193.418C505.688 193.418 507.6 192.965 509.333 192.095V192.095Z" fill="url(#paint4_linear_515_1372)"/>
<path d="M509.342 191.699C507.609 192.569 505.697 193.022 503.759 193.022C501.82 193.022 499.908 192.569 498.175 191.699C497.571 191.419 497.044 190.996 496.641 190.465C496.238 189.935 495.971 189.314 495.864 188.656C495.879 189.39 496.105 190.104 496.515 190.713C496.925 191.322 497.501 191.8 498.175 192.09C499.908 192.96 501.82 193.413 503.759 193.413C505.697 193.413 507.609 192.96 509.342 192.09C510.016 191.8 510.592 191.322 511.002 190.713C511.412 190.104 511.638 189.39 511.653 188.656C511.546 189.314 511.279 189.935 510.876 190.465C510.473 190.996 509.946 191.419 509.342 191.699Z" fill="white"/>
<path d="M509.333 207.458C512.427 205.679 512.427 202.779 509.333 201C507.6 200.13 505.688 199.677 503.75 199.677C501.811 199.677 499.899 200.13 498.166 201C495.073 202.779 495.073 205.679 498.166 207.458C499.899 208.328 501.811 208.781 503.75 208.781C505.688 208.781 507.6 208.328 509.333 207.458V207.458Z" fill="url(#paint5_linear_515_1372)"/>
<path d="M509.333 223.079C512.427 221.3 512.427 218.4 509.333 216.621C507.605 215.736 505.691 215.274 503.75 215.274C501.808 215.274 499.895 215.736 498.166 216.621C495.073 218.4 495.073 221.283 498.166 223.079C499.899 223.95 501.811 224.403 503.75 224.403C505.688 224.403 507.6 223.95 509.333 223.079V223.079Z" fill="url(#paint6_linear_515_1372)"/>
<path d="M495.837 188.854V180.866C495.903 181.562 496.153 182.227 496.563 182.794C496.972 183.36 497.526 183.806 498.166 184.086C499.895 184.971 501.808 185.433 503.75 185.433C505.691 185.433 507.605 184.971 509.333 184.086C509.951 183.807 510.488 183.374 510.893 182.83C511.297 182.285 511.556 181.646 511.644 180.973V147.17H495.837V246.799C495.786 247.869 495.953 248.938 496.328 249.942C496.702 250.945 497.276 251.863 498.015 252.638C498.754 253.413 499.642 254.03 500.626 254.452C501.611 254.873 502.67 255.091 503.741 255.091C504.811 255.091 505.871 254.873 506.855 254.452C507.839 254.03 508.728 253.413 509.467 252.638C510.206 251.863 510.78 250.945 511.154 249.942C511.528 248.938 511.695 247.869 511.644 246.799V219.739C511.608 220.456 511.373 221.149 510.964 221.74C510.556 222.331 509.991 222.796 509.333 223.083C507.6 223.954 505.688 224.407 503.75 224.407C501.811 224.407 499.899 223.954 498.166 223.083C497.53 222.798 496.981 222.35 496.572 221.785C496.163 221.22 495.91 220.557 495.837 219.863V219.863V211.875C495.903 212.571 496.153 213.237 496.563 213.803C496.972 214.37 497.526 214.816 498.166 215.095C499.895 215.981 501.808 216.442 503.75 216.442C505.691 216.442 507.605 215.981 509.333 215.095C509.951 214.816 510.488 214.384 510.893 213.839C511.297 213.294 511.556 212.655 511.644 211.982V204.136C511.607 204.851 511.371 205.541 510.963 206.129C510.554 206.717 509.99 207.179 509.333 207.463C507.6 208.333 505.688 208.786 503.75 208.786C501.811 208.786 499.899 208.333 498.166 207.463C497.528 207.18 496.977 206.733 496.567 206.168C496.158 205.602 495.906 204.938 495.837 204.243V196.255C495.903 196.953 496.154 197.621 496.563 198.19C496.973 198.759 497.526 199.209 498.166 199.493C499.899 200.363 501.811 200.816 503.75 200.816C505.688 200.816 507.6 200.363 509.333 199.493C509.952 199.209 510.488 198.773 510.893 198.226C511.297 197.678 511.556 197.037 511.644 196.362V188.783C511.608 189.5 511.373 190.193 510.964 190.784C510.556 191.375 509.991 191.84 509.333 192.127C507.6 192.998 505.688 193.451 503.75 193.451C501.811 193.451 499.899 192.998 498.166 192.127C497.53 191.842 496.981 191.394 496.572 190.829C496.163 190.264 495.91 189.601 495.837 188.907V188.907V188.854Z" fill="url(#paint7_linear_515_1372)"/>
<path d="M509.342 207.056C507.609 207.926 505.697 208.379 503.759 208.379C501.82 208.379 499.908 207.926 498.175 207.056C497.572 206.779 497.046 206.359 496.643 205.832C496.24 205.304 495.972 204.686 495.864 204.031C495.88 204.763 496.107 205.474 496.517 206.08C496.927 206.685 497.503 207.16 498.175 207.447C499.908 208.317 501.82 208.77 503.759 208.77C505.697 208.77 507.609 208.317 509.342 207.447C510.014 207.16 510.59 206.685 511 206.08C511.41 205.474 511.637 204.763 511.653 204.031C511.545 204.686 511.277 205.304 510.874 205.832C510.471 206.359 509.945 206.779 509.342 207.056V207.056Z" fill="white"/>
<path d="M509.342 222.694C507.609 223.564 505.697 224.017 503.759 224.017C501.82 224.017 499.908 223.564 498.175 222.694C497.573 222.412 497.047 221.988 496.645 221.458C496.242 220.928 495.974 220.308 495.864 219.651C495.881 220.385 496.108 221.098 496.518 221.706C496.928 222.315 497.503 222.793 498.175 223.085C499.908 223.955 501.82 224.408 503.759 224.408C505.697 224.408 507.609 223.955 509.342 223.085C510.014 222.793 510.59 222.315 510.999 221.706C511.409 221.098 511.636 220.385 511.653 219.651C511.543 220.308 511.275 220.928 510.872 221.458C510.47 221.988 509.945 222.412 509.342 222.694Z" fill="white"/>
<path opacity="0.48" d="M509.342 184.087C507.614 184.973 505.7 185.434 503.759 185.434C501.817 185.434 499.903 184.973 498.175 184.087C497.537 183.807 496.986 183.36 496.58 182.793C496.173 182.227 495.926 181.562 495.864 180.867V188.855C495.928 189.549 496.176 190.214 496.582 190.78C496.988 191.346 497.538 191.793 498.175 192.075C499.908 192.946 501.82 193.399 503.759 193.399C505.697 193.399 507.609 192.946 509.342 192.075C510 191.788 510.565 191.323 510.973 190.732C511.382 190.141 511.617 189.448 511.653 188.731V180.956C511.576 181.635 511.322 182.282 510.916 182.831C510.511 183.381 509.968 183.814 509.342 184.087V184.087Z" fill="url(#paint8_linear_515_1372)"/>
<path opacity="0.48" d="M509.342 199.46C507.609 200.33 505.697 200.783 503.759 200.783C501.82 200.783 499.908 200.33 498.175 199.46C497.536 199.176 496.984 198.726 496.578 198.157C496.171 197.587 495.925 196.919 495.864 196.222V204.21C495.926 204.904 496.173 205.57 496.58 206.136C496.986 206.702 497.537 207.149 498.175 207.43C499.908 208.3 501.82 208.753 503.759 208.753C505.697 208.753 507.609 208.3 509.342 207.43C509.999 207.146 510.563 206.684 510.971 206.096C511.38 205.508 511.616 204.818 511.653 204.103V196.311C511.574 196.991 511.319 197.639 510.914 198.191C510.509 198.743 509.967 199.18 509.342 199.46V199.46Z" fill="url(#paint9_linear_515_1372)"/>
<path opacity="0.48" d="M509.342 215.072C507.614 215.957 505.7 216.419 503.759 216.419C501.817 216.419 499.903 215.957 498.175 215.072C497.537 214.791 496.986 214.344 496.58 213.778C496.173 213.211 495.926 212.546 495.864 211.852V219.911C495.928 220.605 496.176 221.269 496.582 221.835C496.988 222.401 497.538 222.849 498.175 223.131C499.908 224.001 501.82 224.454 503.759 224.454C505.697 224.454 507.609 224.001 509.342 223.131C510 222.844 510.565 222.379 510.973 221.788C511.382 221.197 511.617 220.504 511.653 219.786V212.012C511.565 212.678 511.305 213.31 510.9 213.846C510.495 214.382 509.958 214.804 509.342 215.072Z" fill="url(#paint10_linear_515_1372)"/>
<path d="M475.178 134.871C474.823 134.681 474.467 134.468 474.112 134.231L470.253 112.33L475.09 83.2775L488.568 68.689L502.437 55.2036L524.521 46.0413L525.09 45.8278C526.143 46.3504 527.138 46.9825 528.059 47.7136L544.631 45.5609C543.768 43.38 542.652 41.3081 541.306 39.3875L543.955 38.3556L534.069 32.6448L533.713 32.4491L533.34 32.2356C524.823 27.6455 513.247 28.4817 500.481 35.7937C474.378 50.8804 453.219 87.5651 453.219 117.721C453.219 132.683 458.429 143.233 466.875 148.214L467.177 148.392L477.668 154.405L477.134 151.345C478.478 151.435 479.827 151.435 481.171 151.345C478.29 146.328 474.343 140.635 475.178 134.871Z" fill="url(#paint11_linear_515_1372)"/>
<path d="M547.689 64.3921C547.689 63.9829 547.689 63.5737 547.689 63.1645C547.816 57.1567 546.778 51.1813 544.63 45.5693L528.076 47.6331C533.411 51.8317 536.593 59.3572 536.593 69.6048C536.593 92.7329 520.413 120.682 500.463 132.211C490.63 137.886 481.721 138.491 475.196 134.879C474.36 140.644 478.307 146.337 481.206 151.478C486.093 151.096 490.87 149.83 495.306 147.742L493.741 149.521C493.741 149.521 513.407 142.69 513.798 142.263C514.189 141.836 537.091 118.69 537.091 118.69L552.027 86.4883L547.689 64.3921Z" fill="url(#paint12_linear_515_1372)"/>
<path opacity="0.5" d="M481.351 139.549C467.242 131.399 467.24 104.974 481.347 80.5266C495.454 56.0796 518.327 42.8685 532.436 51.0189C546.545 59.1692 546.547 85.5946 532.44 110.042C518.333 134.489 495.46 147.7 481.351 139.549Z" fill="url(#paint13_linear_515_1372)"/>
<path opacity="0.48" d="M478.214 137.854C464.105 129.704 464.104 103.278 478.21 78.8313C492.317 54.3842 515.19 41.1732 529.299 49.3235C543.408 57.4739 543.41 83.8993 529.303 108.346C515.197 132.793 492.323 146.004 478.214 137.854Z" fill="url(#paint14_linear_515_1372)"/>
<path d="M558.109 69.1551C558.109 99.3995 536.95 135.995 510.848 151.082C484.745 166.169 463.568 153.929 463.568 123.773C463.568 93.6175 484.727 56.9328 510.848 41.8461C536.968 26.7595 558.109 38.9996 558.109 69.1551ZM546.961 75.5954C546.961 52.5562 530.798 43.1982 510.848 54.7267C490.897 66.2552 474.717 94.2936 474.717 117.333C474.717 140.372 490.897 149.73 510.848 138.201C530.798 126.673 546.961 98.6523 546.961 75.5954Z" fill="#BCBEFF"/>
<path d="M558.109 69.1551C558.109 99.3995 536.95 135.995 510.848 151.082C484.745 166.169 463.568 153.929 463.568 123.773C463.568 93.6175 484.727 56.9328 510.848 41.8461C536.968 26.7595 558.109 38.9996 558.109 69.1551ZM546.961 75.5954C546.961 52.5562 530.798 43.1982 510.848 54.7267C490.897 66.2552 474.717 94.2936 474.717 117.333C474.717 140.372 490.897 149.73 510.848 138.201C530.798 126.673 546.961 98.6523 546.961 75.5954Z" fill="#BCBEFF"/>
<path d="M464.293 124.574C464.293 94.4189 485.452 57.7519 511.554 42.7365C527.557 33.4496 541.782 34.5349 550.353 43.7505C541.907 33.7877 527.362 32.3822 510.843 41.9714C484.723 57.0581 463.564 93.7428 463.564 123.898C463.564 135.498 466.711 144.429 472.045 150.193C467.138 144.287 464.293 135.64 464.293 124.574Z" fill="white"/>
<path d="M511.572 139C531.522 127.489 547.703 99.4505 547.703 76.4114C547.703 67.5159 545.267 60.6131 541.124 56.2188C544.823 60.6309 546.974 67.1957 546.974 75.593C546.974 98.7211 530.811 126.671 510.861 138.199C498.628 145.315 487.835 144.479 481.309 137.523C487.746 145.191 498.894 146.329 511.572 139Z" fill="white"/>
<path d="M371.606 415.986C374.657 415.991 377.655 415.193 380.301 413.673L578.719 299.047C579.206 298.764 579.61 298.357 579.891 297.869C580.172 297.38 580.32 296.826 580.32 296.263C580.32 295.699 580.172 295.145 579.891 294.656C579.61 294.168 579.206 293.762 578.719 293.478L455.426 222.315C455.349 222.264 455.26 222.236 455.168 222.236C455.076 222.236 454.986 222.264 454.91 222.315L248.064 341.798C247.572 342.078 247.164 342.483 246.879 342.972C246.595 343.461 246.445 344.017 246.445 344.583C246.445 345.148 246.595 345.704 246.879 346.193C247.164 346.682 247.572 347.087 248.064 347.367L362.911 413.727C365.562 415.228 368.56 416.007 371.606 415.986V415.986ZM455.177 223.329L578.203 294.386C578.532 294.577 578.804 294.85 578.994 295.18C579.183 295.509 579.283 295.883 579.283 296.263C579.283 296.643 579.183 297.016 578.994 297.345C578.804 297.675 578.532 297.949 578.203 298.14L379.803 412.748C377.319 414.181 374.501 414.936 371.633 414.936C368.765 414.936 365.947 414.181 363.463 412.748L248.598 346.406C248.269 346.219 247.997 345.946 247.809 345.618C247.622 345.289 247.526 344.916 247.531 344.538C247.526 344.157 247.622 343.782 247.81 343.451C247.997 343.12 248.269 342.844 248.598 342.652L455.177 223.329Z" fill="#42E8E0"/>
<path d="M448.72 170.224L421.088 6.13879L423.311 5.21368L419.968 3.29227C419.565 3.07489 419.11 2.9762 418.653 3.00769C418.197 3.03918 417.759 3.19954 417.39 3.47016L196.479 131.102C195.546 131.7 194.789 132.536 194.286 133.524C193.783 134.512 193.552 135.617 193.617 136.724L221.479 302.179C221.508 302.537 221.63 302.881 221.833 303.177C222.036 303.474 222.312 303.712 222.635 303.869V303.869L225.907 305.755L226.458 302.694H226.28L445.857 175.846C446.79 175.247 447.547 174.411 448.05 173.423C448.553 172.435 448.785 171.331 448.72 170.224V170.224Z" fill="url(#paint15_linear_515_1372)"/>
<path d="M197.717 135.588L194.161 133.987C193.749 134.838 193.588 135.788 193.699 136.727L221.562 302.182C221.591 302.54 221.713 302.884 221.915 303.181C222.118 303.477 222.394 303.715 222.717 303.872V303.872L225.989 305.758L226.54 302.698H226.362L237.476 296.275L197.717 135.588Z" fill="url(#paint16_linear_515_1372)"/>
<path d="M449.336 177.84L228.426 305.453C226.648 306.432 225.261 305.863 224.87 304.101L197.007 138.646C196.943 137.542 197.175 136.441 197.678 135.456C198.182 134.471 198.938 133.638 199.87 133.042L420.869 5.48178C422.647 4.48549 424.034 5.05479 424.336 6.83387L452.199 172.289C452.251 173.384 452.014 174.474 451.511 175.448C451.009 176.422 450.259 177.247 449.336 177.84V177.84Z" fill="#24126A"/>
<g opacity="0.51">
<path opacity="0.51" d="M417.996 16.0566L205.052 139.063L231.456 294.821L444.259 171.887L417.996 16.0566Z" fill="#453C9E"/>
</g>
<path d="M588.204 256.134L576.149 262.432L455.238 192.603C453.989 192.033 452.624 191.765 451.253 191.821C449.881 191.876 448.542 192.254 447.343 192.923L238.808 313.367C236.817 312.247 227.713 307.87 227.713 307.87L232.123 319.381C232.361 319.971 232.802 320.457 233.367 320.751L360.75 394.262C361.999 394.832 363.364 395.101 364.736 395.045C366.107 394.989 367.446 394.612 368.645 393.942L581.981 270.705C582.783 270.304 583.414 269.629 583.759 268.801V268.801L588.204 256.134Z" fill="url(#paint17_linear_515_1372)"/>
<path d="M586.328 258.114L367.622 384.429C366.392 385.111 365.02 385.495 363.615 385.551C362.21 385.607 360.812 385.332 359.532 384.749L229.055 309.387C226.975 308.177 227.277 306.096 229.624 304.708L448.33 178.393C449.558 177.708 450.93 177.32 452.335 177.262C453.74 177.203 455.139 177.475 456.42 178.055L586.915 253.435C588.977 254.644 588.728 256.744 586.328 258.114Z" fill="url(#paint18_linear_515_1372)"/>
<path d="M301.715 357.115V354.713C301.715 354.482 301.839 354.375 302.017 354.482L310.481 359.357C310.572 359.429 310.647 359.521 310.699 359.626C310.751 359.73 310.78 359.845 310.783 359.962V362.346C310.783 362.577 310.641 362.684 310.481 362.595L302.017 357.702C301.923 357.636 301.846 357.548 301.794 357.446C301.741 357.343 301.714 357.23 301.715 357.115Z" fill="#2842A2"/>
<path d="M314.346 364.417V362.033C314.346 361.802 314.488 361.695 314.648 361.784L323.112 366.677C323.206 366.743 323.282 366.831 323.335 366.933C323.388 367.035 323.415 367.149 323.414 367.264V369.666C323.414 369.897 323.29 370.004 323.112 369.897L314.648 365.022C314.557 364.949 314.482 364.858 314.43 364.753C314.378 364.649 314.349 364.534 314.346 364.417Z" fill="#2842A2"/>
<path d="M263.105 302.339L444.809 197.373C445.406 197.028 446.084 196.847 446.773 196.847C447.463 196.847 448.141 197.028 448.738 197.373L513.443 234.734C513.653 234.859 513.827 235.035 513.948 235.248C514.069 235.46 514.133 235.7 514.133 235.944C514.133 236.188 514.069 236.428 513.948 236.64C513.827 236.853 513.653 237.029 513.443 237.154L331.811 342.12C331.218 342.469 330.543 342.653 329.855 342.653C329.167 342.653 328.492 342.469 327.899 342.12L263.105 304.759C262.895 304.635 262.721 304.458 262.6 304.246C262.479 304.033 262.415 303.793 262.415 303.549C262.415 303.305 262.479 303.065 262.6 302.853C262.721 302.641 262.895 302.464 263.105 302.339V302.339Z" fill="#ADB1F2"/>
<path d="M263.12 304.755L263.76 305.129L444.824 200.536C445.42 200.188 446.098 200.004 446.788 200.004C447.479 200.004 448.157 200.188 448.753 200.536L512.765 237.612L513.423 237.239C513.633 237.114 513.807 236.937 513.928 236.725C514.049 236.513 514.112 236.273 514.112 236.029C514.112 235.785 514.049 235.545 513.928 235.333C513.807 235.12 513.633 234.944 513.423 234.819L448.718 197.458C448.12 197.113 447.443 196.932 446.753 196.932C446.063 196.932 445.385 197.113 444.788 197.458L263.085 302.424C262.896 302.556 262.742 302.732 262.637 302.937C262.532 303.142 262.479 303.369 262.483 303.599C262.486 303.829 262.546 304.055 262.657 304.257C262.769 304.458 262.927 304.629 263.12 304.755V304.755Z" fill="#9198DB"/>
<path d="M453.626 206.859L295.784 298.037L288.761 293.981L446.603 202.803L453.626 206.859Z" fill="#24126A"/>
<path d="M470.814 216.799L322.77 302.319L315.747 298.263L463.809 212.742L470.814 216.799Z" fill="#24126A"/>
<path d="M482.025 223.273L307.701 323.969L300.695 319.913L475.002 219.217L482.025 223.273Z" fill="#24126A"/>
<path d="M493.236 229.758L318.93 330.455L311.906 326.398L486.213 225.702L493.236 229.758Z" fill="#24126A"/>
<path d="M504.427 236.233L330.12 336.929L323.097 332.873L497.421 232.177L504.427 236.233Z" fill="#24126A"/>
<path d="M286.22 303.553L279.214 307.61L272.191 303.553L279.214 299.497L286.22 303.553Z" fill="#24126A"/>
<path d="M310.995 309.137L296.415 317.552L289.409 313.496L303.972 305.081L310.995 309.137Z" fill="#24126A"/>
<path d="M451.826 327.746L500.812 299.441C501.235 299.302 501.603 299.032 501.863 298.671C502.124 298.31 502.265 297.876 502.265 297.431C502.265 296.985 502.124 296.551 501.863 296.191C501.603 295.83 501.235 295.56 500.812 295.42L467.313 276.082C466.24 275.529 465.052 275.241 463.846 275.241C462.639 275.241 461.451 275.529 460.378 276.082L411.392 304.369C410.969 304.509 410.601 304.778 410.34 305.139C410.08 305.5 409.939 305.934 409.939 306.38C409.939 306.825 410.08 307.259 410.34 307.62C410.601 307.981 410.969 308.25 411.392 308.39L444.891 327.746C445.966 328.29 447.154 328.574 448.358 328.574C449.563 328.574 450.751 328.29 451.826 327.746V327.746Z" fill="url(#paint19_linear_515_1372)"/>
<path d="M411.396 306.024L460.382 277.719C461.454 277.166 462.643 276.878 463.849 276.878C465.056 276.878 466.244 277.166 467.317 277.719L500.816 297.075C501.324 297.341 501.745 297.749 502.025 298.249C502.541 297.289 502.15 296.185 500.816 295.42L467.317 276.082C466.244 275.529 465.056 275.241 463.849 275.241C462.643 275.241 461.454 275.529 460.382 276.082L411.396 304.369C410.062 305.134 409.618 306.148 410.186 307.198C410.467 306.697 410.887 306.289 411.396 306.024V306.024Z" fill="#9198DB"/>
<g opacity="0.11">
<g opacity="0.11">
<path opacity="0.11" d="M448.607 178.142L229.901 304.457C228.678 305.148 227.309 305.538 225.905 305.597C224.502 305.656 223.105 305.381 221.828 304.795L91.2096 229.416C89.1292 228.224 89.4315 226.124 91.7964 224.754L310.502 98.4393C311.727 97.7518 313.097 97.3644 314.5 97.3087C315.903 97.2531 317.299 97.5307 318.575 98.119L449.122 173.481C451.203 174.673 450.936 176.755 448.607 178.142Z" fill="url(#paint20_linear_515_1372)"/>
<path opacity="0.11" d="M229.215 200.785L278.202 172.48C278.618 172.336 278.979 172.066 279.235 171.707C279.491 171.349 279.628 170.919 279.628 170.478C279.628 170.038 279.491 169.608 279.235 169.249C278.979 168.891 278.618 168.621 278.202 168.477L244.702 149.121C243.627 148.576 242.44 148.293 241.235 148.293C240.031 148.293 238.843 148.576 237.768 149.121L188.764 177.426C188.347 177.569 187.986 177.839 187.73 178.198C187.475 178.557 187.337 178.987 187.337 179.427C187.337 179.868 187.475 180.297 187.73 180.656C187.986 181.015 188.347 181.285 188.764 181.429L222.281 200.785C223.356 201.329 224.543 201.613 225.748 201.613C226.953 201.613 228.14 201.329 229.215 200.785Z" fill="url(#paint21_linear_515_1372)"/>
<path opacity="0.11" d="M188.783 178.998L237.787 150.693C238.862 150.149 240.05 149.866 241.255 149.866C242.459 149.866 243.647 150.149 244.722 150.693L278.221 170.103C278.735 170.37 279.156 170.785 279.43 171.295C279.946 170.316 279.555 169.231 278.221 168.466L244.722 149.11C243.647 148.566 242.459 148.282 241.255 148.282C240.05 148.282 238.862 148.566 237.787 149.11L188.783 177.415C187.467 178.18 187.005 179.194 187.592 180.244C187.85 179.715 188.266 179.279 188.783 178.998V178.998Z" fill="#9198DB"/>
<path opacity="0.11" d="M167.248 245.017L348.969 140.051C349.564 139.709 350.239 139.529 350.925 139.529C351.611 139.529 352.286 139.709 352.881 140.051L417.586 177.518C417.796 177.643 417.97 177.82 418.091 178.032C418.212 178.244 418.275 178.484 418.275 178.728C418.275 178.972 418.212 179.212 418.091 179.425C417.97 179.637 417.796 179.814 417.586 179.938L235.953 284.904C235.358 285.246 234.684 285.426 233.997 285.426C233.311 285.426 232.637 285.246 232.041 284.904L167.248 247.543C167.011 247.428 166.812 247.248 166.672 247.025C166.533 246.801 166.459 246.543 166.459 246.28C166.459 246.017 166.533 245.759 166.672 245.535C166.812 245.312 167.011 245.132 167.248 245.017Z" fill="#ADB1F2"/>
<path opacity="0.11" d="M167.233 247.437L167.89 247.81L349.025 143.218C349.62 142.876 350.295 142.696 350.981 142.696C351.667 142.696 352.342 142.876 352.937 143.218L416.948 180.312L417.606 179.938C417.816 179.814 417.99 179.637 418.111 179.425C418.232 179.212 418.296 178.972 418.296 178.728C418.296 178.484 418.232 178.244 418.111 178.032C417.99 177.82 417.816 177.643 417.606 177.518L352.901 140.051C352.306 139.709 351.632 139.529 350.945 139.529C350.259 139.529 349.585 139.709 348.99 140.051L167.268 245.017C167.056 245.138 166.879 245.313 166.755 245.523C166.631 245.733 166.564 245.972 166.56 246.217C166.557 246.461 166.617 246.702 166.735 246.916C166.853 247.13 167.024 247.309 167.233 247.437V247.437Z" fill="#9198DB"/>
<path opacity="0.11" d="M400.638 174.976L242.334 266.421L248.611 270.032L406.915 178.587L400.638 174.976Z" fill="#24126A"/>
<path opacity="0.11" d="M383.96 165.332L233.497 252.258L239.774 255.87L390.236 168.961L383.96 165.332Z" fill="#24126A"/>
<path opacity="0.11" d="M222.255 258.731L208.208 266.862L214.484 270.473L228.531 262.361L222.255 258.731Z" fill="#24126A"/>
<path opacity="0.11" d="M234.674 270.854L224.894 276.494L231.171 280.123L240.95 274.466L234.674 270.854Z" fill="#24126A"/>
<path opacity="0.11" d="M373.49 159.303L197.743 260.817L204.02 264.447L379.767 162.914L373.49 159.303Z" fill="#24126A"/>
<path opacity="0.11" d="M363.059 153.252L187.295 254.784L193.571 258.414L369.318 156.881L363.059 153.252Z" fill="#24126A"/>
<path opacity="0.11" d="M352.615 147.223L176.868 248.755L183.127 252.367L358.892 150.834L352.615 147.223Z" fill="#24126A"/>
</g>
</g>
<path opacity="0.42" d="M347.301 293.002L300.199 263.985L406.103 202.803L456.085 236.427L347.301 293.002Z" fill="url(#paint22_radial_515_1372)"/>
<path opacity="0.42" d="M300.211 263.982L289.418 195.79L388.796 138.734V212.673L300.211 263.982Z" fill="url(#paint23_radial_515_1372)"/>
<path d="M399.202 105.609L388.676 99.5425C388.6 99.4912 388.51 99.4639 388.418 99.4639C388.326 99.4639 388.236 99.4912 388.16 99.5425L256.403 175.652C256.165 175.822 255.97 176.046 255.834 176.306C255.698 176.565 255.625 176.853 255.621 177.146V202.053C255.613 202.158 255.629 202.263 255.665 202.361C255.702 202.46 255.76 202.549 255.834 202.623L266.503 208.743V196.716L388.16 126.531C388.401 126.368 388.599 126.148 388.735 125.891C388.872 125.633 388.943 125.346 388.943 125.055V116.515L399.202 105.609Z" fill="url(#paint24_linear_515_1372)"/>
<path d="M398.716 132.631L266.959 208.74C266.532 208.989 266.194 208.74 266.194 208.153V183.246C266.198 182.954 266.268 182.668 266.401 182.409C266.534 182.149 266.725 181.924 266.959 181.751L398.716 105.642C399.142 105.393 399.498 105.642 399.498 106.229V131.136C399.491 131.429 399.417 131.716 399.281 131.975C399.146 132.234 398.952 132.458 398.716 132.631V132.631Z" fill="url(#paint25_linear_515_1372)"/>
<path opacity="0.6" d="M380.551 127.576L277.919 187.887C281.163 190.701 284.14 193.81 286.809 197.174L390.152 137.468C387.283 133.864 384.067 130.551 380.551 127.576V127.576Z" fill="#24126A"/>
<path d="M394.974 125.161L270.809 196.929C270.507 197.089 270.276 196.929 270.276 196.52V190.275C270.276 190.073 270.324 189.874 270.417 189.694C270.51 189.515 270.644 189.36 270.809 189.244L395.045 117.475C395.329 117.315 395.578 117.475 395.578 117.884V124.129C395.563 124.336 395.501 124.537 395.396 124.716C395.291 124.894 395.147 125.047 394.974 125.161V125.161Z" fill="#24126A"/>
<path d="M394.98 117.473L392.455 118.932V122.312C392.451 122.511 392.401 122.706 392.308 122.882C392.216 123.058 392.083 123.21 391.922 123.326L270.211 193.635V196.518C270.211 196.909 270.442 197.087 270.745 196.927L394.98 125.158C395.14 125.037 395.271 124.881 395.363 124.703C395.456 124.524 395.507 124.327 395.514 124.127V117.882C395.514 117.491 395.282 117.313 394.98 117.473Z" fill="#453C9E"/>
<path opacity="0.96" d="M464.773 394.431L568.134 334.725C554.798 327.021 543.561 310.173 540.129 294.055C539.466 290.823 538.128 287.767 536.204 285.088C534.28 282.408 531.812 280.166 528.962 278.506L450.851 233.388C440.124 227.222 431.096 218.486 424.579 207.965C418.061 197.444 414.258 185.468 413.511 173.113C412.248 151.924 396.245 131.091 383.834 123.921L280.474 183.627C292.707 190.743 306.185 210.456 307.714 231.271C308.532 243.622 312.364 255.585 318.873 266.112C325.383 276.638 334.372 285.408 345.054 291.653L425.513 338.212C428.363 339.872 430.83 342.115 432.754 344.794C434.679 347.473 436.016 350.529 436.679 353.761C440.111 369.879 451.348 386.727 464.684 394.431H464.773Z" fill="url(#paint26_linear_515_1372)"/>
<g opacity="0.32">
<path opacity="0.32" d="M351.306 199.104L337.917 206.843V205.348L351.306 197.609V199.104Z" fill="#4553C7"/>
<path opacity="0.32" d="M358.172 195.141L353.353 197.934V196.44L358.172 193.646V195.141Z" fill="#4553C7"/>
<path opacity="0.32" d="M363.513 192.057L360.241 193.961V192.466L363.513 190.562V192.057Z" fill="#4553C7"/>
<path opacity="0.32" d="M345.201 206.044L337.911 210.261V208.766L345.201 204.55V206.044Z" fill="#4553C7"/>
<path opacity="0.32" d="M356.201 199.698L347.257 204.857V203.362L356.201 198.203V199.698Z" fill="#4553C7"/>
<path opacity="0.32" d="M361.521 196.614L358.231 198.517V197.023L361.521 195.119V196.614Z" fill="#4553C7"/>
<path opacity="0.32" d="M366.606 193.7L363.317 195.585V194.091L366.606 192.205V193.7Z" fill="#4553C7"/>
<path opacity="0.32" d="M343.209 210.612L337.928 213.672V212.177L343.209 209.117V210.612Z" fill="#4553C7"/>
<path opacity="0.32" d="M347.045 208.397L345.249 209.446V207.952L347.045 206.902V208.397Z" fill="#4553C7"/>
<path opacity="0.32" d="M352.365 205.314L349.093 207.217V205.723L352.365 203.819V205.314Z" fill="#4553C7"/>
<path opacity="0.32" d="M357.409 205.815L337.921 217.076V215.582L357.409 204.338V205.815Z" fill="#4553C7"/>
<path opacity="0.32" d="M364.275 201.859L359.457 204.634V203.14L364.275 200.364V201.859Z" fill="#4553C7"/>
<path opacity="0.32" d="M343.209 217.447L337.928 220.489V218.994L343.209 215.952V217.447Z" fill="#4553C7"/>
<path opacity="0.32" d="M355.586 210.273L345.237 216.25V214.756L355.586 208.778V210.273Z" fill="#4553C7"/>
<path opacity="0.32" d="M360.906 207.2L357.635 209.103V207.609L360.906 205.705V207.2Z" fill="#4553C7"/>
<path opacity="0.32" d="M348.72 217.658L337.927 223.903V222.409L348.72 216.164V217.658Z" fill="#4553C7"/>
<path opacity="0.32" d="M358.574 211.968L350.768 216.487V214.993L358.574 210.474V211.968Z" fill="#4553C7"/>
<path opacity="0.32" d="M365.907 207.73L360.626 210.79V209.295L365.907 206.235V207.73Z" fill="#4553C7"/>
<path opacity="0.32" d="M341.557 225.203L337.912 227.321V225.826L341.557 223.709V225.203Z" fill="#4553C7"/>
<path opacity="0.32" d="M348.423 221.241L343.604 224.034V222.539L348.423 219.746V221.241Z" fill="#4553C7"/>
<path opacity="0.32" d="M358.235 215.561L350.465 220.062V218.568L358.235 214.066V215.561Z" fill="#4553C7"/>
<path opacity="0.32" d="M349.102 224.26L337.917 230.718V229.224L349.102 222.766V224.26Z" fill="#4553C7"/>
<path opacity="0.32" d="M361.626 217.044L351.153 223.093V221.599L361.626 215.55V217.044Z" fill="#4553C7"/>
<path opacity="0.32" d="M366.946 213.96L363.675 215.846V214.369L366.946 212.466V213.96Z" fill="#4553C7"/>
<path opacity="0.32" d="M372.032 211.004L368.761 212.908V211.413L372.032 209.51V211.004Z" fill="#4553C7"/>
<path opacity="0.32" d="M344.608 230.28L337.923 234.14V232.646L344.608 228.785V230.28Z" fill="#4553C7"/>
<path opacity="0.32" d="M378.476 183.414L387.758 178.059V176.564L378.476 181.919V183.414Z" fill="#4553C7"/>
<path opacity="0.32" d="M380.468 185.677L387.758 181.46V179.966L380.468 184.182V185.677Z" fill="#4553C7"/>
<path opacity="0.32" d="M382.477 187.915L387.758 184.872V183.378L382.477 186.438V187.915Z" fill="#4553C7"/>
<path opacity="0.32" d="M380.076 192.714L387.758 188.284V186.79L380.076 191.22V192.714Z" fill="#4553C7"/>
<path opacity="0.32" d="M382.477 194.746L387.758 191.686V190.191L382.477 193.251V194.746Z" fill="#4553C7"/>
<path opacity="0.32" d="M381.072 198.976L387.758 195.098V193.604L381.072 197.482V198.976Z" fill="#4553C7"/>
<path opacity="0.32" d="M384.113 200.638L387.758 198.521V197.026L384.113 199.126V200.638Z" fill="#4553C7"/>
<path opacity="0.32" d="M380.699 206.007L387.758 201.933V200.438L380.699 204.513V206.007Z" fill="#4553C7"/>
<path opacity="0.32" d="M381.072 209.206L387.758 205.345V203.851L381.072 207.711V209.206Z" fill="#4553C7"/>
<path opacity="0.32" d="M349.504 227.45L346.659 229.086V227.592L349.504 225.955V227.45Z" fill="#4553C7"/>
<path opacity="0.32" d="M357.96 222.554L351.559 226.254V224.76L357.96 221.06V222.554Z" fill="#4553C7"/>
</g>
<path opacity="0.8" d="M383.841 123.847L280.48 183.553C281.298 184.033 282.116 184.549 282.934 185.083L386.295 125.448C385.477 124.914 384.606 124.398 383.841 123.847Z" fill="#453C9E"/>
<path d="M482.831 175.441H449.865V245.893C449.865 248.331 451.465 250.768 454.702 252.636C458.314 254.469 462.307 255.425 466.357 255.425C470.407 255.425 474.4 254.469 478.012 252.636C481.231 250.768 482.831 248.331 482.831 245.893V175.441Z" fill="url(#paint27_linear_515_1372)"/>
<path d="M482.831 175.441H449.865V245.893C449.865 248.331 451.465 250.768 454.702 252.636C458.314 254.469 462.307 255.425 466.357 255.425C470.407 255.425 474.4 254.469 478.012 252.636C481.231 250.768 482.831 248.331 482.831 245.893V175.441Z" fill="url(#paint28_linear_515_1372)"/>
<path d="M478.004 182.204C474.391 184.037 470.398 184.992 466.348 184.992C462.298 184.992 458.305 184.037 454.693 182.204C448.238 178.485 448.238 172.454 454.693 168.736C458.305 166.903 462.298 165.947 466.348 165.947C470.398 165.947 474.391 166.903 478.004 168.736C484.44 172.454 484.44 178.485 478.004 182.204Z" fill="url(#paint29_linear_515_1372)"/>
<path opacity="0.3" d="M473.861 179.811C471.53 180.995 468.953 181.613 466.34 181.613C463.726 181.613 461.149 180.995 458.818 179.811C454.657 177.409 454.657 173.513 458.818 171.129C461.149 169.944 463.726 169.327 466.34 169.327C468.953 169.327 471.53 169.944 473.861 171.129C478.022 173.513 478.022 177.409 473.861 179.811Z" fill="url(#paint30_linear_515_1372)"/>
<path opacity="0.5" d="M478.019 181.5C474.407 183.333 470.414 184.289 466.364 184.289C462.314 184.289 458.32 183.333 454.708 181.5C451.632 179.721 450.05 177.426 449.907 175.113C449.73 177.675 451.33 180.255 454.708 182.23C458.32 184.063 462.314 185.018 466.364 185.018C470.414 185.018 474.407 184.063 478.019 182.23C481.398 180.29 482.98 177.711 482.82 175.113C482.609 176.492 482.06 177.796 481.222 178.91C480.384 180.025 479.284 180.915 478.019 181.5V181.5Z" fill="white"/>
<path d="M482.831 160.161H449.865V166.548C449.865 168.985 451.465 171.423 454.702 173.291C458.314 175.124 462.307 176.079 466.357 176.079C470.407 176.079 474.4 175.124 478.012 173.291C481.231 171.512 482.831 168.985 482.831 166.548V160.161Z" fill="url(#paint31_linear_515_1372)"/>
<path d="M482.831 160.161H449.865V166.548C449.865 168.985 451.465 171.423 454.702 173.291C458.314 175.124 462.307 176.079 466.357 176.079C470.407 176.079 474.4 175.124 478.012 173.291C481.231 171.512 482.831 168.985 482.831 166.548V160.161Z" fill="url(#paint32_linear_515_1372)"/>
<path d="M478.004 166.902C474.391 168.735 470.398 169.69 466.348 169.69C462.298 169.69 458.305 168.735 454.693 166.902C448.238 163.184 448.238 157.152 454.693 153.434C458.305 151.601 462.298 150.646 466.348 150.646C470.398 150.646 474.391 151.601 478.004 153.434C484.44 157.152 484.44 163.184 478.004 166.902Z" fill="url(#paint33_linear_515_1372)"/>
<path opacity="0.5" d="M478.019 166.191C474.407 168.025 470.414 168.98 466.364 168.98C462.314 168.98 458.32 168.025 454.708 166.191C453.439 165.617 452.335 164.732 451.496 163.62C450.657 162.507 450.111 161.201 449.907 159.822C449.73 162.366 451.33 164.946 454.708 166.939C458.32 168.772 462.314 169.727 466.364 169.727C470.414 169.727 474.407 168.772 478.019 166.939C481.398 164.982 482.98 162.402 482.82 159.822C482.61 161.199 482.062 162.502 481.224 163.614C480.386 164.725 479.284 165.611 478.019 166.191V166.191Z" fill="white"/>
<path d="M455.576 214.682H422.61V261.649C422.61 264.087 424.211 266.524 427.429 268.392C431.044 270.226 435.04 271.181 439.093 271.181C443.146 271.181 447.142 270.226 450.758 268.392C453.976 266.524 455.576 264.087 455.576 261.649V214.682Z" fill="url(#paint34_linear_515_1372)"/>
<path d="M455.576 214.682H422.61V261.649C422.61 264.087 424.211 266.524 427.429 268.392C431.044 270.226 435.04 271.181 439.093 271.181C443.146 271.181 447.142 270.226 450.758 268.392C453.976 266.524 455.576 264.087 455.576 261.649V214.682Z" fill="url(#paint35_linear_515_1372)"/>
<path d="M439.093 224.223C429.99 224.223 422.61 219.961 422.61 214.705C422.61 209.448 429.99 205.187 439.093 205.187C448.197 205.187 455.576 209.448 455.576 214.705C455.576 219.961 448.197 224.223 439.093 224.223Z" fill="url(#paint36_linear_515_1372)"/>
<path opacity="0.5" d="M450.743 220.719C447.128 222.552 443.132 223.508 439.079 223.508C435.026 223.508 431.03 222.552 427.414 220.719C426.15 220.133 425.049 219.244 424.212 218.129C423.374 217.015 422.825 215.71 422.613 214.332C422.453 216.894 424.054 219.474 427.414 221.448C431.03 223.282 435.026 224.237 439.079 224.237C443.132 224.237 447.128 223.282 450.743 221.448C454.104 219.491 455.704 216.912 455.544 214.332C455.332 215.71 454.783 217.015 453.946 218.129C453.108 219.244 452.008 220.133 450.743 220.719V220.719Z" fill="white"/>
<path d="M428.321 206.363H395.284V277.402C395.284 279.84 396.885 282.277 400.103 284.127C403.715 285.96 407.708 286.916 411.758 286.916C415.809 286.916 419.802 285.96 423.414 284.127C426.65 282.348 428.25 279.84 428.25 277.402L428.321 206.363Z" fill="url(#paint37_linear_515_1372)"/>
<path d="M428.321 206.363H395.284V277.402C395.284 279.84 396.885 282.277 400.103 284.127C403.715 285.96 407.708 286.916 411.758 286.916C415.809 286.916 419.802 285.96 423.414 284.127C426.65 282.348 428.25 279.84 428.25 277.402L428.321 206.363Z" fill="url(#paint38_linear_515_1372)"/>
<path d="M411.817 215.894C402.714 215.894 395.334 211.632 395.334 206.376C395.334 201.119 402.714 196.857 411.817 196.857C420.92 196.857 428.3 201.119 428.3 206.376C428.3 211.632 420.92 215.894 411.817 215.894Z" fill="url(#paint39_linear_515_1372)"/>
<path opacity="0.5" d="M423.486 212.39C419.874 214.223 415.88 215.179 411.83 215.179C407.78 215.179 403.787 214.223 400.175 212.39C398.91 211.804 397.81 210.915 396.972 209.8C396.134 208.686 395.585 207.381 395.374 206.003C395.214 208.565 396.796 211.144 400.175 213.119C403.787 214.953 407.78 215.908 411.83 215.908C415.88 215.908 419.874 214.953 423.486 213.119C426.864 211.162 428.464 208.583 428.286 206.003C428.144 208.316 426.562 210.611 423.486 212.39Z" fill="white"/>
<path d="M401.066 234.899H368.1V293.129C368.1 295.566 369.701 298.004 372.919 299.854C376.531 301.687 380.524 302.642 384.575 302.642C388.625 302.642 392.618 301.687 396.23 299.854C399.448 298.075 401.066 295.566 401.066 293.129V234.899Z" fill="url(#paint40_linear_515_1372)"/>
<path d="M401.066 234.899H368.1V293.129C368.1 295.566 369.701 298.004 372.919 299.854C376.531 301.687 380.524 302.642 384.575 302.642C388.625 302.642 392.618 301.687 396.23 299.854C399.448 298.075 401.066 295.566 401.066 293.129V234.899Z" fill="url(#paint41_linear_515_1372)"/>
<path d="M396.218 241.619C392.609 243.46 388.615 244.42 384.563 244.42C380.511 244.42 376.517 243.46 372.908 241.619C366.471 237.9 366.471 231.869 372.908 228.151C376.52 226.318 380.513 225.362 384.563 225.362C388.613 225.362 392.606 226.318 396.218 228.151C402.655 231.869 402.655 237.9 396.218 241.619Z" fill="url(#paint42_linear_515_1372)"/>
<path opacity="0.5" d="M396.213 240.926C392.6 242.759 388.607 243.715 384.557 243.715C380.507 243.715 376.514 242.759 372.902 240.926C371.637 240.34 370.537 239.451 369.699 238.336C368.861 237.222 368.312 235.917 368.101 234.539C367.941 237.101 369.523 239.681 372.902 241.655C376.511 243.497 380.505 244.457 384.557 244.457C388.609 244.457 392.603 243.497 396.213 241.655C399.591 239.716 401.173 237.137 401.013 234.539C400.871 236.852 399.289 239.147 396.213 240.926Z" fill="white"/>
<path d="M373.791 264.983H340.807V308.873C340.807 311.311 342.425 313.748 345.644 315.598C349.256 317.432 353.249 318.387 357.299 318.387C361.349 318.387 365.343 317.432 368.955 315.598C372.173 313.819 373.791 311.311 373.791 308.873V264.983Z" fill="url(#paint43_linear_515_1372)"/>
<path d="M373.791 264.983H340.807V308.873C340.807 311.311 342.425 313.748 345.644 315.598C349.256 317.432 353.249 318.387 357.299 318.387C361.349 318.387 365.343 317.432 368.955 315.598C372.173 313.819 373.791 311.311 373.791 308.873V264.983Z" fill="url(#paint44_linear_515_1372)"/>
<path d="M357.287 274.493C348.183 274.493 340.804 270.232 340.804 264.975C340.804 259.718 348.183 255.457 357.287 255.457C366.39 255.457 373.77 259.718 373.77 264.975C373.77 270.232 366.39 274.493 357.287 274.493Z" fill="url(#paint45_linear_515_1372)"/>
<path opacity="0.5" d="M368.958 271.01C365.346 272.843 361.352 273.799 357.302 273.799C353.252 273.799 349.259 272.843 345.647 271.01C342.588 269.231 340.988 266.936 340.846 264.623C340.686 267.185 342.268 269.765 345.647 271.739C349.259 273.573 353.252 274.528 357.302 274.528C361.352 274.528 365.346 273.573 368.958 271.739C372.336 269.8 373.919 267.221 373.759 264.623C373.616 266.936 372.016 269.231 368.958 271.01Z" fill="white"/>
<path d="M225.268 146.72L222.085 148.749L221.711 146.4L224.894 144.372L225.268 146.72Z" fill="#42E8E0"/>
<path d="M227.832 162.646L224.649 164.674L222.444 150.904L225.627 148.876L227.832 162.646Z" fill="#42E8E0"/>
<path d="M229.062 170.265L225.879 172.293L224.99 166.831L228.172 164.803L229.062 170.265Z" fill="#42E8E0"/>
<path d="M230.333 178.155L227.15 180.166L226.261 174.704L229.444 172.676L230.333 178.155Z" fill="#42E8E0"/>
<path d="M231.244 151.317L228.061 153.345L227.19 147.884L230.373 145.855L231.244 151.317Z" fill="#42E8E0"/>
<path d="M232.919 161.771L229.736 163.799L228.456 155.758L231.639 153.729L232.919 161.771Z" fill="#42E8E0"/>
<path d="M234.466 171.38L231.283 173.408L230.181 166.523L233.363 164.495L234.466 171.38Z" fill="#42E8E0"/>
<path d="M231.584 186.043L228.401 188.071L227.53 182.609L230.713 180.581L231.584 186.043Z" fill="#42E8E0"/>
<path d="M230.016 143.701L226.833 145.729L226.459 143.381L229.642 141.353L230.016 143.701Z" fill="#42E8E0"/>
<path d="M235.187 192.183L229.621 195.724L229.248 193.447L234.813 189.906L235.187 192.183Z" fill="#42E8E0"/>
<defs>
<radialGradient id="paint0_radial_515_1372" cx="0" cy="0" r="1" gradientUnits="userSpaceOnUse" gradientTransform="translate(139.599 420.573) rotate(29.9003) scale(112.671 97.3795)">
<stop stop-color="#42E8E0"/>
<stop offset="0.15" stop-color="#33AEB9"/>
<stop offset="0.31" stop-color="#267A95"/>
<stop offset="0.47" stop-color="#1B5078"/>
<stop offset="0.62" stop-color="#132E61"/>
<stop offset="0.76" stop-color="#0D1651"/>
<stop offset="0.89" stop-color="#090847"/>
<stop offset="1" stop-color="#080344"/>
</radialGradient>
<linearGradient id="paint1_linear_515_1372" x1="407.796" y1="61.9952" x2="480.288" y2="62.1387" gradientUnits="userSpaceOnUse">
<stop stop-color="#42E8E0"/>
<stop offset="0.15" stop-color="#43E3E0"/>
<stop offset="0.33" stop-color="#45D5DF"/>
<stop offset="0.52" stop-color="#49BDDD"/>
<stop offset="0.72" stop-color="#4E9CDB"/>
<stop offset="0.93" stop-color="#5472D8"/>
<stop offset="1" stop-color="#5761D7"/>
</linearGradient>
<linearGradient id="paint2_linear_515_1372" x1="423.721" y1="71.184" x2="496.232" y2="71.3275" gradientUnits="userSpaceOnUse">
<stop stop-color="#42E8E0"/>
<stop offset="0.15" stop-color="#43E3E0"/>
<stop offset="0.33" stop-color="#45D5DF"/>
<stop offset="0.52" stop-color="#49BDDD"/>
<stop offset="0.72" stop-color="#4E9CDB"/>
<stop offset="0.93" stop-color="#5472D8"/>
<stop offset="1" stop-color="#5761D7"/>
</linearGradient>
<linearGradient id="paint3_linear_515_1372" x1="439.691" y1="80.3578" x2="512.184" y2="80.5013" gradientUnits="userSpaceOnUse">
<stop stop-color="#42E8E0"/>
<stop offset="0.15" stop-color="#43E3E0"/>
<stop offset="0.33" stop-color="#45D5DF"/>
<stop offset="0.52" stop-color="#49BDDD"/>
<stop offset="0.72" stop-color="#4E9CDB"/>
<stop offset="0.93" stop-color="#5472D8"/>
<stop offset="1" stop-color="#5761D7"/>
</linearGradient>
<linearGradient id="paint4_linear_515_1372" x1="504.737" y1="191.456" x2="510.37" y2="201.162" gradientUnits="userSpaceOnUse">
<stop stop-color="#5761D7"/>
<stop offset="0.16" stop-color="#5E67DA"/>
<stop offset="0.41" stop-color="#727AE2"/>
<stop offset="0.69" stop-color="#9297EE"/>
<stop offset="1" stop-color="#BCBEFF"/>
</linearGradient>
<linearGradient id="paint5_linear_515_1372" x1="504.803" y1="206.851" x2="510.436" y2="216.558" gradientUnits="userSpaceOnUse">
<stop stop-color="#5761D7"/>
<stop offset="0.16" stop-color="#5E67DA"/>
<stop offset="0.41" stop-color="#727AE2"/>
<stop offset="0.69" stop-color="#9297EE"/>
<stop offset="1" stop-color="#BCBEFF"/>
</linearGradient>
<linearGradient id="paint6_linear_515_1372" x1="504.854" y1="222.515" x2="510.487" y2="232.222" gradientUnits="userSpaceOnUse">
<stop stop-color="#5761D7"/>
<stop offset="0.16" stop-color="#5E67DA"/>
<stop offset="0.41" stop-color="#727AE2"/>
<stop offset="0.69" stop-color="#9297EE"/>
<stop offset="1" stop-color="#BCBEFF"/>
</linearGradient>
<linearGradient id="paint7_linear_515_1372" x1="474.66" y1="200.898" x2="517.85" y2="200.898" gradientUnits="userSpaceOnUse">
<stop stop-color="#5761D7"/>
<stop offset="0.16" stop-color="#5E67DA"/>
<stop offset="0.41" stop-color="#727AE2"/>
<stop offset="0.69" stop-color="#9297EE"/>
<stop offset="1" stop-color="#BCBEFF"/>
</linearGradient>
<linearGradient id="paint8_linear_515_1372" x1="495.864" y1="187.147" x2="511.653" y2="187.147" gradientUnits="userSpaceOnUse">
<stop stop-color="#42E8E0"/>
<stop offset="0.15" stop-color="#43E3E0"/>
<stop offset="0.33" stop-color="#45D5DF"/>
<stop offset="0.52" stop-color="#49BDDD"/>
<stop offset="0.72" stop-color="#4E9CDB"/>
<stop offset="0.93" stop-color="#5472D8"/>
<stop offset="1" stop-color="#5761D7"/>
</linearGradient>
<linearGradient id="paint9_linear_515_1372" x1="495.864" y1="202.502" x2="511.653" y2="202.502" gradientUnits="userSpaceOnUse">
<stop stop-color="#42E8E0"/>
<stop offset="0.15" stop-color="#43E3E0"/>
<stop offset="0.33" stop-color="#45D5DF"/>
<stop offset="0.52" stop-color="#49BDDD"/>
<stop offset="0.72" stop-color="#4E9CDB"/>
<stop offset="0.93" stop-color="#5472D8"/>
<stop offset="1" stop-color="#5761D7"/>
</linearGradient>
<linearGradient id="paint10_linear_515_1372" x1="495.864" y1="218.132" x2="511.653" y2="218.132" gradientUnits="userSpaceOnUse">
<stop stop-color="#42E8E0"/>
<stop offset="0.15" stop-color="#43E3E0"/>
<stop offset="0.33" stop-color="#45D5DF"/>
<stop offset="0.52" stop-color="#49BDDD"/>
<stop offset="0.72" stop-color="#4E9CDB"/>
<stop offset="0.93" stop-color="#5472D8"/>
<stop offset="1" stop-color="#5761D7"/>
</linearGradient>
<linearGradient id="paint11_linear_515_1372" x1="447.013" y1="119.571" x2="549.176" y2="60.3767" gradientUnits="userSpaceOnUse">
<stop stop-color="#5761D7"/>
<stop offset="0.16" stop-color="#5E67DA"/>
<stop offset="0.41" stop-color="#727AE2"/>
<stop offset="0.69" stop-color="#9297EE"/>
<stop offset="1" stop-color="#BCBEFF"/>
</linearGradient>
<linearGradient id="paint12_linear_515_1372" x1="558.997" y1="67.0429" x2="467.016" y2="134.35" gradientUnits="userSpaceOnUse">
<stop stop-color="#5761D7"/>
<stop offset="0.16" stop-color="#5E67DA"/>
<stop offset="0.41" stop-color="#727AE2"/>
<stop offset="0.69" stop-color="#9297EE"/>
<stop offset="1" stop-color="#BCBEFF"/>
</linearGradient>
<linearGradient id="paint13_linear_515_1372" x1="473.535" y1="98.5172" x2="546.028" y2="98.6607" gradientUnits="userSpaceOnUse">
<stop stop-color="#42E8E0"/>
<stop offset="0.15" stop-color="#43E3E0"/>
<stop offset="0.33" stop-color="#45D5DF"/>
<stop offset="0.52" stop-color="#49BDDD"/>
<stop offset="0.72" stop-color="#4E9CDB"/>
<stop offset="0.93" stop-color="#5472D8"/>
<stop offset="1" stop-color="#5761D7"/>
</linearGradient>
<linearGradient id="paint14_linear_515_1372" x1="470.401" y1="96.7998" x2="542.912" y2="96.9433" gradientUnits="userSpaceOnUse">
<stop stop-color="#42E8E0"/>
<stop offset="0.15" stop-color="#43E3E0"/>
<stop offset="0.33" stop-color="#45D5DF"/>
<stop offset="0.52" stop-color="#49BDDD"/>
<stop offset="0.72" stop-color="#4E9CDB"/>
<stop offset="0.93" stop-color="#5472D8"/>
<stop offset="1" stop-color="#5761D7"/>
</linearGradient>
<linearGradient id="paint15_linear_515_1372" x1="193.563" y1="154.354" x2="448.773" y2="154.354" gradientUnits="userSpaceOnUse">
<stop stop-color="#C0BFF6"/>
<stop offset="0.29" stop-color="#C5C4F7"/>
<stop offset="0.64" stop-color="#D3D2F9"/>
<stop offset="1" stop-color="#E9E9FD"/>
</linearGradient>
<linearGradient id="paint16_linear_515_1372" x1="193.592" y1="219.828" x2="237.404" y2="219.828" gradientUnits="userSpaceOnUse">
<stop stop-color="#5761D7"/>
<stop offset="0.18" stop-color="#5C66D9"/>
<stop offset="0.39" stop-color="#6A73DF"/>
<stop offset="0.61" stop-color="#8289E8"/>
<stop offset="0.85" stop-color="#A3A7F5"/>
<stop offset="1" stop-color="#BCBEFF"/>
</linearGradient>
<linearGradient id="paint17_linear_515_1372" x1="227.766" y1="293.442" x2="588.204" y2="293.442" gradientUnits="userSpaceOnUse">
<stop stop-color="#5761D7"/>
<stop offset="0.18" stop-color="#5C66D9"/>
<stop offset="0.39" stop-color="#6A73DF"/>
<stop offset="0.61" stop-color="#8289E8"/>
<stop offset="0.85" stop-color="#A3A7F5"/>
<stop offset="1" stop-color="#BCBEFF"/>
</linearGradient>
<linearGradient id="paint18_linear_515_1372" x1="348.863" y1="281.42" x2="709.497" y2="281.42" gradientUnits="userSpaceOnUse">
<stop stop-color="#C0BFF6"/>
<stop offset="0.29" stop-color="#C5C4F7"/>
<stop offset="0.64" stop-color="#D3D2F9"/>
<stop offset="1" stop-color="#E9E9FD"/>
</linearGradient>
<linearGradient id="paint19_linear_515_1372" x1="409.951" y1="301.914" x2="502.252" y2="301.914" gradientUnits="userSpaceOnUse">
<stop stop-color="#C0BFF6"/>
<stop offset="0.29" stop-color="#C5C4F7"/>
<stop offset="0.64" stop-color="#D3D2F9"/>
<stop offset="1" stop-color="#E9E9FD"/>
</linearGradient>
<linearGradient id="paint20_linear_515_1372" x1="211.089" y1="201.448" x2="571.704" y2="201.448" gradientUnits="userSpaceOnUse">
<stop stop-color="#C0BFF6"/>
<stop offset="0.29" stop-color="#C5C4F7"/>
<stop offset="0.64" stop-color="#D3D2F9"/>
<stop offset="1" stop-color="#E9E9FD"/>
</linearGradient>
<linearGradient id="paint21_linear_515_1372" x1="187.341" y1="174.953" x2="279.642" y2="174.953" gradientUnits="userSpaceOnUse">
<stop stop-color="#C0BFF6"/>
<stop offset="0.29" stop-color="#C5C4F7"/>
<stop offset="0.64" stop-color="#D3D2F9"/>
<stop offset="1" stop-color="#E9E9FD"/>
</linearGradient>
<radialGradient id="paint22_radial_515_1372" cx="0" cy="0" r="1" gradientUnits="userSpaceOnUse" gradientTransform="translate(332.792 247.903) scale(103.378 103.436)">
<stop stop-color="#2B237C"/>
<stop offset="1" stop-color="#180D5B"/>
</radialGradient>
<radialGradient id="paint23_radial_515_1372" cx="0" cy="0" r="1" gradientUnits="userSpaceOnUse" gradientTransform="translate(310.186 201.358) scale(79.1252 79.1693)">
<stop stop-color="#2B237C"/>
<stop offset="1" stop-color="#180D5B"/>
</radialGradient>
<linearGradient id="paint24_linear_515_1372" x1="281.706" y1="224.221" x2="351.466" y2="98.6681" gradientUnits="userSpaceOnUse">
<stop stop-color="#5761D7"/>
<stop offset="0.04" stop-color="#5C66D9"/>
<stop offset="0.09" stop-color="#6A73DF"/>
<stop offset="0.14" stop-color="#8289E8"/>
<stop offset="0.19" stop-color="#A3A7F5"/>
<stop offset="0.22" stop-color="#BCBEFF"/>
</linearGradient>
<linearGradient id="paint25_linear_515_1372" x1="367.332" y1="224.663" x2="320.901" y2="133.933" gradientUnits="userSpaceOnUse">
<stop stop-color="#C0BFF6"/>
<stop offset="0.29" stop-color="#C5C4F7"/>
<stop offset="0.64" stop-color="#D3D2F9"/>
<stop offset="1" stop-color="#E9E9FD"/>
</linearGradient>
<linearGradient id="paint26_linear_515_1372" x1="492.76" y1="387.795" x2="345.178" y2="126.429" gradientUnits="userSpaceOnUse">
<stop stop-color="#C0BFF6"/>
<stop offset="0.08" stop-color="#C3C2F6"/>
<stop offset="0.13" stop-color="#CCCBF8"/>
<stop offset="0.18" stop-color="#DBDBFB"/>
<stop offset="0.21" stop-color="#E9E9FD"/>
<stop offset="0.26" stop-color="#D8D7FA"/>
<stop offset="0.32" stop-color="#CACAF8"/>
<stop offset="0.39" stop-color="#C2C1F6"/>
<stop offset="0.51" stop-color="#C0BFF6"/>
<stop offset="0.62" stop-color="#D0CFF9"/>
<stop offset="0.75" stop-color="#E9E9FD"/>
<stop offset="1" stop-color="#C0BFF6"/>
</linearGradient>
<linearGradient id="paint27_linear_515_1372" x1="449.865" y1="215.471" x2="482.635" y2="215.471" gradientUnits="userSpaceOnUse">
<stop stop-color="#C0BFF6"/>
<stop offset="0.49" stop-color="#D2D1F9"/>
<stop offset="1" stop-color="#E9E9FD"/>
</linearGradient>
<linearGradient id="paint28_linear_515_1372" x1="413.112" y1="215.471" x2="476.465" y2="215.471" gradientUnits="userSpaceOnUse">
<stop stop-color="#5761D7"/>
<stop offset="0.18" stop-color="#5C66D9"/>
<stop offset="0.39" stop-color="#6A73DF"/>
<stop offset="0.61" stop-color="#8289E8"/>
<stop offset="0.85" stop-color="#A3A7F5"/>
<stop offset="1" stop-color="#BCBEFF"/>
</linearGradient>
<linearGradient id="paint29_linear_515_1372" x1="468.464" y1="168.754" x2="480.104" y2="188.996" gradientUnits="userSpaceOnUse">
<stop stop-color="#C0BFF6"/>
<stop offset="0.29" stop-color="#C5C4F7"/>
<stop offset="0.64" stop-color="#D3D2F9"/>
<stop offset="1" stop-color="#E9E9FD"/>
</linearGradient>
<linearGradient id="paint30_linear_515_1372" x1="472.61" y1="171.129" x2="480.129" y2="184.205" gradientUnits="userSpaceOnUse">
<stop stop-color="#5761D7"/>
<stop offset="0.18" stop-color="#5C66D9"/>
<stop offset="0.39" stop-color="#6A73DF"/>
<stop offset="0.61" stop-color="#8289E8"/>
<stop offset="0.85" stop-color="#A3A7F5"/>
<stop offset="1" stop-color="#BCBEFF"/>
</linearGradient>
<linearGradient id="paint31_linear_515_1372" x1="449.865" y1="168.149" x2="482.635" y2="168.149" gradientUnits="userSpaceOnUse">
<stop stop-color="#C0BFF6"/>
<stop offset="0.49" stop-color="#D2D1F9"/>
<stop offset="1" stop-color="#E9E9FD"/>
</linearGradient>
<linearGradient id="paint32_linear_515_1372" x1="413.112" y1="168.149" x2="476.465" y2="168.149" gradientUnits="userSpaceOnUse">
<stop stop-color="#5761D7"/>
<stop offset="0.18" stop-color="#5C66D9"/>
<stop offset="0.39" stop-color="#6A73DF"/>
<stop offset="0.61" stop-color="#8289E8"/>
<stop offset="0.85" stop-color="#A3A7F5"/>
<stop offset="1" stop-color="#BCBEFF"/>
</linearGradient>
<linearGradient id="paint33_linear_515_1372" x1="468.48" y1="153.443" x2="480.119" y2="173.685" gradientUnits="userSpaceOnUse">
<stop stop-color="#C0BFF6"/>
<stop offset="0.29" stop-color="#C5C4F7"/>
<stop offset="0.64" stop-color="#D3D2F9"/>
<stop offset="1" stop-color="#E9E9FD"/>
</linearGradient>
<linearGradient id="paint34_linear_515_1372" x1="422.61" y1="242.934" x2="455.381" y2="242.934" gradientUnits="userSpaceOnUse">
<stop stop-color="#C0BFF6"/>
<stop offset="0.49" stop-color="#D2D1F9"/>
<stop offset="1" stop-color="#E9E9FD"/>
</linearGradient>
<linearGradient id="paint35_linear_515_1372" x1="385.857" y1="242.934" x2="449.211" y2="242.934" gradientUnits="userSpaceOnUse">
<stop stop-color="#5761D7"/>
<stop offset="0.18" stop-color="#5C66D9"/>
<stop offset="0.39" stop-color="#6A73DF"/>
<stop offset="0.61" stop-color="#8289E8"/>
<stop offset="0.85" stop-color="#A3A7F5"/>
<stop offset="1" stop-color="#BCBEFF"/>
</linearGradient>
<linearGradient id="paint36_linear_515_1372" x1="441.095" y1="207.962" x2="452.735" y2="228.204" gradientUnits="userSpaceOnUse">
<stop stop-color="#C0BFF6"/>
<stop offset="0.29" stop-color="#C5C4F7"/>
<stop offset="0.64" stop-color="#D3D2F9"/>
<stop offset="1" stop-color="#E9E9FD"/>
</linearGradient>
<linearGradient id="paint37_linear_515_1372" x1="395.338" y1="246.642" x2="428.126" y2="246.642" gradientUnits="userSpaceOnUse">
<stop stop-color="#C0BFF6"/>
<stop offset="0.49" stop-color="#D2D1F9"/>
<stop offset="1" stop-color="#E9E9FD"/>
</linearGradient>
<linearGradient id="paint38_linear_515_1372" x1="358.602" y1="246.642" x2="421.956" y2="246.642" gradientUnits="userSpaceOnUse">
<stop stop-color="#5761D7"/>
<stop offset="0.18" stop-color="#5C66D9"/>
<stop offset="0.39" stop-color="#6A73DF"/>
<stop offset="0.61" stop-color="#8289E8"/>
<stop offset="0.85" stop-color="#A3A7F5"/>
<stop offset="1" stop-color="#BCBEFF"/>
</linearGradient>
<linearGradient id="paint39_linear_515_1372" x1="413.714" y1="199.633" x2="425.354" y2="219.875" gradientUnits="userSpaceOnUse">
<stop stop-color="#C0BFF6"/>
<stop offset="0.29" stop-color="#C5C4F7"/>
<stop offset="0.64" stop-color="#D3D2F9"/>
<stop offset="1" stop-color="#E9E9FD"/>
</linearGradient>
<linearGradient id="paint40_linear_515_1372" x1="368.083" y1="268.773" x2="400.871" y2="268.773" gradientUnits="userSpaceOnUse">
<stop stop-color="#C0BFF6"/>
<stop offset="0.49" stop-color="#D2D1F9"/>
<stop offset="1" stop-color="#E9E9FD"/>
</linearGradient>
<linearGradient id="paint41_linear_515_1372" x1="331.347" y1="268.773" x2="394.701" y2="268.773" gradientUnits="userSpaceOnUse">
<stop stop-color="#5761D7"/>
<stop offset="0.18" stop-color="#5C66D9"/>
<stop offset="0.39" stop-color="#6A73DF"/>
<stop offset="0.61" stop-color="#8289E8"/>
<stop offset="0.85" stop-color="#A3A7F5"/>
<stop offset="1" stop-color="#BCBEFF"/>
</linearGradient>
<linearGradient id="paint42_linear_515_1372" x1="386.329" y1="228.169" x2="397.968" y2="248.411" gradientUnits="userSpaceOnUse">
<stop stop-color="#C0BFF6"/>
<stop offset="0.29" stop-color="#C5C4F7"/>
<stop offset="0.64" stop-color="#D3D2F9"/>
<stop offset="1" stop-color="#E9E9FD"/>
</linearGradient>
<linearGradient id="paint43_linear_515_1372" x1="340.807" y1="291.688" x2="373.595" y2="291.688" gradientUnits="userSpaceOnUse">
<stop stop-color="#C0BFF6"/>
<stop offset="0.49" stop-color="#D2D1F9"/>
<stop offset="1" stop-color="#E9E9FD"/>
</linearGradient>
<linearGradient id="paint44_linear_515_1372" x1="304.072" y1="291.688" x2="367.425" y2="291.688" gradientUnits="userSpaceOnUse">
<stop stop-color="#5761D7"/>
<stop offset="0.18" stop-color="#5C66D9"/>
<stop offset="0.39" stop-color="#6A73DF"/>
<stop offset="0.61" stop-color="#8289E8"/>
<stop offset="0.85" stop-color="#A3A7F5"/>
<stop offset="1" stop-color="#BCBEFF"/>
</linearGradient>
<linearGradient id="paint45_linear_515_1372" x1="358.923" y1="258.241" x2="370.57" y2="278.497" gradientUnits="userSpaceOnUse">
<stop stop-color="#C0BFF6"/>
<stop offset="0.29" stop-color="#C5C4F7"/>
<stop offset="0.64" stop-color="#D3D2F9"/>
<stop offset="1" stop-color="#E9E9FD"/>
</linearGradient>
</defs>
</svg>
