<svg width="26" height="25" viewBox="0 0 26 25" fill="none" xmlns="http://www.w3.org/2000/svg">
<g clip-path="url(#clip0_350_455)">
<path d="M13.1059 2.22731C16.4106 2.22731 16.8019 2.2418 18.1016 2.29978C19.3095 2.35293 19.9617 2.55585 20.3966 2.72495C20.9715 2.9472 21.387 3.21776 21.817 3.64776C22.2518 4.08259 22.5176 4.49327 22.7398 5.06821C22.9089 5.50304 23.1118 6.16012 23.165 7.36316C23.223 8.66766 23.2375 9.05901 23.2375 12.3589C23.2375 15.6636 23.223 16.055 23.165 17.3546C23.1118 18.5625 22.9089 19.2148 22.7398 19.6496C22.5176 20.2245 22.247 20.64 21.817 21.07C21.3822 21.5049 20.9715 21.7706 20.3966 21.9929C19.9617 22.162 19.3046 22.3649 18.1016 22.418C16.7971 22.476 16.4058 22.4905 13.1059 22.4905C9.80114 22.4905 9.40979 22.476 8.11013 22.418C6.90226 22.3649 6.25001 22.162 5.81518 21.9929C5.24024 21.7706 4.82473 21.5 4.39473 21.07C3.9599 20.6352 3.69416 20.2245 3.47192 19.6496C3.30282 19.2148 3.09989 18.5577 3.04675 17.3546C2.98877 16.0501 2.97428 15.6588 2.97428 12.3589C2.97428 9.05418 2.98877 8.66283 3.04675 7.36316C3.09989 6.15529 3.30282 5.50304 3.47192 5.06821C3.69416 4.49327 3.96473 4.07776 4.39473 3.64776C4.82956 3.21293 5.24024 2.9472 5.81518 2.72495C6.25001 2.55585 6.90709 2.35293 8.11013 2.29978C9.40979 2.2418 9.80114 2.22731 13.1059 2.22731ZM13.1059 0C9.748 0 9.32766 0.0144944 8.00867 0.0724721C6.69451 0.13045 5.79102 0.343034 5.00832 0.647417C4.19181 0.966294 3.50091 1.38663 2.81484 2.07753C2.12394 2.7636 1.7036 3.4545 1.38472 4.26619C1.08034 5.05372 0.867754 5.95237 0.809777 7.26653C0.751799 8.59035 0.737305 9.01069 0.737305 12.3686C0.737305 15.7264 0.751799 16.1468 0.809777 17.4658C0.867754 18.7799 1.08034 19.6834 1.38472 20.4661C1.7036 21.2826 2.12394 21.9735 2.81484 22.6596C3.50091 23.3457 4.19181 23.7708 5.00349 24.0849C5.79102 24.3893 6.68968 24.6018 8.00384 24.6598C9.32283 24.7178 9.74317 24.7323 13.101 24.7323C16.4589 24.7323 16.8792 24.7178 18.1982 24.6598C19.5124 24.6018 20.4159 24.3893 21.1986 24.0849C22.0103 23.7708 22.7012 23.3457 23.3872 22.6596C24.0733 21.9735 24.4985 21.2826 24.8125 20.4709C25.1169 19.6834 25.3295 18.7848 25.3875 17.4706C25.4454 16.1516 25.4599 15.7313 25.4599 12.3734C25.4599 9.01552 25.4454 8.59519 25.3875 7.27619C25.3295 5.96203 25.1169 5.05855 24.8125 4.27585C24.5081 3.4545 24.0878 2.7636 23.3969 2.07753C22.7108 1.39146 22.0199 0.966294 21.2082 0.652248C20.4207 0.347866 19.5221 0.135281 18.2079 0.0773035C16.8841 0.0144944 16.4637 0 13.1059 0Z" fill="#FAFAFA"/>
<path d="M13.1063 6.01514C9.59867 6.01514 6.75293 8.86087 6.75293 12.3685C6.75293 15.8762 9.59867 18.7219 13.1063 18.7219C16.614 18.7219 19.4597 15.8762 19.4597 12.3685C19.4597 8.86087 16.614 6.01514 13.1063 6.01514ZM13.1063 16.4898C10.8307 16.4898 8.98507 14.6441 8.98507 12.3685C8.98507 10.0929 10.8307 8.24728 13.1063 8.24728C15.3819 8.24728 17.2276 10.0929 17.2276 12.3685C17.2276 14.6441 15.3819 16.4898 13.1063 16.4898Z" fill="#FAFAFA"/>
<path d="M21.1941 5.76403C21.1941 6.58538 20.5273 7.24729 19.7108 7.24729C18.8895 7.24729 18.2275 6.58055 18.2275 5.76403C18.2275 4.94267 18.8943 4.28076 19.7108 4.28076C20.5273 4.28076 21.1941 4.94751 21.1941 5.76403Z" fill="#FAFAFA"/>
</g>
<defs>
<clipPath id="clip0_350_455">
<rect width="24.7371" height="24.7371" fill="white" transform="translate(0.737305)"/>
</clipPath>
</defs>
</svg>
