<svg width="25" height="25" viewBox="0 0 25 25" fill="none" xmlns="http://www.w3.org/2000/svg">
<g clip-path="url(#clip0_350_456)">
<path d="M22.906 0H1.8263C0.816518 0 0 0.797193 0 1.78281V22.9495C0 23.9351 0.816518 24.7371 1.8263 24.7371H22.906C23.9158 24.7371 24.7371 23.9351 24.7371 22.9543V1.78281C24.7371 0.797193 23.9158 0 22.906 0ZM7.339 21.0797H3.66709V9.27159H7.339V21.0797ZM5.50305 7.66271C4.32417 7.66271 3.37237 6.71091 3.37237 5.53686C3.37237 4.36282 4.32417 3.41102 5.50305 3.41102C6.67709 3.41102 7.62889 4.36282 7.62889 5.53686C7.62889 6.70608 6.67709 7.66271 5.50305 7.66271ZM21.0797 21.0797H17.4126V15.3399C17.4126 13.9726 17.3885 12.2091 15.5042 12.2091C13.5958 12.2091 13.3059 13.7021 13.3059 15.2433V21.0797H9.64362V9.27159H13.1609V10.8853H13.2092C13.6972 9.95766 14.8954 8.97687 16.6782 8.97687C20.3936 8.97687 21.0797 11.4216 21.0797 14.6007V21.0797Z" fill="#FAFAFA"/>
</g>
<defs>
<clipPath id="clip0_350_456">
<rect width="24.7371" height="24.7371" fill="white"/>
</clipPath>
</defs>
</svg>
