<svg width="26" height="25" viewBox="0 0 26 25" fill="none" xmlns="http://www.w3.org/2000/svg">
<g clip-path="url(#clip0_350_457)">
<path fill-rule="evenodd" clip-rule="evenodd" d="M25.2117 12.3686C25.2117 19.1995 19.6741 24.7371 12.8432 24.7371C6.0122 24.7371 0.474609 19.1995 0.474609 12.3686C0.474609 5.5376 6.0122 0 12.8432 0C19.6741 0 25.2117 5.5376 25.2117 12.3686ZM13.2864 9.13102C12.0834 9.6314 9.67902 10.6671 6.07334 12.238C5.48783 12.4708 5.18111 12.6986 5.15319 12.9213C5.106 13.2978 5.57738 13.446 6.21927 13.6478C6.30658 13.6753 6.39704 13.7037 6.48979 13.7339C7.12131 13.9391 7.97081 14.1793 8.41243 14.1888C8.81303 14.1975 9.26013 14.0323 9.75375 13.6934C13.1227 11.4193 14.8617 10.2698 14.9709 10.2451C15.0479 10.2276 15.1547 10.2056 15.227 10.2699C15.2993 10.3342 15.2922 10.4559 15.2845 10.4885C15.2378 10.6876 13.3875 12.4078 12.43 13.298C12.1315 13.5756 11.9197 13.7724 11.8764 13.8174C11.7795 13.9181 11.6807 14.0133 11.5857 14.1049C10.999 14.6705 10.559 15.0946 11.61 15.7872C12.1151 16.1201 12.5193 16.3953 12.9225 16.6699C13.3628 16.9698 13.802 17.2688 14.3703 17.6413C14.5151 17.7363 14.6533 17.8348 14.788 17.9308C15.3005 18.2962 15.7609 18.6244 16.3297 18.5721C16.6602 18.5416 17.0015 18.2309 17.1749 17.304C17.5847 15.1135 18.3901 10.3674 18.5762 8.41163C18.5925 8.24028 18.572 8.02098 18.5555 7.92472C18.5391 7.82845 18.5046 7.6913 18.3795 7.58976C18.2313 7.46952 18.0026 7.44416 17.9002 7.44596C17.435 7.45416 16.7213 7.70234 13.2864 9.13102Z" fill="#FAFAFA"/>
</g>
<defs>
<clipPath id="clip0_350_457">
<rect width="24.7371" height="24.7371" fill="white" transform="translate(0.474609)"/>
</clipPath>
</defs>
</svg>
