<svg width="25" height="25" viewBox="0 0 25 25" fill="none" xmlns="http://www.w3.org/2000/svg">
<g clip-path="url(#clip0_350_454)">
<path d="M7.99299 22.418C17.3255 22.418 22.4314 14.6843 22.4314 7.97965C22.4314 7.76223 22.4265 7.53999 22.4169 7.32257C23.4101 6.60427 24.2673 5.71455 24.9481 4.69522C24.023 5.10678 23.0409 5.37557 22.0352 5.49241C23.0941 4.85767 23.887 3.86052 24.2668 2.68581C23.2706 3.27619 22.1812 3.69266 21.0452 3.91735C20.2798 3.10407 19.2678 2.56557 18.1656 2.38513C17.0635 2.20469 15.9326 2.39235 14.9478 2.91909C13.963 3.44583 13.1792 4.28232 12.7175 5.29923C12.2557 6.31614 12.1419 7.45683 12.3935 8.54493C10.3763 8.44371 8.40298 7.91971 6.60134 7.0069C4.7997 6.0941 3.21 4.81286 1.93529 3.24626C1.28741 4.36327 1.08916 5.68506 1.38083 6.94299C1.67249 8.20092 2.43219 9.3006 3.50552 10.0185C2.69973 9.99295 1.91159 9.776 1.20622 9.38561V9.44842C1.2055 10.6206 1.61075 11.7569 2.35308 12.6642C3.09541 13.5714 4.12901 14.1935 5.27818 14.4248C4.53175 14.6291 3.74833 14.6588 2.98855 14.5118C3.31282 15.5199 3.94374 16.4016 4.79325 17.0339C5.64277 17.6662 6.66848 18.0175 7.72726 18.0388C5.92977 19.4507 3.70936 20.2166 1.42364 20.2129C1.01828 20.2123 0.613327 20.1875 0.210938 20.1385C2.53299 21.6282 5.23415 22.4195 7.99299 22.418Z" fill="#FAFAFA"/>
</g>
<defs>
<clipPath id="clip0_350_454">
<rect width="24.7371" height="24.7371" fill="white" transform="translate(0.210938)"/>
</clipPath>
</defs>
</svg>
