<svg width="55" height="49" viewBox="0 0 55 49" fill="none" xmlns="http://www.w3.org/2000/svg">
<path d="M47.1307 23.3887L27.6592 48.9998L50.3709 32.5585C52.49 31.0245 52.5904 27.9026 50.5741 26.2356L47.1307 23.3887Z" fill="#FAFAFA"/>
<path d="M8.18768 23.3887L27.6592 48.9998L4.94747 32.5585C2.82834 31.0245 2.728 27.9026 4.74425 26.2356L8.18768 23.3887Z" fill="#FAFAFA"/>
<path d="M27.6592 46.8953L35.3776 8.654L47.1491 2.05481C48.6181 1.23128 50.3851 2.48104 50.0979 4.14045L47.1307 21.2842L27.6592 46.8953Z" fill="#FAFAFA"/>
<path d="M27.659 41.0479L21.1101 8.65382L34.208 8.65382L27.659 41.0479Z" fill="#FAFAFA"/>
<path d="M27.6592 46.8953L19.9407 8.654L8.16921 2.05481C6.70022 1.23128 4.9333 2.48104 5.2205 4.14045L8.18768 21.2842L27.6592 46.8953Z" fill="#FAFAFA"/>
</svg>
