<svg width="118" height="36" viewBox="0 0 118 36" fill="none" xmlns="http://www.w3.org/2000/svg">
<path d="M112.209 16.7515L98.2637 35.0942L113.342 24.1789C115.461 22.6448 115.561 19.5229 113.545 17.856L112.209 16.7515Z" fill="#FAFAFA"/>
<path d="M84.3182 16.7515L98.2637 35.0942L83.1855 24.1789C81.0663 22.6448 80.966 19.5229 82.9822 17.856L84.3182 16.7515Z" fill="#FAFAFA"/>
<path d="M98.2637 33.5865L103.792 6.198L111.182 2.05481C112.651 1.23128 114.418 2.48104 114.131 4.14045L112.209 15.2437L98.2637 33.5865Z" fill="#FAFAFA"/>
<path d="M98.2637 29.3989L93.5733 6.19829L102.954 6.19829L98.2637 29.3989Z" fill="#FAFAFA"/>
<path d="M98.2637 33.5865L92.7357 6.198L85.3452 2.05481C83.8762 1.23128 82.1092 2.48104 82.3964 4.14045L84.3182 15.2437L98.2637 33.5865Z" fill="#FAFAFA"/>
<path d="M23.8345 23.3945H11.303C11.3258 24.9067 10.7509 26.3671 9.70257 27.46C9.20359 28.0211 8.58954 28.4688 7.90198 28.7727C7.21442 29.0766 6.46941 29.2296 5.71738 29.2215C4.96939 29.2335 4.22653 29.0964 3.53246 28.8181C2.83838 28.5398 2.20708 28.126 1.67566 27.6009C1.13373 27.0919 0.704733 26.4753 0.416307 25.7908C0.127881 25.1064 -0.0135832 24.3693 0.00102665 23.627V15.1332H2.82741V23.5495C2.82363 23.9207 2.89415 24.2889 3.03485 24.6325C3.17555 24.9762 3.3836 25.2883 3.64681 25.5508C3.91002 25.8133 4.2231 26.0207 4.56772 26.161C4.91234 26.3013 5.28157 26.3717 5.65378 26.3679C6.02598 26.3746 6.39558 26.3049 6.73959 26.1631C7.08361 26.0213 7.39468 25.8104 7.65345 25.5435C7.921 25.2884 8.1326 24.9807 8.27489 24.64C8.41719 24.2992 8.48708 23.9327 8.48016 23.5636V15.1332H11.3065V20.629H13.8609V15.1332H16.6873V20.629H17.4998C17.9244 20.6573 18.3508 20.6216 18.7646 20.5233C19.1179 20.3718 19.2805 19.9843 19.2805 19.3678V15.1402H22.1068V20.636H23.8097L23.8345 23.3945ZM42.8666 23.3945H22.93V20.629H38.1571V19.1106C38.1571 18.4589 38.0264 18.0749 37.772 17.9656C37.4972 17.8725 37.2069 17.833 36.9171 17.8494H28.7241C27.9398 17.8494 27.378 17.7014 27.0318 17.4125C26.6856 17.1237 26.4524 16.5529 26.4524 15.7885V9.49645H41.1248V12.2655H29.4307V13.872C29.4307 14.438 29.5084 14.7903 29.6639 14.9289C29.8193 15.0674 30.155 15.1273 30.6708 15.1085H38.8284C40.3594 15.1085 41.1248 15.7955 41.1248 17.1695V20.6184H42.856L42.8666 23.3945ZM49.8866 23.3945H42.1141V20.629H45.3291V15.1332H48.1555V20.629H49.8831L49.8866 23.3945ZM49.6923 26.2622C49.6923 26.6359 49.5434 26.9944 49.2784 27.2586C49.0134 27.5229 48.6539 27.6714 48.2791 27.6714C48.0927 27.6738 47.9079 27.6374 47.7363 27.5646C47.5648 27.4918 47.4103 27.3842 47.2828 27.2486C47.1535 27.1177 47.0516 26.9625 46.983 26.7919C46.9145 26.6214 46.8807 26.4389 46.8836 26.2552C46.8786 25.8821 47.0222 25.5223 47.2828 25.2546C47.4807 25.0571 47.7329 24.9227 48.0075 24.8683C48.2821 24.8139 48.5667 24.8422 48.8252 24.9493C49.0837 25.0565 49.3045 25.2379 49.4595 25.4704C49.6145 25.7028 49.6968 25.976 49.6958 26.2552L49.6923 26.2622ZM46.4667 26.2622C46.4696 26.4472 46.4344 26.6308 46.3633 26.8017C46.2922 26.9725 46.1867 27.1271 46.0533 27.2557C45.925 27.3893 45.7709 27.4957 45.6003 27.5683C45.4297 27.641 45.2461 27.6784 45.0606 27.6784C44.875 27.6784 44.6914 27.641 44.5208 27.5683C44.3502 27.4957 44.1961 27.3893 44.0678 27.2557C43.9344 27.1271 43.829 26.9725 43.7579 26.8017C43.6868 26.6308 43.6516 26.4472 43.6544 26.2622C43.6527 26.0763 43.6883 25.892 43.7593 25.7201C43.8303 25.5483 43.9352 25.3924 44.0678 25.2617C44.3323 25.0014 44.689 24.8554 45.0606 24.8554C45.4322 24.8554 45.7889 25.0014 46.0533 25.2617C46.1859 25.3924 46.2908 25.5483 46.3618 25.7201C46.4328 25.892 46.4685 26.0763 46.4667 26.2622ZM55.2214 20.6008C55.2214 22.4656 54.2616 23.3969 52.342 23.3945H49.1624V20.6149H50.6073C51.0319 20.6495 51.4593 20.6138 51.8721 20.5092C52.2254 20.3577 52.388 19.9702 52.388 19.3537V15.1261H55.2143L55.2214 20.6008ZM56.9879 12.6107C56.9879 12.9845 56.839 13.3429 56.574 13.6072C56.309 13.8715 55.9495 14.0199 55.5747 14.0199C55.3897 14.0227 55.2061 13.9876 55.0354 13.9167C54.8646 13.8458 54.7102 13.7406 54.5819 13.6077C54.4495 13.4774 54.3441 13.3222 54.272 13.1511C54.1998 12.98 54.1623 12.7964 54.1615 12.6107C54.1588 12.4273 54.193 12.2451 54.2622 12.075C54.3314 11.905 54.4341 11.7505 54.5643 11.6208C54.6908 11.4847 54.8445 11.3764 55.0155 11.303C55.1864 11.2296 55.3709 11.1927 55.557 11.1945C55.9318 11.1945 56.2913 11.343 56.5563 11.6073C56.8213 11.8715 56.9702 12.23 56.9702 12.6037L56.9879 12.6107ZM53.7658 12.6107C53.7681 12.7972 53.7327 12.9822 53.6616 13.1547C53.5906 13.3272 53.4855 13.4837 53.3525 13.6148C53.0878 13.8762 52.7304 14.0228 52.3579 14.0228C51.9854 14.0228 51.628 13.8762 51.3634 13.6148C51.2304 13.4837 51.1252 13.3272 51.0542 13.1547C50.9832 12.9822 50.9478 12.7972 50.95 12.6107C50.95 12.237 51.0989 11.8786 51.364 11.6143C51.629 11.35 51.9884 11.2016 52.3632 11.2016C52.738 11.2016 53.0975 11.35 53.3625 11.6143C53.6275 11.8786 53.7764 12.237 53.7764 12.6107H53.7658ZM63.7005 23.3945H61.5207C59.62 23.3945 58.6696 22.4809 58.6696 20.6537V8.77777H61.496V19.3783C61.496 20.2145 61.9741 20.6313 62.9304 20.629H63.7005V23.3945ZM68.8622 12.5614C68.8637 12.7482 68.8268 12.9333 68.7539 13.1054C68.681 13.2774 68.5736 13.4328 68.4383 13.5619C68.3093 13.6949 68.1543 13.8001 67.983 13.871C67.8116 13.9419 67.6275 13.977 67.442 13.9741C67.0672 13.9741 66.7077 13.8257 66.4427 13.5614C66.1777 13.2971 66.0288 12.9387 66.0288 12.5649C66.0259 12.38 66.0611 12.1964 66.1322 12.0255C66.2033 11.8546 66.3088 11.7001 66.4421 11.5715C66.5732 11.4393 66.7295 11.3347 66.9019 11.2639C67.0742 11.1931 67.2591 11.1575 67.4455 11.1593C67.631 11.1564 67.8151 11.1915 67.9865 11.2624C68.1578 11.3333 68.3128 11.4385 68.4418 11.5715C68.5754 11.6992 68.6811 11.853 68.7522 12.0234C68.8233 12.1937 68.8584 12.3769 68.8551 12.5614H68.8622ZM69 20.6008C69 22.4656 68.0402 23.3969 66.1206 23.3945H62.941V20.6149H64.3859C64.8105 20.6495 65.2379 20.6138 65.6507 20.5092C66.004 20.3577 66.1666 19.9702 66.1666 19.3537V15.1261H68.9929L69 20.6008Z" fill="#FAFAFA"/>
</svg>
