<svg width="90" height="28" viewBox="0 0 90 28" fill="none" xmlns="http://www.w3.org/2000/svg">
<path d="M25.5105 13.1416L14.7979 27.2321L25.4102 19.5497C27.5294 18.0156 27.6297 14.8937 25.6134 13.2267L25.5105 13.1416Z" fill="#FAFAFA"/>
<path d="M4.08522 13.1416L14.7979 27.2321L4.18548 19.5497C2.06635 18.0156 1.96601 14.8937 3.98226 13.2267L4.08522 13.1416Z" fill="#FAFAFA"/>
<path d="M14.7979 26.0738L19.0443 5.03461L23.8719 2.32824C25.3409 1.50472 27.1078 2.75448 26.8206 4.41389L25.5105 11.9833L14.7979 26.0738Z" fill="#FAFAFA"/>
<path d="M14.7973 22.8574L11.1943 5.03521L18.4004 5.03521L14.7973 22.8574Z" fill="#FAFAFA"/>
<path d="M14.7988 26.0738L10.5524 5.03461L5.72481 2.32824C4.25582 1.50472 2.4889 2.75448 2.7761 4.41389L4.0862 11.9833L14.7988 26.0738Z" fill="#FAFAFA"/>
<path d="M47.256 8.2H43.941L42.036 19H45.426L46.026 15.58L46.326 13.12L49.146 19H52.461L54.366 8.2H50.976L50.361 11.635L50.076 14.095L47.256 8.2ZM63.0061 19L63.0361 18.85C62.6911 18.52 62.7061 18.295 62.7961 17.845L63.4411 14.17C63.7711 12.295 63.7861 10.915 60.0661 10.915C56.9611 10.915 55.5961 11.89 55.3111 13.555H58.3111C58.5061 12.88 59.1061 12.79 59.5411 12.79C59.8711 12.79 60.5461 12.865 60.4411 13.435C60.1861 14.905 54.8761 13.285 54.2461 16.855C53.9611 18.49 55.1461 19.225 56.6311 19.225C57.8011 19.225 58.7461 18.985 59.7811 18.16V19H63.0061ZM58.3561 17.455C57.7411 17.455 57.4111 17.185 57.4861 16.795C57.6661 15.775 58.9711 16.015 60.0811 15.52C59.9611 16.6 59.4511 17.455 58.3561 17.455ZM69.801 16.765H69.306C68.436 16.765 68.376 16.51 68.511 15.79L69.006 12.94H70.506L70.821 11.14H69.321L69.756 8.695H66.681L66.246 11.14H65.091L64.776 12.94H65.886L65.316 16.225C64.836 18.94 65.271 19.225 69.411 19L69.801 16.765ZM74.216 19L75.596 11.14H72.476L71.096 19H74.216ZM72.656 10.135H75.776L76.166 7.915H73.046L72.656 10.135ZM75.5661 19H79.0161L80.5461 16.75L81.2661 19H84.7461L82.7511 14.875L86.0961 11.14H82.6761L81.2811 13.105L80.6361 11.14H77.1711L79.1061 14.89L75.5661 19Z" fill="#FAFAFA"/>
</svg>
