<svg width="655" height="370" viewBox="0 0 655 370" fill="none" xmlns="http://www.w3.org/2000/svg">
<path d="M241.989 92.6897V82.4397C241.989 81.9596 241.799 81.4993 241.459 81.1598C241.12 80.8204 240.66 80.6297 240.18 80.6297H237.539C237.163 80.6311 236.798 80.5054 236.502 80.2731C236.206 80.0408 235.997 79.7154 235.909 79.3497C235.015 75.4274 233.47 71.6824 231.339 68.2697C231.137 67.9445 231.05 67.5607 231.091 67.1799C231.133 66.7991 231.302 66.4434 231.57 66.1697L233.419 64.3097C233.589 64.1423 233.723 63.943 233.815 63.7232C233.907 63.5035 233.954 63.2678 233.954 63.0297C233.954 62.7916 233.907 62.5559 233.815 62.3361C233.723 62.1164 233.589 61.9171 233.419 61.7497L226.149 54.4997C225.982 54.3304 225.783 54.196 225.563 54.1042C225.343 54.0125 225.108 53.9652 224.869 53.9652C224.631 53.9652 224.396 54.0125 224.176 54.1042C223.956 54.196 223.757 54.3304 223.589 54.4997L221.729 56.3497C221.456 56.6193 221.1 56.788 220.718 56.828C220.336 56.868 219.952 56.7769 219.629 56.5697C216.215 54.4433 212.47 52.8989 208.549 51.9997C208.183 51.9135 207.856 51.7052 207.624 51.409C207.391 51.1128 207.266 50.7463 207.269 50.3697V47.7397C207.269 47.2596 207.079 46.7993 206.739 46.4598C206.4 46.1204 205.94 45.9297 205.46 45.9297H195.209C194.729 45.9297 194.267 46.1201 193.926 46.4592C193.585 46.7984 193.392 47.2587 193.389 47.7397V50.3697C193.393 50.7449 193.27 51.1104 193.039 51.4064C192.808 51.7024 192.484 51.9115 192.119 51.9997C188.195 52.8989 184.448 54.4432 181.029 56.5697C180.706 56.7769 180.323 56.868 179.941 56.828C179.559 56.788 179.203 56.6193 178.93 56.3497L177.149 54.4997C176.808 54.1596 176.346 53.9686 175.865 53.9686C175.383 53.9686 174.921 54.1596 174.579 54.4997L167.339 61.7497C167.17 61.9171 167.036 62.1164 166.944 62.3361C166.852 62.5559 166.805 62.7916 166.805 63.0297C166.805 63.2678 166.852 63.5035 166.944 63.7232C167.036 63.943 167.17 64.1423 167.339 64.3097L169.149 66.1397C169.418 66.4111 169.587 66.7661 169.627 67.146C169.667 67.526 169.576 67.9082 169.369 68.2297C167.245 71.6489 165.7 75.3962 164.799 79.3197C164.719 79.6952 164.51 80.0311 164.209 80.27C163.908 80.5089 163.534 80.636 163.149 80.6297H160.509C160.028 80.6297 159.567 80.8201 159.226 81.1592C158.885 81.4984 158.692 81.9587 158.689 82.4397V92.6897C158.692 93.1716 158.885 93.633 159.225 93.9737C159.566 94.3145 160.028 94.5071 160.509 94.5097H163.149C163.523 94.5064 163.887 94.6303 164.182 94.8611C164.476 95.0918 164.683 95.4157 164.769 95.7797C165.673 99.6992 167.217 103.443 169.339 106.86C169.547 107.183 169.638 107.567 169.598 107.948C169.558 108.33 169.389 108.687 169.119 108.96L167.289 110.82C166.949 111.161 166.758 111.623 166.758 112.105C166.758 112.586 166.949 113.049 167.289 113.39L174.529 120.63C174.871 120.97 175.333 121.161 175.814 121.161C176.296 121.161 176.758 120.97 177.099 120.63L178.959 118.78C179.233 118.512 179.589 118.343 179.97 118.302C180.351 118.26 180.734 118.347 181.059 118.55C184.476 120.684 188.224 122.235 192.149 123.14C192.515 123.226 192.84 123.435 193.071 123.731C193.302 124.028 193.425 124.394 193.419 124.77V127.41C193.422 127.892 193.615 128.353 193.955 128.694C194.296 129.034 194.758 129.227 195.24 129.23H205.489C205.97 129.227 206.431 129.034 206.77 128.693C207.109 128.352 207.3 127.891 207.299 127.41V124.75C207.296 124.373 207.421 124.007 207.654 123.71C207.886 123.414 208.213 123.206 208.58 123.12C212.5 122.22 216.245 120.676 219.659 118.55C219.984 118.348 220.367 118.26 220.747 118.3C221.128 118.339 221.484 118.505 221.759 118.77L223.619 120.63C223.787 120.799 223.986 120.933 224.206 121.025C224.426 121.117 224.661 121.164 224.899 121.164C225.138 121.164 225.373 121.117 225.593 121.025C225.813 120.933 226.012 120.799 226.18 120.63L233.43 113.39C233.77 113.049 233.961 112.586 233.961 112.105C233.961 111.623 233.77 111.161 233.43 110.82L231.57 108.96C231.3 108.687 231.131 108.33 231.091 107.948C231.051 107.567 231.142 107.183 231.349 106.86C233.48 103.447 235.025 99.702 235.919 95.7797C236.008 95.4149 236.217 95.0908 236.513 94.8601C236.809 94.6295 237.174 94.506 237.549 94.5097H240.149C240.39 94.5123 240.629 94.4672 240.852 94.3769C241.075 94.2867 241.278 94.153 241.449 93.9837C241.621 93.8145 241.756 93.6129 241.849 93.3908C241.942 93.1687 241.989 92.9304 241.989 92.6897V92.6897ZM200.349 116.47C196.555 116.468 192.797 115.719 189.292 114.266C185.787 112.812 182.602 110.682 179.921 107.997C177.239 105.313 175.112 102.126 173.662 98.6192C172.212 95.1125 171.467 91.3544 171.469 87.5597C171.469 79.8993 174.512 72.5525 179.928 67.1349C185.343 61.7173 192.689 58.6723 200.349 58.6697C208.01 58.6723 215.356 61.7173 220.771 67.1349C226.187 72.5525 229.229 79.8993 229.229 87.5597C229.232 91.3544 228.487 95.1125 227.037 98.6192C225.587 102.126 223.46 105.313 220.778 107.997C218.096 110.682 214.912 112.812 211.407 114.266C207.902 115.719 204.144 116.468 200.349 116.47V116.47Z" stroke="#DEE3FC" stroke-width="0.79" stroke-miterlimit="10"/>
<path d="M289.149 127.39V120.39C289.152 120.225 289.122 120.061 289.06 119.908C288.998 119.755 288.906 119.616 288.789 119.5C288.673 119.383 288.534 119.291 288.381 119.229C288.228 119.167 288.064 119.137 287.899 119.14H286.149C285.892 119.141 285.641 119.055 285.439 118.895C285.238 118.735 285.096 118.511 285.039 118.26C284.41 115.595 283.342 113.054 281.879 110.74C281.738 110.52 281.676 110.258 281.703 109.998C281.731 109.738 281.846 109.495 282.029 109.31L283.289 108.05C283.405 107.935 283.497 107.799 283.56 107.649C283.623 107.499 283.655 107.337 283.655 107.175C283.655 107.012 283.623 106.851 283.56 106.7C283.497 106.55 283.405 106.414 283.289 106.3L278.349 101.36C278.117 101.128 277.802 100.998 277.474 100.998C277.146 100.998 276.832 101.128 276.599 101.36L275.339 102.62C275.154 102.803 274.911 102.918 274.651 102.946C274.391 102.973 274.129 102.911 273.909 102.77C271.583 101.32 269.032 100.269 266.359 99.6596C266.111 99.599 265.89 99.4566 265.732 99.2553C265.574 99.0539 265.489 98.8054 265.489 98.5496V96.7596C265.489 96.4307 265.359 96.1153 265.126 95.8828C264.894 95.6502 264.578 95.5196 264.249 95.5196H257.249C257.086 95.5182 256.924 95.5494 256.773 95.6112C256.622 95.6731 256.485 95.7644 256.37 95.8798C256.254 95.9952 256.163 96.1324 256.101 96.2835C256.039 96.4345 256.008 96.5964 256.009 96.7596V98.5496C256.01 98.8054 255.924 99.0539 255.767 99.2553C255.609 99.4566 255.388 99.599 255.139 99.6596C252.464 100.269 249.909 101.32 247.579 102.77C247.36 102.911 247.098 102.973 246.838 102.946C246.578 102.918 246.335 102.803 246.149 102.62L244.889 101.36C244.657 101.128 244.342 100.998 244.014 100.998C243.686 100.998 243.372 101.128 243.139 101.36L238.199 106.3C237.968 106.532 237.838 106.847 237.838 107.175C237.838 107.503 237.968 107.817 238.199 108.05L239.469 109.31C239.652 109.496 239.766 109.739 239.793 109.999C239.82 110.258 239.759 110.519 239.619 110.74C238.172 113.068 237.118 115.619 236.499 118.29C236.442 118.541 236.301 118.765 236.099 118.925C235.897 119.085 235.647 119.171 235.389 119.17H233.599C233.272 119.17 232.958 119.299 232.726 119.529C232.494 119.76 232.362 120.072 232.359 120.4V127.4C232.362 127.728 232.493 128.042 232.725 128.273C232.957 128.505 233.271 128.637 233.599 128.64H235.389C235.646 128.635 235.896 128.72 236.099 128.878C236.301 129.036 236.442 129.259 236.499 129.51C237.118 132.18 238.172 134.731 239.619 137.06C239.759 137.28 239.82 137.541 239.793 137.801C239.766 138.06 239.652 138.303 239.469 138.49L238.199 139.75C237.968 139.982 237.838 140.297 237.838 140.625C237.838 140.953 237.968 141.267 238.199 141.5L243.139 146.44C243.372 146.671 243.686 146.801 244.014 146.801C244.342 146.801 244.657 146.671 244.889 146.44L246.149 145.14C246.336 144.957 246.579 144.844 246.838 144.816C247.098 144.789 247.359 144.85 247.579 144.99C249.908 146.457 252.467 147.522 255.149 148.14C255.398 148.2 255.619 148.343 255.777 148.544C255.934 148.745 256.02 148.994 256.019 149.25V151.05C256.018 151.213 256.049 151.375 256.111 151.526C256.173 151.677 256.264 151.814 256.38 151.929C256.495 152.045 256.632 152.136 256.783 152.198C256.934 152.26 257.096 152.291 257.259 152.29H264.259C264.588 152.29 264.904 152.159 265.136 151.926C265.369 151.694 265.499 151.378 265.499 151.05V149.25C265.499 148.994 265.584 148.745 265.742 148.544C265.9 148.343 266.121 148.2 266.369 148.14C269.042 147.53 271.593 146.479 273.919 145.03C274.14 144.89 274.401 144.829 274.66 144.856C274.92 144.884 275.163 144.997 275.349 145.18L276.609 146.45C276.842 146.681 277.156 146.811 277.484 146.811C277.812 146.811 278.127 146.681 278.359 146.45L283.299 141.51C283.415 141.395 283.507 141.259 283.57 141.109C283.633 140.959 283.665 140.797 283.665 140.635C283.665 140.472 283.633 140.311 283.57 140.16C283.507 140.01 283.415 139.874 283.299 139.76L282.039 138.5C281.856 138.314 281.741 138.071 281.713 137.811C281.686 137.551 281.748 137.289 281.889 137.07C283.337 134.743 284.388 132.191 284.999 129.52C285.058 129.27 285.2 129.048 285.402 128.89C285.604 128.732 285.853 128.647 286.109 128.65H287.909C288.074 128.65 288.237 128.617 288.389 128.553C288.54 128.49 288.678 128.397 288.793 128.279C288.909 128.162 289 128.023 289.061 127.87C289.122 127.717 289.152 127.554 289.149 127.39ZM260.779 142.48C257.105 142.482 253.512 141.394 250.455 139.354C247.399 137.314 245.016 134.413 243.608 131.019C242.199 127.625 241.829 123.889 242.544 120.285C243.259 116.68 245.027 113.368 247.624 110.769C250.221 108.169 253.531 106.397 257.135 105.679C260.739 104.96 264.475 105.326 267.87 106.73C271.266 108.135 274.169 110.514 276.213 113.569C278.256 116.623 279.347 120.215 279.349 123.89C279.351 126.331 278.871 128.749 277.937 131.005C277.003 133.261 275.634 135.311 273.907 137.038C272.181 138.764 270.131 140.133 267.875 141.067C265.619 142.001 263.201 142.481 260.759 142.48H260.779Z" fill="#DEE3FC"/>
<path d="M157.6 312.33C159.472 312.33 160.99 310.812 160.99 308.94C160.99 307.068 159.472 305.55 157.6 305.55C155.728 305.55 154.21 307.068 154.21 308.94C154.21 310.812 155.728 312.33 157.6 312.33Z" fill="#A4AFFF"/>
<path d="M611.23 219.809C613.102 219.809 614.62 218.292 614.62 216.419C614.62 214.547 613.102 213.029 611.23 213.029C609.358 213.029 607.84 214.547 607.84 216.419C607.84 218.292 609.358 219.809 611.23 219.809Z" fill="#A4AFFF"/>
<path d="M604.46 98.9001C606.333 98.9001 607.85 97.3824 607.85 95.5101C607.85 93.6379 606.333 92.1201 604.46 92.1201C602.588 92.1201 601.07 93.6379 601.07 95.5101C601.07 97.3824 602.588 98.9001 604.46 98.9001Z" fill="#A4AFFF"/>
<path d="M482.71 56.5398C483.881 56.5398 484.83 55.5906 484.83 54.4198C484.83 53.249 483.881 52.2998 482.71 52.2998C481.539 52.2998 480.59 53.249 480.59 54.4198C480.59 55.5906 481.539 56.5398 482.71 56.5398Z" fill="#A4AFFF"/>
<path d="M170.86 26.1396C170.86 26.4188 170.805 26.6953 170.698 26.9532C170.591 27.211 170.434 27.4452 170.236 27.6422C170.038 27.8392 169.803 27.9951 169.545 28.1011C169.286 28.207 169.01 28.2609 168.73 28.2596C168.168 28.2596 167.629 28.0362 167.231 27.6386C166.834 27.241 166.61 26.7018 166.61 26.1396C166.61 25.5773 166.834 25.0381 167.231 24.6405C167.629 24.2429 168.168 24.0196 168.73 24.0196C169.01 24.0182 169.286 24.0721 169.545 24.1781C169.803 24.284 170.038 24.44 170.236 24.6369C170.434 24.8339 170.591 25.0681 170.698 25.326C170.805 25.5838 170.86 25.8603 170.86 26.1396Z" fill="#A4AFFF"/>
<path d="M217.87 156.93C217.87 157.351 217.745 157.763 217.511 158.113C217.277 158.463 216.945 158.736 216.555 158.898C216.166 159.059 215.738 159.101 215.325 159.019C214.912 158.937 214.532 158.734 214.234 158.436C213.936 158.138 213.733 157.759 213.651 157.345C213.569 156.932 213.611 156.504 213.772 156.115C213.934 155.726 214.207 155.393 214.557 155.159C214.907 154.925 215.319 154.8 215.74 154.8C216.02 154.799 216.298 154.853 216.557 154.959C216.816 155.066 217.051 155.223 217.249 155.421C217.447 155.619 217.604 155.854 217.711 156.113C217.817 156.372 217.872 156.65 217.87 156.93Z" fill="#A4AFFF"/>
<path d="M139.949 312.34C139.949 312.761 139.825 313.173 139.59 313.523C139.356 313.874 139.024 314.147 138.635 314.308C138.245 314.469 137.817 314.511 137.404 314.429C136.991 314.347 136.611 314.144 136.313 313.846C136.015 313.548 135.813 313.169 135.73 312.755C135.648 312.342 135.69 311.914 135.852 311.525C136.013 311.136 136.286 310.803 136.636 310.569C136.986 310.335 137.398 310.21 137.819 310.21C138.384 310.21 138.926 310.434 139.326 310.834C139.725 311.233 139.949 311.775 139.949 312.34Z" fill="#A4AFFF"/>
<path d="M561.56 314.34C563.432 314.34 564.95 312.822 564.95 310.95C564.95 309.077 563.432 307.56 561.56 307.56C559.688 307.56 558.17 309.077 558.17 310.95C558.17 312.822 559.688 314.34 561.56 314.34Z" fill="#A4AFFF"/>
<path d="M633.56 314.34C635.432 314.34 636.95 312.822 636.95 310.95C636.95 309.077 635.432 307.56 633.56 307.56C631.688 307.56 630.17 309.077 630.17 310.95C630.17 312.822 631.688 314.34 633.56 314.34Z" fill="#A4AFFF"/>
<path d="M229.23 20.279C231.102 20.279 232.62 18.7613 232.62 16.889C232.62 15.0168 231.102 13.499 229.23 13.499C227.358 13.499 225.84 15.0168 225.84 16.889C225.84 18.7613 227.358 20.279 229.23 20.279Z" fill="#A4AFFF"/>
<path d="M462.86 170.96C462.86 171.856 462.594 172.731 462.096 173.476C461.599 174.221 460.891 174.802 460.063 175.145C459.236 175.488 458.325 175.577 457.446 175.403C456.567 175.228 455.76 174.796 455.127 174.163C454.493 173.529 454.062 172.722 453.887 171.843C453.712 170.965 453.802 170.054 454.145 169.226C454.488 168.398 455.068 167.691 455.813 167.193C456.558 166.695 457.434 166.43 458.33 166.43C459.531 166.43 460.683 166.907 461.533 167.756C462.382 168.606 462.86 169.758 462.86 170.96Z" fill="#A4AFFF"/>
<path d="M128.69 114.929C128.69 115.825 128.424 116.7 127.927 117.445C127.43 118.19 126.723 118.77 125.896 119.114C125.069 119.457 124.158 119.547 123.28 119.373C122.401 119.199 121.594 118.769 120.96 118.136C120.326 117.504 119.894 116.697 119.718 115.819C119.542 114.941 119.631 114.031 119.972 113.203C120.313 112.375 120.892 111.667 121.636 111.168C122.38 110.669 123.254 110.401 124.15 110.399C124.746 110.398 125.336 110.514 125.887 110.741C126.437 110.968 126.938 111.302 127.36 111.723C127.781 112.143 128.116 112.643 128.344 113.194C128.572 113.744 128.69 114.334 128.69 114.929Z" fill="#A4AFFF"/>
<path d="M115.95 40.2695H110.24C109.876 40.2695 109.58 40.565 109.58 40.9295V46.6395C109.58 47.004 109.876 47.2995 110.24 47.2995H115.95C116.315 47.2995 116.61 47.004 116.61 46.6395V40.9295C116.61 40.565 116.315 40.2695 115.95 40.2695Z" fill="white"/>
<path d="M125.35 40.2695H119.64C119.276 40.2695 118.98 40.565 118.98 40.9295V46.6395C118.98 47.004 119.276 47.2995 119.64 47.2995H125.35C125.715 47.2995 126.01 47.004 126.01 46.6395V40.9295C126.01 40.565 125.715 40.2695 125.35 40.2695Z" fill="white"/>
<path d="M134.75 40.2695H129.04C128.675 40.2695 128.38 40.565 128.38 40.9295V46.6395C128.38 47.004 128.675 47.2995 129.04 47.2995H134.75C135.114 47.2995 135.41 47.004 135.41 46.6395V40.9295C135.41 40.565 135.114 40.2695 134.75 40.2695Z" fill="white"/>
<path d="M594.53 287H588.82C588.456 287 588.16 287.295 588.16 287.66V293.37C588.16 293.735 588.456 294.03 588.82 294.03H594.53C594.895 294.03 595.19 293.735 595.19 293.37V287.66C595.19 287.295 594.895 287 594.53 287Z" fill="#DEE3FC"/>
<path d="M603.931 287H598.221C597.856 287 597.561 287.295 597.561 287.66V293.37C597.561 293.735 597.856 294.03 598.221 294.03H603.931C604.295 294.03 604.591 293.735 604.591 293.37V287.66C604.591 287.295 604.295 287 603.931 287Z" fill="#DEE3FC"/>
<path d="M613.33 287H607.62C607.255 287 606.96 287.295 606.96 287.66V293.37C606.96 293.735 607.255 294.03 607.62 294.03H613.33C613.694 294.03 613.99 293.735 613.99 293.37V287.66C613.99 287.295 613.694 287 613.33 287Z" fill="#DEE3FC"/>
<path d="M160.059 283.149H154.349C153.985 283.149 153.689 283.445 153.689 283.809V289.519C153.689 289.884 153.985 290.179 154.349 290.179H160.059C160.424 290.179 160.719 289.884 160.719 289.519V283.809C160.719 283.445 160.424 283.149 160.059 283.149Z" fill="#DEE3FC"/>
<path d="M169.46 283.149H163.75C163.385 283.149 163.09 283.445 163.09 283.809V289.519C163.09 289.884 163.385 290.179 163.75 290.179H169.46C169.824 290.179 170.12 289.884 170.12 289.519V283.809C170.12 283.445 169.824 283.149 169.46 283.149Z" fill="#DEE3FC"/>
<path d="M178.86 283.149H173.15C172.786 283.149 172.49 283.445 172.49 283.809V289.519C172.49 289.884 172.786 290.179 173.15 290.179H178.86C179.225 290.179 179.52 289.884 179.52 289.519V283.809C179.52 283.445 179.225 283.149 178.86 283.149Z" fill="#DEE3FC"/>
<path d="M414.759 6.69922H279.459C267.668 6.69922 258.109 16.2579 258.109 28.0492V329.209C258.109 341 267.668 350.559 279.459 350.559H414.759C426.551 350.559 436.109 341 436.109 329.209V28.0492C436.109 16.2579 426.551 6.69922 414.759 6.69922Z" fill="#3945BA"/>
<path d="M414.069 9.71973H280.139C269.812 9.71973 261.439 18.092 261.439 28.4197V326.98C261.439 337.307 269.812 345.68 280.139 345.68H414.069C424.397 345.68 432.769 337.307 432.769 326.98V28.4197C432.769 18.092 424.397 9.71973 414.069 9.71973Z" fill="white"/>
<path d="M425.279 27.8297V326.05C425.279 327.713 424.952 329.36 424.315 330.897C423.678 332.433 422.745 333.829 421.568 335.005C420.391 336.181 418.994 337.113 417.457 337.749C415.92 338.384 414.273 338.711 412.609 338.71H281.609C279.946 338.711 278.299 338.384 276.762 337.749C275.224 337.113 273.828 336.181 272.651 335.005C271.474 333.829 270.541 332.433 269.904 330.897C269.267 329.36 268.939 327.713 268.939 326.05V27.8297C268.936 26.1638 269.26 24.5135 269.895 22.9734C270.531 21.4333 271.463 20.0336 272.64 18.8547C273.817 17.6758 275.216 16.7408 276.755 16.1033C278.294 15.4658 279.944 15.1383 281.609 15.1397H303.449C304.045 15.1383 304.629 15.3033 305.137 15.616C305.644 15.9287 306.053 16.3767 306.319 16.9097L308.639 21.5397C309.157 22.5844 309.957 23.4632 310.948 24.0765C311.94 24.6899 313.084 25.0131 314.249 25.0097H379.969C381.135 25.0131 382.279 24.6899 383.27 24.0765C384.262 23.4632 385.062 22.5844 385.58 21.5397L387.899 16.9097C388.166 16.3767 388.575 15.9287 389.082 15.616C389.589 15.3033 390.174 15.1383 390.769 15.1397H412.609C414.275 15.1383 415.925 15.4658 417.464 16.1033C419.003 16.7408 420.401 17.6758 421.579 18.8547C422.756 20.0336 423.688 21.4333 424.323 22.9734C424.958 24.5135 425.283 26.1638 425.279 27.8297Z" fill="#DEE3FC"/>
<path d="M374.69 19.6299H321.76C321.169 19.6299 320.602 19.395 320.183 18.9768C319.765 18.5586 319.53 17.9914 319.53 17.3999C319.53 16.8085 319.765 16.2413 320.183 15.8231C320.602 15.4049 321.169 15.1699 321.76 15.1699H374.69C375.282 15.1699 375.849 15.4049 376.267 15.8231C376.685 16.2413 376.92 16.8085 376.92 17.3999C376.92 17.9914 376.685 18.5586 376.267 18.9768C375.849 19.395 375.282 19.6299 374.69 19.6299Z" fill="#DEE3FC"/>
<path d="M404.481 270.01H286.691C282.062 270.01 278.311 273.762 278.311 278.39V319.98C278.311 324.608 282.062 328.36 286.691 328.36H404.481C409.109 328.36 412.861 324.608 412.861 319.98V278.39C412.861 273.762 409.109 270.01 404.481 270.01Z" stroke="#698BD1" stroke-linecap="round" stroke-linejoin="round" stroke-dasharray="2.84 2.84"/>
<path d="M398.51 144.199H340.07C336.734 144.199 334.03 146.903 334.03 150.239V179.129C334.03 182.465 336.734 185.169 340.07 185.169H398.51C401.846 185.169 404.55 182.465 404.55 179.129V150.239C404.55 146.903 401.846 144.199 398.51 144.199Z" stroke="#698BD1" stroke-linecap="round" stroke-linejoin="round" stroke-dasharray="2.84 2.84"/>
<path d="M411.08 195H290.4C286.424 195 283.2 198.224 283.2 202.2V253.1C283.2 257.076 286.424 260.3 290.4 260.3H411.08C415.057 260.3 418.28 257.076 418.28 253.1V202.2C418.28 198.224 415.057 195 411.08 195Z" fill="#4B5A9B"/>
<path d="M412.86 196.91V247.84C412.86 248.783 412.674 249.718 412.313 250.59C411.952 251.461 411.422 252.253 410.754 252.92C410.086 253.587 409.294 254.116 408.421 254.476C407.549 254.836 406.614 255.021 405.671 255.02H285.5C284.557 255.021 283.622 254.836 282.75 254.476C281.877 254.116 281.085 253.587 280.417 252.92C279.749 252.253 279.219 251.461 278.858 250.59C278.497 249.718 278.311 248.783 278.311 247.84V196.91C278.311 195.003 279.068 193.174 280.416 191.826C281.765 190.477 283.594 189.72 285.5 189.72H405.671C407.577 189.72 409.406 190.477 410.755 191.826C412.103 193.174 412.86 195.003 412.86 196.91Z" fill="#7F95F4"/>
<path d="M324.78 204.58H289.38C286.695 204.58 284.52 206.756 284.52 209.44V244.84C284.52 247.524 286.695 249.7 289.38 249.7H324.78C327.464 249.7 329.64 247.524 329.64 244.84V209.44C329.64 206.756 327.464 204.58 324.78 204.58Z" fill="white"/>
<path d="M366.75 210.299H335.57C335.162 210.299 334.77 210.137 334.481 209.848C334.193 209.56 334.03 209.168 334.03 208.759C334.033 208.353 334.196 207.964 334.485 207.677C334.773 207.39 335.164 207.229 335.57 207.229H366.75C367.156 207.229 367.545 207.391 367.832 207.678C368.119 207.965 368.28 208.354 368.28 208.759C368.282 208.961 368.243 209.161 368.167 209.348C368.09 209.535 367.978 209.705 367.836 209.848C367.693 209.991 367.524 210.105 367.338 210.182C367.152 210.26 366.952 210.3 366.75 210.299Z" fill="#B2C1F9"/>
<path d="M352.54 216.429H335.54C335.132 216.429 334.74 216.267 334.451 215.978C334.162 215.69 334 215.298 334 214.889C334.003 214.483 334.166 214.094 334.455 213.807C334.743 213.52 335.133 213.359 335.54 213.359H352.54C352.947 213.359 353.337 213.52 353.625 213.807C353.914 214.094 354.077 214.483 354.08 214.889C354.08 215.298 353.918 215.69 353.629 215.978C353.34 216.267 352.948 216.429 352.54 216.429Z" fill="#B2C1F9"/>
<path d="M404.71 216.429H358.79C358.382 216.429 357.99 216.267 357.701 215.978C357.412 215.69 357.25 215.298 357.25 214.889C357.253 214.483 357.416 214.094 357.705 213.807C357.993 213.52 358.383 213.359 358.79 213.359H404.71C405.116 213.359 405.505 213.521 405.792 213.808C406.079 214.094 406.24 214.484 406.24 214.889C406.241 215.091 406.203 215.291 406.126 215.478C406.05 215.665 405.938 215.835 405.795 215.978C405.653 216.121 405.484 216.234 405.298 216.312C405.112 216.389 404.912 216.429 404.71 216.429Z" fill="#B2C1F9"/>
<path d="M361.83 222.559H335.57C335.162 222.559 334.77 222.397 334.481 222.108C334.193 221.819 334.03 221.428 334.03 221.019C334.03 220.818 334.07 220.618 334.148 220.431C334.225 220.245 334.339 220.076 334.482 219.934C334.625 219.792 334.795 219.679 334.982 219.603C335.168 219.527 335.369 219.488 335.57 219.489H361.83C362.236 219.489 362.625 219.65 362.912 219.937C363.199 220.224 363.36 220.614 363.36 221.019C363.36 221.426 363.199 221.816 362.913 222.105C362.626 222.393 362.237 222.557 361.83 222.559Z" fill="#B2C1F9"/>
<path d="M384.149 222.559H367.649C367.241 222.559 366.849 222.397 366.56 222.108C366.272 221.819 366.109 221.428 366.109 221.019C366.109 220.818 366.149 220.618 366.227 220.431C366.304 220.245 366.418 220.076 366.561 219.934C366.704 219.792 366.874 219.679 367.061 219.603C367.248 219.527 367.448 219.488 367.649 219.489H384.149C384.351 219.488 384.551 219.527 384.738 219.603C384.925 219.679 385.095 219.792 385.238 219.934C385.381 220.076 385.495 220.245 385.572 220.431C385.65 220.618 385.689 220.818 385.689 221.019C385.689 221.428 385.527 221.819 385.238 222.108C384.95 222.397 384.558 222.559 384.149 222.559Z" fill="#B2C1F9"/>
<path d="M404.71 222.559H389.51C389.101 222.559 388.71 222.397 388.421 222.108C388.132 221.819 387.97 221.428 387.97 221.019C387.97 220.818 388.01 220.618 388.087 220.431C388.165 220.245 388.278 220.076 388.421 219.934C388.565 219.792 388.734 219.679 388.921 219.603C389.108 219.527 389.308 219.488 389.51 219.489H404.71C404.911 219.488 405.111 219.527 405.297 219.603C405.483 219.679 405.652 219.792 405.795 219.934C405.937 220.077 406.05 220.246 406.126 220.432C406.202 220.618 406.241 220.818 406.24 221.019C406.241 221.221 406.203 221.421 406.126 221.608C406.05 221.795 405.937 221.965 405.795 222.108C405.653 222.251 405.484 222.364 405.298 222.442C405.111 222.519 404.912 222.559 404.71 222.559Z" fill="#B2C1F9"/>
<path d="M404.71 228.689H335.57C335.162 228.689 334.77 228.527 334.481 228.238C334.193 227.949 334.03 227.558 334.03 227.149C334.03 226.947 334.07 226.748 334.148 226.561C334.225 226.375 334.339 226.206 334.482 226.064C334.625 225.922 334.795 225.809 334.982 225.733C335.168 225.656 335.369 225.618 335.57 225.619H404.71C404.912 225.618 405.111 225.657 405.297 225.733C405.484 225.809 405.653 225.922 405.795 226.064C405.937 226.207 406.05 226.376 406.126 226.562C406.203 226.748 406.242 226.948 406.24 227.149C406.242 227.351 406.203 227.551 406.127 227.738C406.05 227.925 405.938 228.094 405.796 228.238C405.653 228.381 405.484 228.494 405.298 228.572C405.112 228.649 404.912 228.689 404.71 228.689Z" fill="#B2C1F9"/>
<path d="M373.62 234.82H335.62C335.212 234.82 334.82 234.658 334.531 234.369C334.242 234.08 334.08 233.688 334.08 233.28C334.08 233.078 334.12 232.878 334.197 232.692C334.275 232.506 334.389 232.337 334.532 232.195C334.675 232.052 334.845 231.94 335.031 231.864C335.218 231.787 335.418 231.749 335.62 231.75H373.62C373.822 231.749 374.022 231.787 374.209 231.864C374.395 231.94 374.565 232.052 374.708 232.195C374.852 232.337 374.965 232.506 375.043 232.692C375.12 232.878 375.16 233.078 375.16 233.28C375.16 233.688 374.998 234.08 374.709 234.369C374.42 234.658 374.028 234.82 373.62 234.82Z" fill="#B2C1F9"/>
<path d="M404.71 234.82H379.71C379.302 234.82 378.91 234.658 378.621 234.369C378.332 234.08 378.17 233.688 378.17 233.28C378.17 233.078 378.21 232.878 378.287 232.692C378.365 232.506 378.478 232.337 378.622 232.195C378.765 232.052 378.935 231.94 379.121 231.864C379.308 231.787 379.508 231.749 379.71 231.75H404.71C404.911 231.749 405.111 231.787 405.297 231.864C405.483 231.94 405.652 232.053 405.795 232.195C405.937 232.338 406.05 232.507 406.126 232.693C406.203 232.879 406.241 233.079 406.24 233.28C406.241 233.482 406.203 233.682 406.126 233.869C406.05 234.055 405.937 234.225 405.795 234.368C405.653 234.512 405.484 234.625 405.298 234.703C405.111 234.78 404.912 234.82 404.71 234.82Z" fill="#B2C1F9"/>
<path d="M357.93 240.939H335.57C335.369 240.94 335.168 240.902 334.982 240.826C334.795 240.749 334.625 240.637 334.482 240.495C334.339 240.352 334.225 240.183 334.148 239.997C334.07 239.811 334.03 239.611 334.03 239.409C334.03 239.001 334.193 238.609 334.481 238.32C334.77 238.031 335.162 237.869 335.57 237.869H357.93C358.337 237.872 358.726 238.035 359.013 238.324C359.299 238.612 359.46 239.002 359.46 239.409C359.46 239.815 359.299 240.204 359.012 240.491C358.725 240.778 358.336 240.939 357.93 240.939Z" fill="#B2C1F9"/>
<path d="M386.329 240.939H363.979C363.778 240.94 363.578 240.902 363.391 240.826C363.204 240.749 363.034 240.637 362.891 240.495C362.748 240.352 362.634 240.183 362.557 239.997C362.479 239.811 362.439 239.611 362.439 239.409C362.439 239.001 362.602 238.609 362.891 238.32C363.179 238.031 363.571 237.869 363.979 237.869H386.329C386.738 237.869 387.13 238.031 387.418 238.32C387.707 238.609 387.869 239.001 387.869 239.409C387.869 239.611 387.829 239.811 387.752 239.997C387.674 240.183 387.561 240.352 387.418 240.495C387.275 240.637 387.105 240.749 386.918 240.826C386.731 240.902 386.531 240.94 386.329 240.939Z" fill="#B2C1F9"/>
<path d="M404.71 240.939H391.71C391.508 240.94 391.308 240.902 391.121 240.826C390.935 240.749 390.765 240.637 390.622 240.495C390.478 240.352 390.365 240.183 390.287 239.997C390.21 239.811 390.17 239.611 390.17 239.409C390.17 239.001 390.332 238.609 390.621 238.32C390.91 238.031 391.302 237.869 391.71 237.869H404.71C404.912 237.869 405.111 237.909 405.298 237.987C405.484 238.064 405.653 238.178 405.795 238.321C405.937 238.464 406.05 238.634 406.126 238.821C406.203 239.007 406.241 239.207 406.24 239.409C406.241 239.61 406.203 239.81 406.126 239.996C406.05 240.182 405.937 240.352 405.795 240.494C405.652 240.636 405.483 240.749 405.297 240.825C405.111 240.902 404.911 240.94 404.71 240.939Z" fill="#B2C1F9"/>
<path d="M366.75 247.07H335.57C335.369 247.071 335.168 247.033 334.982 246.956C334.795 246.88 334.625 246.768 334.482 246.625C334.339 246.483 334.225 246.314 334.148 246.128C334.07 245.942 334.03 245.742 334.03 245.54C334.03 245.132 334.193 244.74 334.481 244.451C334.77 244.162 335.162 244 335.57 244H366.75C366.952 244 367.152 244.04 367.338 244.117C367.524 244.195 367.693 244.309 367.836 244.452C367.978 244.595 368.09 244.765 368.167 244.951C368.243 245.138 368.282 245.338 368.28 245.54C368.282 245.741 368.243 245.941 368.167 246.127C368.09 246.313 367.977 246.482 367.835 246.625C367.693 246.767 367.524 246.88 367.337 246.956C367.151 247.033 366.952 247.071 366.75 247.07Z" fill="#B2C1F9"/>
<path d="M404.71 210.299H373.53C373.122 210.299 372.73 210.137 372.441 209.848C372.152 209.56 371.99 209.168 371.99 208.759C371.993 208.353 372.156 207.964 372.445 207.677C372.733 207.39 373.124 207.229 373.53 207.229H404.71C405.116 207.229 405.505 207.391 405.792 207.678C406.079 207.965 406.24 208.354 406.24 208.759C406.242 208.961 406.203 209.161 406.127 209.348C406.05 209.535 405.938 209.705 405.796 209.848C405.653 209.991 405.484 210.105 405.298 210.182C405.112 210.26 404.912 210.3 404.71 210.299Z" fill="#B2C1F9"/>
<path d="M412.86 196.91V199.05H278.311V196.91C278.311 195.003 279.068 193.174 280.416 191.826C281.765 190.477 283.594 189.72 285.5 189.72H405.671C407.577 189.72 409.406 190.477 410.755 191.826C412.103 193.174 412.86 195.003 412.86 196.91Z" fill="#3052CE"/>
<path d="M387.5 194.55C387.518 194.779 387.488 195.01 387.412 195.227C387.337 195.445 387.217 195.644 387.061 195.813C386.904 195.982 386.715 196.117 386.504 196.209C386.293 196.301 386.065 196.349 385.835 196.349C385.605 196.349 385.377 196.301 385.166 196.209C384.955 196.117 384.766 195.982 384.609 195.813C384.453 195.644 384.333 195.445 384.258 195.227C384.182 195.01 384.152 194.779 384.17 194.55C384.203 194.13 384.392 193.739 384.701 193.453C385.009 193.167 385.415 193.009 385.835 193.009C386.256 193.009 386.661 193.167 386.969 193.453C387.278 193.739 387.467 194.13 387.5 194.55Z" fill="#DEE3FC"/>
<path d="M396.029 194.55C396.031 194.88 395.935 195.204 395.753 195.48C395.571 195.756 395.31 195.972 395.006 196.1C394.701 196.228 394.364 196.262 394.04 196.199C393.715 196.135 393.417 195.977 393.182 195.744C392.948 195.511 392.788 195.213 392.722 194.889C392.657 194.565 392.689 194.229 392.816 193.923C392.942 193.617 393.156 193.356 393.431 193.172C393.705 192.988 394.029 192.89 394.359 192.89C394.801 192.89 395.224 193.064 395.537 193.375C395.85 193.686 396.027 194.108 396.029 194.55Z" fill="#DEE3FC"/>
<path d="M404.55 194.55C404.552 194.881 404.455 195.205 404.273 195.481C404.09 195.757 403.829 195.973 403.524 196.101C403.218 196.228 402.881 196.262 402.557 196.198C402.232 196.134 401.933 195.975 401.699 195.741C401.465 195.506 401.306 195.208 401.242 194.883C401.177 194.558 401.211 194.222 401.339 193.916C401.467 193.61 401.682 193.35 401.958 193.167C402.235 192.984 402.559 192.888 402.89 192.89C403.33 192.89 403.752 193.065 404.064 193.376C404.375 193.687 404.55 194.109 404.55 194.55Z" fill="#DEE3FC"/>
<path d="M319.96 144.239H293.33C289.381 144.239 286.18 147.44 286.18 151.389V178.019C286.18 181.968 289.381 185.169 293.33 185.169H319.96C323.909 185.169 327.11 181.968 327.11 178.019V151.389C327.11 147.44 323.909 144.239 319.96 144.239Z" stroke="#495AD6" stroke-width="0.9" stroke-miterlimit="10"/>
<path d="M300.26 158.789L294.37 164.679L300.31 170.629" stroke="#495AD6" stroke-width="1.67" stroke-linecap="round" stroke-linejoin="round"/>
<path d="M313.03 158.789L318.93 164.679L312.99 170.629" stroke="#495AD6" stroke-width="1.67" stroke-linecap="round" stroke-linejoin="round"/>
<path d="M309.411 158.789L303.891 170.629" stroke="#495AD6" stroke-width="1.67" stroke-linecap="round" stroke-linejoin="round"/>
<path d="M404.681 36.1592H286.491C281.973 36.1592 278.311 39.8215 278.311 44.3392V127.609C278.311 132.127 281.973 135.789 286.491 135.789H404.681C409.198 135.789 412.861 132.127 412.861 127.609V44.3392C412.861 39.8215 409.198 36.1592 404.681 36.1592Z" fill="#B2C1F9"/>
<path d="M385.61 81.9697C396.38 81.9697 405.11 73.2393 405.11 62.4697C405.11 51.7002 396.38 42.9697 385.61 42.9697C374.841 42.9697 366.11 51.7002 366.11 62.4697C366.11 73.2393 374.841 81.9697 385.61 81.9697Z" fill="#F0F4FF"/>
<path d="M357.401 135.79H286.49C284.321 135.79 282.24 134.928 280.706 133.394C279.172 131.86 278.311 129.779 278.311 127.61V114.5L309.311 60.7497C309.68 60.1078 310.211 59.5746 310.852 59.2038C311.493 58.8329 312.22 58.6377 312.961 58.6377C313.701 58.6377 314.428 58.8329 315.069 59.2038C315.71 59.5746 316.242 60.1078 316.61 60.7497L340.041 101.33L357.441 131.47C357.832 132.124 358.036 132.873 358.029 133.635C358.022 134.398 357.804 135.143 357.401 135.79Z" fill="white"/>
<path d="M387.98 135.789H320.15L340.05 101.329L350.77 82.7592C351.103 82.1817 351.581 81.7021 352.158 81.3685C352.735 81.035 353.389 80.8594 354.055 80.8594C354.722 80.8594 355.376 81.035 355.953 81.3685C356.529 81.7021 357.008 82.1817 357.34 82.7592L387.98 135.789Z" fill="#F0F4FF"/>
<path d="M522.48 290.52H470.2V369.08H522.48V290.52Z" fill="#3B47BC"/>
<path d="M522.47 369.08H542.49V290.52H522.47V369.08Z" fill="#495AD6"/>
<path d="M540.04 293.529H525.34V296.039H540.04V293.529Z" fill="#B2C1F9"/>
<path d="M540.04 298.92H525.34V301.43H540.04V298.92Z" fill="#B2C1F9"/>
<path d="M540.04 304.31H525.34V306.82H540.04V304.31Z" fill="#B2C1F9"/>
<path d="M540.04 309.689H525.34V312.199H540.04V309.689Z" fill="#B2C1F9"/>
<path d="M540.04 315.08H525.34V317.59H540.04V315.08Z" fill="#B2C1F9"/>
<path d="M540.04 320.46H525.34V322.97H540.04V320.46Z" fill="#B2C1F9"/>
<path d="M540.04 325.85H525.34V328.36H540.04V325.85Z" fill="#B2C1F9"/>
<path d="M540.04 331.239H525.34V333.749H540.04V331.239Z" fill="#B2C1F9"/>
<path d="M540.04 336.619H525.34V339.129H540.04V336.619Z" fill="#B2C1F9"/>
<path d="M540.04 342.01H525.34V344.52H540.04V342.01Z" fill="#B2C1F9"/>
<path d="M540.04 347.399H525.34V349.909H540.04V347.399Z" fill="#B2C1F9"/>
<path d="M540.04 352.779H525.34V355.289H540.04V352.779Z" fill="#B2C1F9"/>
<path d="M540.04 358.17H525.34V360.68H540.04V358.17Z" fill="#B2C1F9"/>
<path d="M540.04 363.55H525.34V366.06H540.04V363.55Z" fill="#B2C1F9"/>
<path d="M461.71 369.079H488.28C488.28 369.079 489.76 364.349 486.55 358.489C486.55 358.489 484.41 360.209 478 359.049C476.6 360.246 475.086 361.301 473.48 362.199C471.63 363.139 460.99 365.189 461.71 369.079Z" fill="#281616"/>
<path d="M463.56 294.14C465.28 304.38 473.2 339.02 476.56 359.48C482.78 360.01 485.77 359.3 487.35 358.93C487.04 351.8 486.43 334.73 486.5 327.24C486.62 314.59 487.21 297.91 481.64 288.75L462.92 290.23C463.03 291.23 463.14 292.02 463.23 292.6C463.32 293.18 463.46 293.69 463.56 294.14Z" fill="#002C54"/>
<path d="M413.65 369.079H440.22C440.22 369.079 441.71 364.349 438.49 358.489C438.49 358.489 436.35 360.209 429.95 359.049C428.549 360.243 427.035 361.298 425.43 362.199C423.57 363.139 412.94 365.189 413.65 369.079Z" fill="#281616"/>
<path d="M429.15 358.91C432.565 359.834 436.116 360.152 439.64 359.85C441.05 351.63 443.28 333.53 445.29 325.04C448.41 311.86 451.46 293.72 449.29 287.25L430.87 282.63C430.89 283.21 429.39 338.71 429.15 358.91Z" fill="#052635"/>
<path d="M502.49 263.749C502.12 260.109 501.69 257.449 501.69 257.449L481.11 262.449L463.63 266.449C457.15 267.889 449.32 269.629 442.42 271.189C434.67 272.949 429.53 278.829 431.23 286.589L433.17 295.989C444 295.849 494.93 290.989 499.29 288.759C504.21 286.299 505.69 277.509 502.49 263.749Z" fill="#052635"/>
<path d="M533.211 263.749C532.848 261.146 532.128 258.605 531.071 256.199L511.831 262.479L494.35 266.479C487.87 267.919 480.04 269.659 473.14 271.219C465.39 272.979 460.251 278.859 461.951 286.619L463.89 296.019C474.72 295.879 520 294.299 530.01 288.789C534.84 286.139 536.421 277.509 533.211 263.749Z" fill="#002C54"/>
<path d="M475.61 234.25C475.61 234.25 484.75 230.12 487.26 234.25C488.64 236.52 487.69 240.73 484.57 242.5C481.45 244.27 463.84 251.72 447.21 255.87C446.691 254.252 446.07 252.668 445.35 251.13C450.566 248.85 455.549 246.07 460.23 242.83C465.078 239.494 470.227 236.618 475.61 234.24V234.25Z" fill="#E5918F"/>
<path d="M477.891 205.71L470.061 237C470.061 237 470.87 244.91 478.86 241C486.85 237.09 492.151 212.21 492.151 212.21L477.891 205.71Z" fill="#E5918F"/>
<path d="M491.15 223.21C490.15 222.97 489.25 222.72 488.36 222.45C487.47 222.18 486.58 221.9 485.75 221.61C481.678 220.306 477.817 218.417 474.29 216C476.63 205.82 479.45 199 481.95 194.49C482.029 194.381 482.096 194.263 482.15 194.14L482.35 193.81C483.765 191.571 485.619 189.642 487.8 188.14L488.46 187.68L489.38 204.02L489.54 205.7L491.15 223.21Z" fill="white"/>
<path d="M491.15 223.209C490.15 222.969 489.25 222.719 488.36 222.449C487.47 222.179 486.58 221.899 485.75 221.609C487.32 210.609 488.75 203.689 488.75 203.689L489.55 205.689L491.15 223.209Z" fill="#C7E5F2"/>
<path d="M537.39 194.96C537.2 199.79 536.39 207.56 535.62 215.36C535.39 217.83 535.17 220.36 534.98 222.72C534.84 224.21 532.59 232.18 532.5 233.6C532.1 240.42 528.76 245.53 531.92 255.91C532.492 257.45 532.829 259.068 532.92 260.71C532.92 261.42 531.99 262.17 531.63 262.37C530.3 263.13 527.69 263.67 524.53 264.06C517.981 264.713 511.401 265.013 504.82 264.96C498.02 264.96 487.82 263.88 486.5 262.17C485.18 260.46 486.41 258.31 486.97 255.17C489.48 240.93 488.59 233.51 488.43 223.24C488.43 222.98 488.43 222.73 488.43 222.46C488.17 206.61 487.13 193.05 487.86 188.16L488.52 187.7C489.6 186.96 490.66 186.31 491.68 185.7L492 185.52C492.31 185.34 492.63 185.17 492.93 185.01C493.045 184.94 493.165 184.88 493.29 184.83C495.768 183.696 498.305 182.694 500.89 181.83C501.13 181.75 501.36 181.67 501.55 181.62C503.36 181.51 505.34 181.49 507.46 181.54C509.31 181.6 512.14 181.84 515.22 182.24C518.691 182.662 522.131 183.306 525.52 184.17C528.633 185.397 531.412 187.343 533.63 189.85C535.079 191.399 536.342 193.114 537.39 194.96Z" fill="white"/>
<path d="M531.921 255.91C532.493 257.451 532.83 259.069 532.921 260.71C532.921 261.42 531.99 262.17 531.63 262.37C530.3 263.13 527.691 263.67 524.531 264.06C525.831 263.9 528.081 261.84 528.081 259.97C528.081 258.66 526.39 249.84 526.86 244.15C527.33 238.46 528.25 229.41 526.49 222.15C524.73 214.89 523.061 205.38 523.061 205.38L532.99 211.38C532.99 211.38 534.271 213.18 535.671 215.38C535.441 217.85 535.221 220.38 535.031 222.74C534.841 224.21 528.761 245.53 531.921 255.91Z" fill="#C7E5F2"/>
<path d="M488.24 153.069C488.24 153.069 489.1 163.459 492.54 164.159C495.98 164.859 495.14 160.439 495.14 160.439L494.66 155.509L488.24 153.069Z" fill="#002C54"/>
<path d="M504.15 190.709C497.41 189.909 499.92 183.359 500.85 181.849C501.09 181.769 502.25 181.419 502.34 181.359C502.577 181.148 502.756 180.879 502.86 180.579C503.52 178.849 503.22 175.409 503.19 175.189V174.539C503.3 174.129 503.42 173.739 503.51 173.369L507.05 170.579L514.55 164.689C514.55 164.689 512.55 174.549 514.16 180.769C514.219 181.072 514.338 181.36 514.51 181.616C514.681 181.871 514.903 182.09 515.16 182.259C515.385 182.409 515.642 182.501 515.91 182.529C517.75 183.399 515.15 192.029 504.15 190.709Z" fill="#E5918F"/>
<path d="M510.06 170.96C509.897 173.081 509.131 175.11 507.854 176.811C506.577 178.512 504.841 179.812 502.85 180.56C503.52 178.85 503.21 175.4 503.19 175.18L506.19 172.83L510.06 170.96Z" fill="#CC6362"/>
<path d="M489.89 154.55C489.89 154.55 491.44 176.1 497.26 177.93C499.751 177.985 502.218 177.425 504.44 176.298C506.663 175.171 508.572 173.512 510 171.47C511.53 169.41 513.47 168.94 514.1 166.47C515.1 162.47 516.58 154.96 514.73 150.47C512.15 144.04 490.15 138.96 489.89 154.55Z" fill="#E5918F"/>
<path d="M514.82 146.89C514.72 142.98 510.76 141.51 510.76 141.51C506.82 139.67 498.62 140.51 490.17 142.35C488.17 142.79 485.7 141.58 484.32 142.54C482.65 143.7 484.32 149 484.32 149C487.58 158.87 499.58 155.66 503.18 154.44C504.04 156.98 503.93 160.51 506.07 162.34C507.28 163.34 509.4 163.4 511.55 163.05C511.82 163.55 512.81 163.99 513.01 164.68C513.69 166.99 513.59 170.6 513.57 173.38L514.57 172.89C514.71 172.14 525.23 147.21 514.82 146.89Z" fill="#002C54"/>
<path d="M495.85 161.81C496.16 163.6 495.28 165.24 493.85 165.48C492.42 165.72 491.09 164.48 490.78 162.67C490.47 160.86 491.36 159.24 492.78 159C494.2 158.76 495.55 160.02 495.85 161.81Z" stroke="white" stroke-width="0.5" stroke-miterlimit="10"/>
<path d="M502.88 160.5C503.19 162.28 502.31 163.93 500.88 164.16C499.45 164.39 498.12 163.16 497.81 161.35C497.5 159.54 498.39 157.92 499.81 157.68C501.23 157.44 502.58 158.71 502.88 160.5Z" stroke="white" stroke-width="0.5" stroke-miterlimit="10"/>
<path d="M495.85 161.81C495.85 161.81 496.16 161.31 497.78 161.45" stroke="white" stroke-width="0.5" stroke-miterlimit="10"/>
<path d="M502.939 160.92L508.949 159.96" stroke="white" stroke-width="0.5" stroke-miterlimit="10"/>
<path d="M509.4 167.589C513.54 169.179 514.83 158.989 510.9 158.539C507.9 158.199 507.8 162.359 507.8 162.359C507.8 162.359 507.03 166.689 509.4 167.589Z" fill="#E5918F"/>
<g opacity="0.5">
<path opacity="0.5" d="M510.76 160.08C510.557 160.299 510.385 160.544 510.25 160.81C509.956 161.343 509.782 161.933 509.74 162.54C509.709 162.873 509.709 163.207 509.74 163.54C509.74 163.86 509.79 164.17 509.81 164.44C509.83 164.71 509.81 164.93 509.88 165.09C509.885 165.177 509.885 165.263 509.88 165.35C509.825 165.283 509.775 165.213 509.73 165.14C509.598 164.955 509.484 164.757 509.39 164.55C509.248 164.255 509.147 163.942 509.09 163.62C509.002 163.25 508.975 162.869 509.01 162.49C509.043 162.101 509.148 161.721 509.32 161.37C509.465 161.06 509.669 160.782 509.92 160.55C510.155 160.324 510.444 160.162 510.76 160.08Z" fill="#CC6362"/>
<path opacity="0.5" d="M511.41 162.01C511.273 162.03 511.139 162.064 511.01 162.11C510.733 162.214 510.481 162.374 510.27 162.58C510.006 162.859 509.822 163.205 509.74 163.58L509.06 163.34C509.13 163.198 509.21 163.061 509.3 162.93C509.496 162.647 509.757 162.414 510.06 162.25C510.343 162.09 510.656 161.991 510.979 161.96C511.124 161.96 511.269 161.977 511.41 162.01Z" fill="#CC6362"/>
</g>
<path d="M549.15 238.37C547.33 240.48 540.42 242.02 537.15 239.1C536.15 238.17 534.93 235.72 533.77 232.68C531.534 226.314 529.621 219.839 528.04 213.28L543.49 205.39C543.49 205.39 545.49 214.3 547.19 222.77C547.19 222.77 547.19 222.85 547.19 223C547.75 225.71 548.27 228.38 548.68 230.67V230.85C549.129 233.33 549.286 235.853 549.15 238.37Z" fill="#E5918F"/>
<path d="M522.2 202.469C523.69 208.679 528.38 220.469 528.38 220.469C532.215 220.91 536.1 220.44 539.72 219.099C542.427 218.055 544.886 216.458 546.94 214.409C546.94 214.409 543.83 205.669 541.04 199.409C538.53 193.779 537.04 191.669 535.94 190.549C534.149 188.717 532.08 187.178 529.81 185.989L522.2 202.469Z" fill="white"/>
<path d="M541.73 206.52L532.67 202.61L525.53 184.21C525.53 184.21 526.83 184.61 528.53 185.31L528.76 185.4H528.89C530.43 186.13 536.41 189.65 540.54 202.4C540.54 202.51 540.61 202.61 540.64 202.72C541.08 204.2 541.4 205.38 541.58 206C541.58 206 541.58 206.11 541.58 206.18L541.73 206.52Z" fill="white"/>
<path d="M549.15 238.37C549.01 239.51 548.7 240.32 548.15 240.61C548.06 240.66 546.79 241.42 546.71 241.48C543.634 243.362 540.433 245.033 537.13 246.48C526.199 251.048 515.041 255.054 503.7 258.48C503.136 256.881 502.468 255.322 501.7 253.81C506.818 251.318 511.68 248.334 516.22 244.9C523.42 239.4 533.78 232.72 533.78 232.72L536.4 229.64C536.4 229.64 545.7 221.08 547.2 222.81C547.2 222.81 547.2 222.89 547.2 223.04C547.43 223.93 548.2 227.22 548.69 230.71V230.89C549.132 233.357 549.287 235.867 549.15 238.37Z" fill="#E5918F"/>
<path d="M502.75 253.26C501.64 253.9 500.348 254.149 499.08 253.97C498.08 253.75 497.64 253.33 496.88 253.2C495.595 253.046 494.33 252.751 493.11 252.32C492.11 251.83 491.72 251.78 491.75 252.78C491.78 253.78 493.75 254.65 494.29 254.93C494.791 255.275 495.225 255.709 495.57 256.21C495.65 256.32 492.29 258.08 491.38 257.73C491.237 258.134 491.199 258.567 491.27 258.99C491.42 259.44 492.11 259.6 492.16 259.82C492.21 260.04 492.01 260.51 492.16 260.82C492.31 261.13 492.92 261.19 493.16 261.82C493.4 262.45 493.16 262.42 493.32 263.03C493.48 263.64 494.32 263.75 494.43 264.03C494.54 264.31 494.5 264.71 494.82 264.93C495.14 265.15 498.17 264.18 499.28 263.71C500.39 263.24 503.28 258.99 506.59 257.54L502.75 253.26Z" fill="#E5918F"/>
<path d="M518.15 272.199H494.66V269.899H518.15C518.302 269.898 518.452 269.927 518.592 269.984C518.732 270.042 518.859 270.126 518.966 270.233C519.073 270.34 519.158 270.468 519.215 270.608C519.273 270.748 519.302 270.898 519.3 271.049C519.3 271.2 519.27 271.35 519.213 271.49C519.155 271.629 519.07 271.756 518.963 271.863C518.857 271.969 518.73 272.054 518.59 272.112C518.451 272.17 518.301 272.199 518.15 272.199Z" fill="#375F84"/>
<path d="M505.48 272.199H446.65C446.306 272.202 445.972 272.09 445.698 271.882C445.425 271.674 445.229 271.381 445.14 271.049L433.14 227.699C433.078 227.475 433.069 227.241 433.113 227.013C433.157 226.785 433.253 226.571 433.393 226.386C433.534 226.201 433.714 226.051 433.922 225.948C434.129 225.844 434.358 225.79 434.59 225.789H491.49C492.132 225.798 492.755 226.012 493.266 226.401C493.777 226.79 494.15 227.332 494.33 227.949L506.33 271.149C506.365 271.276 506.37 271.41 506.343 271.54C506.316 271.669 506.258 271.79 506.175 271.893C506.092 271.996 505.986 272.077 505.865 272.13C505.744 272.183 505.612 272.207 505.48 272.199Z" fill="#375F84"/>
<path d="M503.35 272.199H444.52C444.176 272.202 443.842 272.09 443.568 271.882C443.295 271.674 443.099 271.381 443.01 271.049L431.01 227.699C430.948 227.475 430.939 227.239 430.984 227.011C431.028 226.782 431.125 226.567 431.266 226.382C431.408 226.197 431.59 226.047 431.799 225.945C432.007 225.842 432.237 225.788 432.47 225.789H489.36C490.002 225.798 490.625 226.012 491.136 226.401C491.647 226.79 492.02 227.332 492.2 227.949L504.2 271.149C504.235 271.276 504.24 271.41 504.213 271.54C504.186 271.669 504.128 271.79 504.045 271.893C503.962 271.996 503.856 272.077 503.735 272.13C503.614 272.183 503.482 272.207 503.35 272.199Z" fill="#467CDB"/>
<path d="M270.15 244.19L276.97 237.19C277.037 235.915 277.242 234.651 277.58 233.42C277.95 232.76 278.91 230.33 279.38 230.06C279.85 229.921 280.35 229.921 280.82 230.06C281.264 229.903 281.723 229.796 282.19 229.74C282.615 229.804 283.027 229.936 283.41 230.13C283.41 230.13 284.41 230.06 284.85 230.06C285.045 230.038 285.242 230.08 285.41 230.18C286.172 229.291 286.986 228.449 287.85 227.66C288.65 227.02 289.85 225.85 290.22 225.85C290.59 225.85 290.71 226.45 290.47 227.09C290.114 227.707 289.666 228.267 289.14 228.75L286.04 233.46C286.32 233.35 286.59 233.219 286.85 233.07C287.13 232.89 289.03 231.07 289.14 231.07C289.25 231.07 290.14 230.44 290.6 231C291.06 231.56 287.35 236.06 286.75 236.66C285.474 237.533 284.137 238.315 282.75 239C282.75 239 279.12 245.54 278.75 246C278.38 246.46 270.15 244.19 270.15 244.19Z" fill="#E49191"/>
<path d="M276.59 211.939C276.59 211.939 272.78 233.939 269.2 234.499C269.2 234.499 254.89 235.079 251.71 217.719C248.94 202.719 260.03 199.469 265.21 200.619C270.39 201.769 277.7 202.519 276.59 211.939Z" fill="#E49191"/>
<path d="M263.95 230.97C263.95 230.97 261.95 233.68 261.24 240.22C257.312 240.631 253.347 239.938 249.79 238.22C251.669 231.96 252.784 225.497 253.11 218.97" fill="#E49191"/>
<path d="M259.91 196.93C252.09 198.65 252.72 203.52 252.72 203.52C249.06 204.43 248.27 205.94 248.3 212.69C248.33 219.44 250.78 227.56 252.13 228.22C253.48 228.88 261.13 228.91 261.75 228.68C262.37 228.45 265.07 222.25 264.44 221.16C263.81 220.07 264.44 215.78 266.25 215.62C268.06 215.46 267.69 218.22 267.69 218.22L269.15 217.9L270.28 215.13C280.61 215.74 283.28 203.97 283.28 203.97C280.8 202.35 267.73 195.2 259.91 196.93Z" fill="#002C54"/>
<path d="M173.15 346.209L181.05 347.349L178.43 356.579L169.87 354.419C169.392 353.782 169.057 353.049 168.887 352.271C168.718 351.492 168.717 350.687 168.886 349.908C169.055 349.13 169.389 348.396 169.866 347.758C170.343 347.12 170.951 346.592 171.65 346.209C172.14 346.073 172.659 346.073 173.15 346.209Z" fill="#E5918F"/>
<path d="M232.15 322.5L220.5 287.23C220.5 287.23 216.97 285.97 215.16 287.23C215.16 287.23 203.03 293.76 204.32 312.36C205.32 326.36 208.26 341.61 209.46 347.71L178.38 346.56C177.254 348.036 176.536 349.782 176.297 351.623C176.058 353.464 176.308 355.336 177.02 357.05C177.02 357.05 216.08 367.55 221.58 368.52C226.05 369.31 230.95 369.92 233.31 367.9C237.45 364.33 232.15 322.5 232.15 322.5Z" fill="black"/>
<path d="M209.94 346.209L217.84 347.349L215.22 356.579L206.66 354.419C206.182 353.782 205.847 353.049 205.677 352.271C205.508 351.492 205.507 350.687 205.676 349.908C205.845 349.13 206.179 348.396 206.656 347.758C207.133 347.12 207.741 346.592 208.44 346.209C208.93 346.073 209.449 346.073 209.94 346.209Z" fill="#E5918F"/>
<path d="M207.07 351.05C206.89 352.86 208.48 354.5 208.19 354.95C207.9 355.4 202.59 364.32 202.59 364.32C202.59 364.32 206.59 366.07 205.95 368.59H195.79C194.2 367.064 193.273 364.973 193.21 362.77C193.708 360.189 194.549 357.687 195.71 355.33C197.52 351.83 201.64 343.95 201.64 343.95C202.747 343.628 203.925 343.649 205.02 344.01C206.749 344.524 208.404 345.264 209.94 346.21C209.94 346.21 207.51 346.56 207.07 351.05Z" fill="#467CDB"/>
<path d="M288.44 360.49C285.93 351.13 262.34 311.179 254.35 300.389C237.96 293.269 220.48 287.229 220.48 287.229C213.25 288.959 209.69 303.519 213.79 313.229C216.61 319.889 234.45 336.65 245.37 346.52H215.05C215.05 346.52 211.48 351.859 214.72 356.929C214.72 356.929 265.14 368.399 269.56 369.039C273.98 369.679 283.91 369.039 283.91 369.039C283.91 369.039 290.55 368.36 288.44 360.49Z" fill="#002C54"/>
<path d="M170.27 351.05C170.09 352.86 171.68 354.5 171.39 354.95C171.1 355.4 165.79 364.32 165.79 364.32C165.79 364.32 169.79 366.07 169.15 368.59H158.99C157.4 367.064 156.473 364.973 156.41 362.77C156.908 360.189 157.749 357.687 158.91 355.33C160.72 351.83 164.84 343.95 164.84 343.95C165.947 343.628 167.125 343.649 168.22 344.01C169.949 344.527 171.603 345.266 173.14 346.21C173.14 346.21 170.71 346.56 170.27 351.05Z" fill="#467CDB"/>
<path d="M326.4 237.399L310.15 265.999L298.5 254.389L288.87 268.739L291.66 270.089L290.66 270.919C290.66 270.919 313.13 281.869 315.82 279.449C318.51 277.029 331.07 240.649 331.07 240.649L326.4 237.399Z" fill="#E49191"/>
<path d="M300.57 256.21C300.57 256.21 297.5 269.21 291.36 275.3L275.65 269.3C275.65 269.3 268.36 281.56 261.23 290.96C258.49 294.59 257.58 299.7 254.36 300.37C254.16 300.3 253.97 300.24 253.77 300.19C245.04 297.57 232.16 300.35 221.53 296.4C209.79 292.03 212.07 289.57 212.07 289.57C216.617 281.132 220.354 272.283 223.23 263.14C224.804 257.909 226.112 252.602 227.15 247.24C227.858 243.473 229.728 240.023 232.497 237.374C235.266 234.725 238.796 233.01 242.59 232.47H242.85C251.75 231.34 275.05 234.09 279.58 236.03C284.11 237.97 300.57 256.21 300.57 256.21Z" fill="#467CDB"/>
<path d="M275.649 269.319C275.649 269.319 268.359 281.579 261.229 290.979C258.489 294.609 257.579 299.719 254.359 300.389C255.769 299.889 258.109 292.469 258.939 290.799C259.769 289.129 261.109 287.469 263.939 281.639C266.769 275.809 270.709 267.239 270.709 267.239L275.649 269.319Z" fill="#5996EF"/>
<path d="M245.37 346.52C245.595 346.471 245.822 346.434 246.05 346.41C246.49 346.36 247.11 346.27 247.87 346.24C249.708 346.158 251.549 346.245 253.37 346.5C254.346 346.633 255.314 346.817 256.27 347.05C257.108 347.243 257.932 347.486 258.74 347.78C259.312 347.98 259.873 348.211 260.42 348.47C260.82 348.65 261.04 348.77 261.04 348.77L260.36 348.67C259.93 348.58 259.36 348.49 258.58 348.37C257.12 348.12 255.18 347.81 253.22 347.55C252.22 347.4 251.22 347.29 250.36 347.17L247.84 346.85L245.37 346.52Z" fill="black"/>
<path d="M338.549 226.87C337.569 227.434 336.653 228.105 335.819 228.87L336.749 227.1C337.345 226.526 337.899 225.911 338.409 225.26C338.859 224.61 338.619 223.96 338.279 223.93C337.353 224.436 336.491 225.05 335.709 225.76L335.899 225.4C336.5 224.831 337.058 224.219 337.569 223.57C338.009 222.92 337.779 222.27 337.429 222.23C336.306 222.915 335.245 223.698 334.259 224.57L332.889 226.41L333.889 224.41C334.238 223.974 334.543 223.505 334.799 223.01C335.159 222.28 334.899 222.01 334.699 221.82C334.499 221.63 332.599 222.99 332.109 223.56C331.328 224.572 330.613 225.635 329.969 226.74L328.389 230.02C328.279 229.02 328.129 227.44 328.009 226.4C327.849 224.91 326.499 224.56 326.449 225.28C326.399 226 325.649 229.59 325.819 231.53C325.989 233.47 326.319 234.74 326.439 235.83C326.559 236.92 325.439 239.1 325.439 239.1C325.439 239.1 329.959 241.91 330.709 241.1C331.842 239.844 332.881 238.507 333.819 237.1C334.548 235.832 335.141 234.491 335.589 233.1L337.009 230.1C337.605 229.53 338.16 228.918 338.669 228.27C339.149 227.56 338.899 226.91 338.549 226.87Z" fill="#E49191"/>
<path d="M598.3 135.789H545.24C543.606 135.789 542.04 136.438 540.884 137.593C539.729 138.749 539.08 140.315 539.08 141.949V154.489C539.082 155.987 539.629 157.433 540.619 158.557C541.609 159.682 542.974 160.407 544.46 160.599C544.676 160.624 544.875 160.727 545.019 160.89C545.163 161.052 545.241 161.262 545.24 161.479V168.339C545.241 168.425 545.268 168.509 545.319 168.578C545.37 168.648 545.442 168.699 545.524 168.726C545.605 168.752 545.694 168.752 545.776 168.726C545.857 168.7 545.929 168.648 545.98 168.579L551.38 161.019C551.463 160.903 551.572 160.808 551.699 160.744C551.827 160.68 551.967 160.647 552.11 160.649H598.3C599.109 160.649 599.91 160.49 600.657 160.18C601.405 159.871 602.084 159.417 602.656 158.845C603.228 158.273 603.682 157.594 603.991 156.846C604.301 156.099 604.46 155.298 604.46 154.489V141.949C604.46 141.14 604.301 140.339 603.991 139.592C603.682 138.844 603.228 138.165 602.656 137.593C602.084 137.021 601.405 136.568 600.657 136.258C599.91 135.948 599.109 135.789 598.3 135.789Z" stroke="white" stroke-width="0.9" stroke-miterlimit="10"/>
<path d="M553.38 148.199C553.38 148.595 553.263 148.981 553.043 149.31C552.823 149.639 552.511 149.896 552.145 150.047C551.78 150.198 551.378 150.238 550.99 150.161C550.602 150.084 550.245 149.893 549.966 149.613C549.686 149.334 549.495 148.977 549.418 148.589C549.341 148.201 549.381 147.799 549.532 147.434C549.683 147.068 549.94 146.756 550.269 146.536C550.598 146.317 550.984 146.199 551.38 146.199C551.91 146.199 552.419 146.41 552.794 146.785C553.169 147.16 553.38 147.669 553.38 148.199Z" stroke="white" stroke-width="0.9" stroke-miterlimit="10"/>
<path d="M563.59 148.199C563.59 148.595 563.473 148.981 563.253 149.31C563.033 149.639 562.721 149.896 562.355 150.047C561.99 150.198 561.588 150.238 561.2 150.161C560.812 150.084 560.455 149.893 560.176 149.613C559.896 149.334 559.705 148.977 559.628 148.589C559.551 148.201 559.591 147.799 559.742 147.434C559.894 147.068 560.15 146.756 560.479 146.536C560.808 146.317 561.194 146.199 561.59 146.199C562.12 146.199 562.629 146.41 563.004 146.785C563.379 147.16 563.59 147.669 563.59 148.199Z" stroke="white" stroke-width="0.9" stroke-miterlimit="10"/>
<path d="M573.8 148.199C573.8 148.595 573.683 148.981 573.463 149.31C573.243 149.639 572.931 149.896 572.565 150.047C572.2 150.198 571.797 150.238 571.41 150.161C571.022 150.084 570.665 149.893 570.386 149.613C570.106 149.334 569.915 148.977 569.838 148.589C569.761 148.201 569.801 147.799 569.952 147.434C570.103 147.068 570.36 146.756 570.689 146.536C571.017 146.317 571.404 146.199 571.8 146.199C572.33 146.199 572.839 146.41 573.214 146.785C573.589 147.16 573.8 147.669 573.8 148.199Z" stroke="white" stroke-width="0.9" stroke-miterlimit="10"/>
<path d="M584.01 148.199C584.01 148.595 583.892 148.981 583.673 149.31C583.453 149.639 583.141 149.896 582.775 150.047C582.41 150.198 582.008 150.238 581.62 150.161C581.232 150.084 580.875 149.893 580.596 149.613C580.316 149.334 580.125 148.977 580.048 148.589C579.971 148.201 580.011 147.799 580.162 147.434C580.313 147.068 580.57 146.756 580.899 146.536C581.228 146.317 581.614 146.199 582.01 146.199C582.54 146.199 583.049 146.41 583.424 146.785C583.799 147.16 584.01 147.669 584.01 148.199Z" stroke="white" stroke-width="0.9" stroke-miterlimit="10"/>
<path d="M594.22 148.199C594.22 148.595 594.102 148.981 593.883 149.31C593.663 149.639 593.351 149.896 592.985 150.047C592.62 150.198 592.218 150.238 591.83 150.161C591.442 150.084 591.085 149.893 590.805 149.613C590.526 149.334 590.335 148.977 590.258 148.589C590.181 148.201 590.221 147.799 590.372 147.434C590.523 147.068 590.78 146.756 591.109 146.536C591.437 146.317 591.824 146.199 592.22 146.199C592.75 146.199 593.259 146.41 593.634 146.785C594.009 147.16 594.22 147.669 594.22 148.199Z" stroke="white" stroke-width="0.9" stroke-miterlimit="10"/>
<path d="M179 190.75H232.07C232.878 190.75 233.679 190.909 234.426 191.219C235.172 191.529 235.851 191.983 236.422 192.555C236.993 193.127 237.446 193.806 237.755 194.553C238.063 195.301 238.221 196.102 238.22 196.91V209.44C238.222 210.939 237.676 212.387 236.685 213.513C235.695 214.638 234.327 215.362 232.84 215.55C232.626 215.581 232.431 215.688 232.289 215.852C232.148 216.015 232.07 216.224 232.07 216.44V223.3C232.067 223.385 232.038 223.467 231.986 223.535C231.935 223.603 231.863 223.653 231.782 223.678C231.7 223.704 231.613 223.703 231.532 223.676C231.451 223.65 231.38 223.599 231.33 223.53L225.92 215.98C225.838 215.863 225.728 215.767 225.601 215.701C225.474 215.634 225.333 215.6 225.19 215.6H179C177.366 215.6 175.799 214.951 174.644 213.796C173.489 212.641 172.84 211.074 172.84 209.44V196.91C172.84 195.276 173.489 193.709 174.644 192.554C175.799 191.399 177.366 190.75 179 190.75Z" stroke="white" stroke-width="0.9" stroke-miterlimit="10"/>
<path d="M223.92 203.14C223.92 203.535 224.037 203.922 224.257 204.251C224.477 204.58 224.789 204.836 225.155 204.987C225.52 205.139 225.922 205.178 226.31 205.101C226.698 205.024 227.054 204.834 227.334 204.554C227.614 204.274 227.804 203.918 227.881 203.53C227.959 203.142 227.919 202.74 227.768 202.374C227.616 202.009 227.36 201.696 227.031 201.477C226.702 201.257 226.315 201.14 225.92 201.14C225.389 201.14 224.881 201.35 224.506 201.725C224.131 202.101 223.92 202.609 223.92 203.14Z" stroke="white" stroke-width="0.9" stroke-miterlimit="10"/>
<path d="M213.72 203.14C213.72 203.535 213.837 203.922 214.057 204.251C214.277 204.58 214.589 204.836 214.954 204.987C215.32 205.139 215.722 205.178 216.11 205.101C216.498 205.024 216.854 204.834 217.134 204.554C217.414 204.274 217.604 203.918 217.681 203.53C217.759 203.142 217.719 202.74 217.568 202.374C217.416 202.009 217.16 201.696 216.831 201.477C216.502 201.257 216.115 201.14 215.72 201.14C215.189 201.14 214.681 201.35 214.306 201.725C213.93 202.101 213.72 202.609 213.72 203.14Z" stroke="white" stroke-width="0.9" stroke-miterlimit="10"/>
<path d="M203.51 203.14C203.51 203.535 203.627 203.922 203.847 204.251C204.067 204.58 204.379 204.836 204.744 204.987C205.11 205.139 205.512 205.178 205.9 205.101C206.288 205.024 206.644 204.834 206.924 204.554C207.204 204.274 207.394 203.918 207.471 203.53C207.548 203.142 207.509 202.74 207.358 202.374C207.206 202.009 206.95 201.696 206.621 201.477C206.292 201.257 205.905 201.14 205.51 201.14C204.979 201.14 204.471 201.35 204.096 201.725C203.721 202.101 203.51 202.609 203.51 203.14V203.14Z" stroke="white" stroke-width="0.9" stroke-miterlimit="10"/>
<path d="M193.3 203.14C193.3 203.535 193.417 203.922 193.637 204.251C193.857 204.58 194.169 204.836 194.534 204.987C194.9 205.139 195.302 205.178 195.69 205.101C196.078 205.024 196.434 204.834 196.714 204.554C196.994 204.274 197.184 203.918 197.261 203.53C197.339 203.142 197.299 202.74 197.148 202.374C196.996 202.009 196.74 201.696 196.411 201.477C196.082 201.257 195.695 201.14 195.3 201.14C194.769 201.14 194.261 201.35 193.886 201.725C193.51 202.101 193.3 202.609 193.3 203.14Z" stroke="white" stroke-width="0.9" stroke-miterlimit="10"/>
<path d="M183.09 203.14C183.09 203.535 183.207 203.922 183.427 204.251C183.647 204.58 183.959 204.836 184.324 204.987C184.69 205.139 185.092 205.178 185.48 205.101C185.868 205.024 186.224 204.834 186.504 204.554C186.784 204.274 186.974 203.918 187.051 203.53C187.129 203.142 187.089 202.74 186.938 202.374C186.786 202.009 186.53 201.696 186.201 201.477C185.872 201.257 185.485 201.14 185.09 201.14C184.559 201.14 184.051 201.35 183.676 201.725C183.301 202.101 183.09 202.609 183.09 203.14Z" stroke="white" stroke-width="0.9" stroke-miterlimit="10"/>
<path d="M499.47 106.87H402.75C400.19 106.87 397.734 105.853 395.923 104.044C394.111 102.234 393.092 99.7798 393.09 97.2196C393.09 95.951 393.34 94.6949 393.825 93.5228C394.311 92.3508 395.022 91.2859 395.919 90.3889C396.816 89.4919 397.881 88.7804 399.053 88.2949C400.225 87.8094 401.481 87.5596 402.75 87.5596H499.47C502.032 87.5596 504.489 88.5773 506.301 90.3889C508.112 92.2005 509.13 94.6576 509.13 97.2196C509.127 99.7798 508.108 102.234 506.297 104.044C504.486 105.853 502.03 106.87 499.47 106.87Z" fill="white" stroke="#495AD6" stroke-width="0.9" stroke-miterlimit="10"/>
<path d="M498.05 96.5492C498.05 97.9107 497.51 99.2165 496.548 100.18C495.587 101.144 494.282 101.687 492.92 101.689C492.245 101.689 491.577 101.556 490.953 101.298C490.33 101.04 489.763 100.661 489.286 100.184C488.808 99.7064 488.43 99.1398 488.172 98.5162C487.913 97.8926 487.78 97.2242 487.78 96.5492C487.78 95.8742 487.913 95.2058 488.172 94.5822C488.43 93.9586 488.808 93.3919 489.286 92.9146C489.763 92.4374 490.33 92.0587 490.953 91.8004C491.577 91.5421 492.245 91.4092 492.92 91.4092C494.282 91.4118 495.587 91.9545 496.548 92.9182C497.51 93.8818 498.05 95.1877 498.05 96.5492V96.5492Z" stroke="#495AD6" stroke-width="1.67" stroke-miterlimit="10"/>
<path d="M496.54 100.18L499.38 103.01" stroke="#495AD6" stroke-width="1.67" stroke-miterlimit="10" stroke-linecap="round"/>
<path d="M352.96 329.8H328.63C324.372 329.8 320.92 333.252 320.92 337.51V361.84C320.92 366.098 324.372 369.55 328.63 369.55H352.96C357.218 369.55 360.67 366.098 360.67 361.84V337.51C360.67 333.252 357.218 329.8 352.96 329.8Z" fill="#193091"/>
<path d="M345.72 329.8H321.39C317.132 329.8 313.68 333.252 313.68 337.51V361.84C313.68 366.098 317.132 369.55 321.39 369.55H345.72C349.978 369.55 353.43 366.098 353.43 361.84V337.51C353.43 333.252 349.978 329.8 345.72 329.8Z" fill="#495AD6"/>
<path d="M328.86 342.14L340.27 348.73C340.43 348.823 340.562 348.957 340.654 349.118C340.746 349.278 340.795 349.46 340.795 349.645C340.795 349.83 340.746 350.012 340.654 350.172C340.562 350.333 340.43 350.467 340.27 350.56L328.86 357.14C328.699 357.233 328.516 357.282 328.329 357.282C328.143 357.282 327.96 357.233 327.799 357.14C327.638 357.046 327.504 356.912 327.411 356.751C327.318 356.589 327.27 356.406 327.27 356.22V343.14C327.255 342.947 327.292 342.754 327.379 342.581C327.466 342.408 327.598 342.262 327.762 342.159C327.926 342.056 328.115 342 328.309 341.996C328.502 341.993 328.693 342.043 328.86 342.14Z" fill="white"/>
<path d="M604.64 317.59H572.84C567.273 317.59 562.76 322.103 562.76 327.67V359.47C562.76 365.037 567.273 369.55 572.84 369.55H604.64C610.207 369.55 614.72 365.037 614.72 359.47V327.67C614.72 322.103 610.207 317.59 604.64 317.59Z" fill="#193091"/>
<path d="M595.17 317.59H563.37C557.803 317.59 553.29 322.103 553.29 327.67V359.47C553.29 365.037 557.803 369.55 563.37 369.55H595.17C600.737 369.55 605.25 365.037 605.25 359.47V327.67C605.25 322.103 600.737 317.59 595.17 317.59Z" fill="#495AD6"/>
<path d="M585.52 330.34C585.521 331.576 585.157 332.786 584.471 333.815C583.785 334.844 582.81 335.646 581.668 336.121C580.526 336.596 579.269 336.721 578.056 336.481C576.843 336.241 575.729 335.646 574.854 334.773C573.979 333.899 573.382 332.785 573.14 331.573C572.898 330.36 573.022 329.103 573.494 327.96C573.967 326.818 574.768 325.841 575.796 325.154C576.824 324.466 578.033 324.1 579.27 324.1C580.09 324.098 580.902 324.259 581.66 324.572C582.419 324.885 583.108 325.344 583.688 325.924C584.269 326.503 584.729 327.192 585.044 327.949C585.358 328.707 585.52 329.519 585.52 330.34Z" fill="white"/>
<path d="M592.29 351.47V360.69C592.287 361.089 592.127 361.472 591.844 361.755C591.562 362.037 591.179 362.197 590.78 362.2H567.78C567.379 362.2 566.995 362.041 566.712 361.757C566.429 361.474 566.27 361.09 566.27 360.69V351.47C566.27 348.022 567.639 344.715 570.077 342.277C572.515 339.839 575.822 338.47 579.27 338.47C580.978 338.467 582.671 338.801 584.251 339.454C585.83 340.106 587.266 341.063 588.475 342.27C589.684 343.478 590.644 344.912 591.298 346.49C591.953 348.069 592.29 349.761 592.29 351.47Z" fill="white"/>
<path d="M463.08 118H442.65C442.251 117.989 441.871 117.824 441.591 117.538C441.311 117.253 441.153 116.87 441.15 116.47C441.15 116.061 441.313 115.67 441.601 115.381C441.89 115.092 442.282 114.93 442.69 114.93H463.12C463.527 114.932 463.916 115.096 464.203 115.384C464.49 115.673 464.65 116.063 464.65 116.47C464.649 116.674 464.607 116.875 464.527 117.063C464.448 117.251 464.331 117.421 464.185 117.563C464.039 117.705 463.866 117.817 463.677 117.892C463.487 117.967 463.284 118.004 463.08 118Z" fill="#F0F4FF"/>
<path d="M483.51 118H468.73C468.526 118.005 468.322 117.969 468.131 117.895C467.94 117.821 467.766 117.709 467.619 117.567C467.472 117.424 467.355 117.254 467.274 117.065C467.194 116.877 467.152 116.674 467.15 116.47C467.15 116.061 467.313 115.67 467.601 115.381C467.89 115.092 468.282 114.93 468.69 114.93H483.47C483.879 114.93 484.271 115.092 484.559 115.381C484.848 115.67 485.01 116.061 485.01 116.47C485.008 116.87 484.85 117.253 484.57 117.538C484.29 117.824 483.91 117.989 483.51 118Z" fill="#F0F4FF"/>
<path d="M451.329 124.75H442.649C442.243 124.75 441.852 124.589 441.564 124.302C441.275 124.016 441.112 123.626 441.109 123.22C441.109 123.017 441.149 122.817 441.227 122.63C441.304 122.444 441.417 122.274 441.56 122.131C441.703 121.988 441.873 121.874 442.06 121.797C442.247 121.72 442.447 121.68 442.649 121.68H451.329C451.736 121.682 452.125 121.846 452.412 122.134C452.699 122.423 452.859 122.813 452.859 123.22C452.857 123.625 452.695 124.012 452.408 124.299C452.122 124.585 451.734 124.747 451.329 124.75Z" fill="#F0F4FF"/>
<path d="M483.51 124.75H456.51C456.103 124.75 455.713 124.589 455.424 124.302C455.136 124.016 454.972 123.626 454.97 123.22C454.97 123.017 455.01 122.817 455.087 122.63C455.164 122.444 455.278 122.274 455.421 122.131C455.564 121.988 455.734 121.874 455.92 121.797C456.107 121.72 456.308 121.68 456.51 121.68H483.51C483.918 121.68 484.31 121.842 484.599 122.131C484.888 122.42 485.05 122.811 485.05 123.22C485.047 123.626 484.884 124.016 484.595 124.302C484.307 124.589 483.916 124.75 483.51 124.75Z" fill="#F0F4FF"/>
<path d="M469.579 131.5H442.649C442.243 131.5 441.852 131.339 441.564 131.052C441.275 130.766 441.112 130.376 441.109 129.97C441.109 129.561 441.272 129.17 441.56 128.881C441.849 128.592 442.241 128.43 442.649 128.43H469.579C469.986 128.432 470.375 128.596 470.662 128.884C470.949 129.173 471.109 129.563 471.109 129.97C471.107 130.375 470.945 130.762 470.658 131.049C470.372 131.335 469.984 131.497 469.579 131.5Z" fill="#F0F4FF"/>
<path d="M483.51 131.5H474.83C474.425 131.497 474.037 131.335 473.751 131.049C473.464 130.762 473.302 130.375 473.3 129.97C473.3 129.563 473.461 129.173 473.747 128.884C474.034 128.596 474.423 128.432 474.83 128.43H483.51C483.918 128.43 484.31 128.592 484.599 128.881C484.888 129.17 485.05 129.561 485.05 129.97C485.047 130.376 484.884 130.766 484.595 131.052C484.307 131.339 483.916 131.5 483.51 131.5Z" fill="#F0F4FF"/>
<path d="M204.39 231.14H133.07C130.96 231.14 129.25 232.85 129.25 234.96V270.97C129.25 273.079 130.96 274.79 133.07 274.79H204.39C206.5 274.79 208.21 273.079 208.21 270.97V234.96C208.21 232.85 206.5 231.14 204.39 231.14Z" fill="#193091"/>
<path d="M132.6 237.039H204.85" stroke="white" stroke-width="0.9" stroke-miterlimit="10" stroke-linecap="round"/>
<path d="M202.95 234.91C203.431 234.91 203.82 234.52 203.82 234.04C203.82 233.559 203.431 233.17 202.95 233.17C202.47 233.17 202.08 233.559 202.08 234.04C202.08 234.52 202.47 234.91 202.95 234.91Z" fill="white"/>
<path d="M198.38 234.91C198.86 234.91 199.25 234.52 199.25 234.04C199.25 233.559 198.86 233.17 198.38 233.17C197.899 233.17 197.51 233.559 197.51 234.04C197.51 234.52 197.899 234.91 198.38 234.91Z" fill="white"/>
<path d="M193.82 234.91C194.301 234.91 194.69 234.52 194.69 234.04C194.69 233.559 194.301 233.17 193.82 233.17C193.34 233.17 192.95 233.559 192.95 234.04C192.95 234.52 193.34 234.91 193.82 234.91Z" fill="white"/>
<path d="M146.08 242.92H133.82C133.661 242.92 133.504 242.889 133.357 242.828C133.21 242.767 133.077 242.678 132.965 242.566C132.852 242.453 132.763 242.32 132.702 242.173C132.642 242.026 132.61 241.869 132.61 241.71C132.61 241.389 132.738 241.081 132.965 240.854C133.192 240.627 133.499 240.5 133.82 240.5H146.08C146.399 240.503 146.705 240.631 146.929 240.858C147.154 241.085 147.28 241.391 147.28 241.71C147.28 242.029 147.154 242.335 146.929 242.562C146.705 242.789 146.399 242.917 146.08 242.92Z" fill="#6589D1"/>
<path d="M146.08 248.5H133.82C133.499 248.5 133.192 248.372 132.965 248.145C132.738 247.919 132.61 247.611 132.61 247.29C132.613 246.971 132.742 246.665 132.968 246.441C133.195 246.216 133.501 246.09 133.82 246.09H146.08C146.399 246.09 146.704 246.216 146.929 246.441C147.154 246.666 147.28 246.972 147.28 247.29C147.28 247.609 147.154 247.915 146.929 248.142C146.705 248.369 146.399 248.497 146.08 248.5Z" fill="#6589D1"/>
<path d="M146.08 254.14H133.82C133.499 254.14 133.192 254.012 132.965 253.785C132.738 253.558 132.61 253.251 132.61 252.93C132.61 252.771 132.642 252.613 132.702 252.467C132.763 252.32 132.852 252.186 132.965 252.074C133.077 251.962 133.21 251.873 133.357 251.812C133.504 251.751 133.661 251.72 133.82 251.72H146.08C146.399 251.722 146.705 251.851 146.929 252.078C147.154 252.304 147.28 252.611 147.28 252.93C147.28 253.249 147.154 253.555 146.929 253.782C146.705 254.008 146.399 254.137 146.08 254.14Z" fill="#6589D1"/>
<path d="M146.08 259.67H133.82C133.499 259.67 133.192 259.543 132.965 259.316C132.738 259.089 132.61 258.781 132.61 258.46C132.61 258.139 132.738 257.831 132.965 257.604C133.192 257.377 133.499 257.25 133.82 257.25H146.08C146.399 257.253 146.705 257.381 146.929 257.608C147.154 257.835 147.28 258.141 147.28 258.46C147.28 258.779 147.154 259.085 146.929 259.312C146.705 259.539 146.399 259.667 146.08 259.67Z" fill="#6589D1"/>
<path d="M146.08 265.25H133.82C133.661 265.25 133.504 265.219 133.357 265.158C133.21 265.097 133.077 265.008 132.965 264.895C132.852 264.783 132.763 264.65 132.702 264.503C132.642 264.356 132.61 264.199 132.61 264.04C132.613 263.721 132.742 263.415 132.968 263.191C133.195 262.966 133.501 262.84 133.82 262.84H146.08C146.399 262.84 146.704 262.966 146.929 263.191C147.154 263.416 147.28 263.722 147.28 264.04C147.28 264.359 147.154 264.665 146.929 264.892C146.705 265.119 146.399 265.247 146.08 265.25Z" fill="#6589D1"/>
<path d="M146.08 270.84H133.82C133.661 270.84 133.504 270.809 133.357 270.748C133.21 270.687 133.077 270.598 132.965 270.486C132.852 270.373 132.763 270.24 132.702 270.093C132.642 269.946 132.61 269.789 132.61 269.63C132.61 269.309 132.738 269.001 132.965 268.774C133.192 268.547 133.499 268.42 133.82 268.42H146.08C146.399 268.423 146.705 268.551 146.929 268.778C147.154 269.004 147.28 269.311 147.28 269.63C147.28 269.949 147.154 270.255 146.929 270.482C146.705 270.709 146.399 270.837 146.08 270.84Z" fill="#6589D1"/>
<path d="M203.65 242.92H150.82C150.661 242.92 150.504 242.889 150.357 242.828C150.21 242.767 150.077 242.678 149.965 242.566C149.852 242.453 149.763 242.32 149.702 242.173C149.642 242.026 149.61 241.869 149.61 241.71C149.61 241.389 149.738 241.081 149.965 240.854C150.192 240.627 150.499 240.5 150.82 240.5H203.65C203.971 240.5 204.279 240.627 204.506 240.854C204.733 241.081 204.86 241.389 204.86 241.71C204.86 241.869 204.829 242.026 204.768 242.173C204.707 242.32 204.618 242.453 204.506 242.566C204.394 242.678 204.26 242.767 204.113 242.828C203.967 242.889 203.809 242.92 203.65 242.92Z" fill="#3B5FB7"/>
<path d="M203.65 248.5H150.82C150.499 248.5 150.192 248.372 149.965 248.145C149.738 247.919 149.61 247.611 149.61 247.29C149.613 246.971 149.742 246.665 149.968 246.441C150.195 246.216 150.501 246.09 150.82 246.09H203.65C203.97 246.09 204.276 246.216 204.502 246.441C204.729 246.665 204.858 246.971 204.86 247.29C204.86 247.611 204.733 247.919 204.506 248.145C204.279 248.372 203.971 248.5 203.65 248.5Z" fill="#3B5FB7"/>
<path d="M203.65 254.14H150.82C150.499 254.14 150.192 254.012 149.965 253.785C149.738 253.558 149.61 253.251 149.61 252.93C149.61 252.771 149.642 252.613 149.702 252.467C149.763 252.32 149.852 252.186 149.965 252.074C150.077 251.962 150.21 251.873 150.357 251.812C150.504 251.751 150.661 251.72 150.82 251.72H203.65C203.809 251.72 203.967 251.751 204.113 251.812C204.26 251.873 204.394 251.962 204.506 252.074C204.618 252.186 204.707 252.32 204.768 252.467C204.829 252.613 204.86 252.771 204.86 252.93C204.86 253.251 204.733 253.558 204.506 253.785C204.279 254.012 203.971 254.14 203.65 254.14Z" fill="#3B5FB7"/>
<path d="M203.65 259.67H150.82C150.499 259.67 150.192 259.543 149.965 259.316C149.738 259.089 149.61 258.781 149.61 258.46C149.61 258.139 149.738 257.831 149.965 257.604C150.192 257.377 150.499 257.25 150.82 257.25H203.65C203.971 257.25 204.279 257.377 204.506 257.604C204.733 257.831 204.86 258.139 204.86 258.46C204.86 258.781 204.733 259.089 204.506 259.316C204.279 259.543 203.971 259.67 203.65 259.67Z" fill="#3B5FB7"/>
<path d="M203.65 265.25H150.82C150.661 265.25 150.504 265.219 150.357 265.158C150.21 265.097 150.077 265.008 149.965 264.895C149.852 264.783 149.763 264.65 149.702 264.503C149.642 264.356 149.61 264.199 149.61 264.04C149.613 263.721 149.742 263.415 149.968 263.191C150.195 262.966 150.501 262.84 150.82 262.84H203.65C203.97 262.84 204.276 262.966 204.502 263.191C204.729 263.415 204.858 263.721 204.86 264.04C204.86 264.199 204.829 264.356 204.768 264.503C204.707 264.65 204.618 264.783 204.506 264.895C204.394 265.008 204.26 265.097 204.113 265.158C203.967 265.219 203.809 265.25 203.65 265.25Z" fill="#3B5FB7"/>
<path d="M203.65 270.84H150.82C150.661 270.84 150.504 270.809 150.357 270.748C150.21 270.687 150.077 270.598 149.965 270.486C149.852 270.373 149.763 270.24 149.702 270.093C149.642 269.946 149.61 269.789 149.61 269.63C149.61 269.309 149.738 269.001 149.965 268.774C150.192 268.547 150.499 268.42 150.82 268.42H203.65C203.971 268.42 204.279 268.547 204.506 268.774C204.733 269.001 204.86 269.309 204.86 269.63C204.86 269.789 204.829 269.946 204.768 270.093C204.707 270.24 204.618 270.373 204.506 270.486C204.394 270.598 204.26 270.687 204.113 270.748C203.967 270.809 203.809 270.84 203.65 270.84Z" fill="#3B5FB7"/>
<path d="M574.519 46.7612C578.701 29.3004 567.937 11.7551 550.476 7.57275C533.015 3.39043 515.47 14.1548 511.288 31.6157C507.105 49.0766 517.87 66.6219 535.331 70.8042C552.791 74.9865 570.337 64.2221 574.519 46.7612Z" stroke="#DEE3FC" stroke-width="0.79" stroke-miterlimit="10"/>
<path d="M554.388 65.0116C568.661 58.6958 575.111 42.0056 568.795 27.733C562.479 13.4604 545.789 7.01014 531.517 13.3259C517.244 19.6417 510.794 36.3319 517.11 50.6045C523.425 64.8771 540.116 71.3274 554.388 65.0116Z" fill="#3945BA"/>
<path d="M545.55 39.2197C545.55 39.9013 545.28 40.555 544.798 41.0369C544.316 41.5189 543.662 41.7897 542.98 41.7897C542.642 41.791 542.307 41.7255 541.994 41.5969C541.681 41.4683 541.396 41.2793 541.157 41.0405C540.917 40.8017 540.727 40.5179 540.597 40.2055C540.467 39.893 540.4 39.558 540.4 39.2197C540.399 38.8805 540.465 38.5444 540.594 38.2308C540.723 37.9172 540.913 37.6322 541.153 37.3924C541.393 37.1525 541.678 36.9626 541.991 36.8334C542.305 36.7042 542.641 36.6383 542.98 36.6397C543.319 36.6397 543.654 36.7065 543.966 36.8362C544.279 36.966 544.562 37.1562 544.801 37.3959C545.04 37.6356 545.229 37.9201 545.358 38.2331C545.486 38.5461 545.552 38.8813 545.55 39.2197Z" fill="white"/>
<path d="M542.7 38.7099C542.512 38.8115 542.292 38.836 542.087 38.7781C541.881 38.7202 541.707 38.5845 541.6 38.3999L533.29 23.3999C533.189 23.2137 533.164 22.9954 533.222 22.7916C533.28 22.5879 533.416 22.4149 533.6 22.3099C533.787 22.2083 534.007 22.1838 534.213 22.2417C534.418 22.2996 534.593 22.4352 534.7 22.6199L543.01 37.6199C543.111 37.806 543.135 38.0244 543.077 38.2281C543.019 38.4319 542.884 38.6048 542.7 38.7099Z" fill="white"/>
<path d="M543.38 39.6193C543.532 39.469 543.737 39.3848 543.95 39.3848C544.164 39.3848 544.368 39.469 544.52 39.6193L551.71 46.8093C551.786 46.8837 551.846 46.9724 551.887 47.0703C551.928 47.1681 551.949 47.2732 551.949 47.3793C551.949 47.4854 551.928 47.5904 551.887 47.6882C551.846 47.7861 551.786 47.8748 551.71 47.9493C551.636 48.0249 551.547 48.0849 551.449 48.1259C551.351 48.1668 551.246 48.1879 551.14 48.1879C551.034 48.1879 550.929 48.1668 550.831 48.1259C550.733 48.0849 550.645 48.0249 550.57 47.9493L543.38 40.7593C543.23 40.6076 543.146 40.4027 543.146 40.1893C543.146 39.9758 543.23 39.7709 543.38 39.6193Z" fill="white"/>
<path d="M543.15 16.5898V13.3398" stroke="white" stroke-width="2" stroke-miterlimit="10" stroke-linecap="round"/>
<path d="M565.59 39.3799H568.84" stroke="white" stroke-width="2" stroke-miterlimit="10" stroke-linecap="round"/>
<path d="M542.8 61.8301V65.0801" stroke="white" stroke-width="2" stroke-miterlimit="10" stroke-linecap="round"/>
<path d="M520.35 39.04H517.1" stroke="white" stroke-width="2" stroke-miterlimit="10" stroke-linecap="round"/>
<g opacity="0.5">
<path opacity="0.5" d="M531.81 19.5297L530.19 16.7197" stroke="#DEE3FC" stroke-miterlimit="10" stroke-linecap="round"/>
<path opacity="0.5" d="M562.65 28.0497L565.46 26.4297" stroke="#DEE3FC" stroke-miterlimit="10" stroke-linecap="round"/>
<path opacity="0.5" d="M554.131 58.8896L555.761 61.6996" stroke="#DEE3FC" stroke-miterlimit="10" stroke-linecap="round"/>
<path opacity="0.5" d="M523.3 50.3701L520.48 52.0001" stroke="#DEE3FC" stroke-miterlimit="10" stroke-linecap="round"/>
</g>
<g opacity="0.5">
<path opacity="0.5" d="M523.47 27.7499L520.65 26.1299" stroke="#DEE3FC" stroke-miterlimit="10" stroke-linecap="round"/>
<path opacity="0.5" d="M554.431 19.7096L556.061 16.8896" stroke="#DEE3FC" stroke-miterlimit="10" stroke-linecap="round"/>
<path opacity="0.5" d="M562.471 50.6699L565.291 52.2899" stroke="#DEE3FC" stroke-miterlimit="10" stroke-linecap="round"/>
<path opacity="0.5" d="M531.511 58.71L529.891 61.53" stroke="#DEE3FC" stroke-miterlimit="10" stroke-linecap="round"/>
</g>
<path d="M156.76 147.96H121.07C115.785 147.96 111.5 152.245 111.5 157.53V193.22C111.5 198.505 115.785 202.79 121.07 202.79H156.76C162.045 202.79 166.33 198.505 166.33 193.22V157.53C166.33 152.245 162.045 147.96 156.76 147.96Z" fill="#193091"/>
<path d="M154.41 143.21H114.92C110.684 143.21 107.25 146.644 107.25 150.88V190.37C107.25 194.606 110.684 198.04 114.92 198.04H154.41C158.646 198.04 162.08 194.606 162.08 190.37V150.88C162.08 146.644 158.646 143.21 154.41 143.21Z" fill="#7E89FD" stroke="#DEE3FC" stroke-miterlimit="10"/>
<path d="M144.15 164.349H143.86V161.209C143.86 158.73 142.875 156.351 141.122 154.598C139.368 152.844 136.99 151.859 134.51 151.859C132.03 151.859 129.652 152.844 127.899 154.598C126.145 156.351 125.16 158.73 125.16 161.209V164.349H125.15C124.805 164.349 124.464 164.417 124.145 164.55C123.827 164.682 123.538 164.876 123.294 165.12C123.051 165.365 122.858 165.655 122.727 165.974C122.596 166.293 122.529 166.634 122.53 166.979V178.809C122.529 179.154 122.596 179.496 122.727 179.815C122.858 180.134 123.051 180.424 123.294 180.668C123.538 180.913 123.827 181.107 124.145 181.239C124.464 181.371 124.805 181.439 125.15 181.439H144.15C144.846 181.437 145.512 181.158 146.003 180.666C146.495 180.173 146.77 179.505 146.77 178.809V166.979C146.77 166.284 146.495 165.616 146.003 165.123C145.512 164.63 144.846 164.352 144.15 164.349ZM127.55 161.209C127.55 159.353 128.288 157.572 129.601 156.26C130.913 154.947 132.694 154.209 134.55 154.209C136.407 154.209 138.187 154.947 139.5 156.26C140.813 157.572 141.55 159.353 141.55 161.209V164.349H127.55V161.209Z" fill="#DEE3FC"/>
<path d="M137.72 170.439C137.723 169.903 137.584 169.376 137.317 168.91C137.051 168.445 136.667 168.058 136.203 167.788C135.74 167.519 135.213 167.376 134.677 167.375C134.141 167.374 133.614 167.514 133.149 167.781C132.684 168.049 132.298 168.434 132.03 168.898C131.761 169.363 131.62 169.89 131.62 170.426C131.62 170.962 131.762 171.489 132.03 171.953C132.299 172.417 132.685 172.802 133.15 173.069C133.259 173.124 133.346 173.215 133.396 173.325C133.447 173.436 133.459 173.561 133.43 173.679L132.9 175.679C132.829 175.95 132.821 176.233 132.877 176.508C132.932 176.782 133.05 177.04 133.221 177.262C133.392 177.483 133.612 177.663 133.863 177.786C134.114 177.91 134.39 177.974 134.67 177.974C134.95 177.974 135.226 177.91 135.477 177.786C135.729 177.663 135.948 177.483 136.119 177.262C136.29 177.04 136.408 176.782 136.464 176.508C136.519 176.233 136.511 175.95 136.44 175.679L135.91 173.739C135.88 173.619 135.892 173.493 135.943 173.381C135.994 173.268 136.081 173.176 136.19 173.119C136.664 172.853 137.057 172.463 137.326 171.991C137.596 171.519 137.732 170.983 137.72 170.439Z" fill="#7E89FD"/>
<path d="M145.66 185.59H123.66C123.362 185.587 123.077 185.467 122.867 185.255C122.658 185.044 122.54 184.758 122.54 184.46C122.54 184.163 122.658 183.878 122.868 183.668C123.078 183.458 123.363 183.34 123.66 183.34H145.66C145.808 183.339 145.955 183.367 146.092 183.422C146.229 183.478 146.353 183.56 146.458 183.664C146.563 183.769 146.647 183.892 146.704 184.029C146.761 184.166 146.79 184.312 146.79 184.46C146.79 184.76 146.671 185.047 146.459 185.259C146.247 185.471 145.96 185.59 145.66 185.59Z" fill="#DEE3FC"/>
<path d="M145.66 189.4H123.66C123.363 189.4 123.078 189.282 122.868 189.072C122.658 188.862 122.54 188.577 122.54 188.28C122.535 187.986 122.645 187.702 122.847 187.489C123.049 187.275 123.327 187.15 123.62 187.14H145.62C145.769 187.138 145.917 187.167 146.054 187.223C146.192 187.279 146.317 187.362 146.422 187.468C146.527 187.573 146.611 187.698 146.667 187.836C146.723 187.973 146.752 188.121 146.75 188.27C146.753 188.563 146.64 188.846 146.436 189.058C146.232 189.269 145.954 189.392 145.66 189.4Z" fill="#DEE3FC"/>
<path d="M588.68 234.97H567.66C564.551 234.97 562.03 237.49 562.03 240.6V261.62C562.03 264.729 564.551 267.25 567.66 267.25H588.68C591.79 267.25 594.31 264.729 594.31 261.62V240.6C594.31 237.49 591.79 234.97 588.68 234.97Z" fill="#193091"/>
<path d="M587.3 232.17H564.04C561.549 232.17 559.53 234.189 559.53 236.68V259.94C559.53 262.431 561.549 264.45 564.04 264.45H587.3C589.791 264.45 591.81 262.431 591.81 259.94V236.68C591.81 234.189 589.791 232.17 587.3 232.17Z" fill="#7E89FD" stroke="#DEE3FC" stroke-miterlimit="10"/>
<path d="M569.15 257.959C569.06 257.969 568.969 257.969 568.88 257.959C568.753 257.924 568.634 257.863 568.53 257.781C568.427 257.7 568.341 257.598 568.277 257.483C568.212 257.368 568.172 257.241 568.157 257.11C568.142 256.979 568.153 256.846 568.19 256.719L573.07 239.439C573.106 239.313 573.166 239.194 573.248 239.091C573.33 238.988 573.432 238.902 573.547 238.838C573.662 238.773 573.788 238.733 573.919 238.718C574.05 238.702 574.183 238.713 574.31 238.749C574.436 238.785 574.555 238.846 574.658 238.928C574.761 239.01 574.847 239.111 574.911 239.226C574.976 239.342 575.016 239.468 575.031 239.599C575.047 239.73 575.036 239.863 575 239.989L570.15 257.229C570.089 257.446 569.958 257.635 569.776 257.768C569.595 257.9 569.374 257.968 569.15 257.959Z" fill="white"/>
<path d="M577.32 257.96C577.227 257.97 577.133 257.97 577.04 257.96C576.913 257.924 576.794 257.863 576.691 257.782C576.587 257.7 576.501 257.598 576.437 257.483C576.373 257.368 576.332 257.241 576.317 257.11C576.302 256.979 576.313 256.846 576.35 256.72L581.24 239.44C581.312 239.185 581.482 238.97 581.712 238.841C581.943 238.711 582.215 238.679 582.47 238.75C582.597 238.785 582.715 238.846 582.819 238.927C582.922 239.009 583.009 239.111 583.073 239.226C583.137 239.341 583.178 239.468 583.193 239.599C583.208 239.73 583.196 239.863 583.16 239.99L578.28 257.27C578.214 257.472 578.085 257.647 577.913 257.772C577.74 257.896 577.532 257.961 577.32 257.96Z" fill="white"/>
<path d="M584.31 245.399H567.03C566.765 245.399 566.511 245.294 566.323 245.107C566.136 244.919 566.03 244.665 566.03 244.399C566.03 244.134 566.136 243.88 566.323 243.692C566.511 243.505 566.765 243.399 567.03 243.399H584.31C584.576 243.399 584.83 243.505 585.017 243.692C585.205 243.88 585.31 244.134 585.31 244.399C585.31 244.665 585.205 244.919 585.017 245.107C584.83 245.294 584.576 245.399 584.31 245.399Z" fill="white"/>
<path d="M584.31 253.289H567.03C566.765 253.289 566.511 253.184 566.323 252.996C566.136 252.809 566.03 252.554 566.03 252.289C566.03 252.024 566.136 251.769 566.323 251.582C566.511 251.394 566.765 251.289 567.03 251.289H584.31C584.576 251.289 584.83 251.394 585.017 251.582C585.205 251.769 585.31 252.024 585.31 252.289C585.31 252.554 585.205 252.809 585.017 252.996C584.83 253.184 584.576 253.289 584.31 253.289Z" fill="white"/>
<path d="M198.98 164.71H186.49C186.132 164.702 185.791 164.554 185.541 164.298C185.291 164.042 185.15 163.698 185.15 163.34C185.15 163.159 185.186 162.98 185.256 162.813C185.325 162.646 185.427 162.495 185.555 162.367C185.683 162.24 185.836 162.139 186.003 162.071C186.17 162.003 186.35 161.968 186.53 161.97H199.02C199.384 161.97 199.732 162.114 199.989 162.371C200.246 162.628 200.39 162.976 200.39 163.34C200.39 163.523 200.354 163.705 200.282 163.873C200.211 164.042 200.107 164.195 199.975 164.323C199.844 164.451 199.688 164.551 199.517 164.617C199.346 164.684 199.164 164.715 198.98 164.71Z" fill="#F0F4FF"/>
<path d="M211.57 170.79H186.49C186.31 170.791 186.13 170.757 185.963 170.688C185.796 170.62 185.643 170.519 185.515 170.392C185.387 170.265 185.285 170.113 185.216 169.946C185.146 169.78 185.11 169.601 185.11 169.42C185.113 169.056 185.26 168.707 185.518 168.45C185.777 168.194 186.126 168.05 186.49 168.05H211.57C211.934 168.05 212.282 168.194 212.539 168.451C212.796 168.708 212.94 169.056 212.94 169.42C212.94 169.783 212.796 170.132 212.539 170.389C212.282 170.645 211.934 170.79 211.57 170.79Z" fill="#F0F4FF"/>
<path d="M189.45 176.88H186.45C186.086 176.88 185.737 176.736 185.478 176.479C185.22 176.222 185.073 175.874 185.07 175.51C185.07 175.329 185.106 175.15 185.176 174.983C185.245 174.816 185.347 174.665 185.475 174.537C185.603 174.41 185.756 174.309 185.923 174.241C186.09 174.173 186.27 174.138 186.45 174.14H189.45C189.814 174.14 190.162 174.284 190.419 174.541C190.676 174.798 190.82 175.146 190.82 175.51C190.82 175.873 190.676 176.221 190.419 176.478C190.162 176.735 189.814 176.88 189.45 176.88Z" fill="#F0F4FF"/>
<path d="M211.57 176.88H194.15C193.788 176.877 193.441 176.732 193.184 176.475C192.928 176.219 192.783 175.872 192.78 175.51C192.78 175.146 192.925 174.798 193.182 174.541C193.438 174.284 193.787 174.14 194.15 174.14H211.62C211.984 174.14 212.332 174.284 212.589 174.541C212.846 174.798 212.99 175.146 212.99 175.51C212.99 175.694 212.953 175.876 212.881 176.046C212.81 176.215 212.704 176.369 212.572 176.496C212.439 176.624 212.282 176.724 212.11 176.79C211.938 176.856 211.754 176.886 211.57 176.88Z" fill="#F0F4FF"/>
<path d="M211.57 164.71H204C203.637 164.71 203.288 164.565 203.031 164.308C202.774 164.052 202.63 163.703 202.63 163.34C202.63 162.976 202.774 162.628 203.031 162.371C203.288 162.114 203.637 161.97 204 161.97H211.57C211.933 161.97 212.282 162.114 212.539 162.371C212.796 162.628 212.94 162.976 212.94 163.34C212.94 163.703 212.796 164.052 212.539 164.308C212.282 164.565 211.933 164.71 211.57 164.71Z" fill="#F0F4FF"/>
<path d="M141.089 351.64C139.523 351.636 137.985 352.057 136.639 352.86C136.369 350.488 135.202 348.309 133.377 346.77C131.552 345.231 129.207 344.448 126.824 344.582C124.44 344.716 122.198 345.757 120.557 347.492C118.917 349.226 118.001 351.522 117.999 353.91C118 354.244 118.02 354.578 118.059 354.91C117.125 354.823 116.183 354.921 115.286 355.199C114.39 355.476 113.557 355.928 112.835 356.527C112.113 357.127 111.516 357.862 111.079 358.692C110.641 359.522 110.371 360.431 110.284 361.365C110.198 362.299 110.296 363.242 110.573 364.138C110.851 365.034 111.302 365.867 111.902 366.589C112.501 367.311 113.237 367.908 114.067 368.346C114.897 368.783 115.805 369.053 116.739 369.14H141.089C142.26 369.18 143.427 368.983 144.52 368.563C145.613 368.142 146.61 367.506 147.453 366.692C148.295 365.877 148.964 364.902 149.422 363.824C149.879 362.746 150.115 361.586 150.115 360.415C150.115 359.244 149.879 358.084 149.422 357.006C148.964 355.928 148.295 354.952 147.453 354.138C146.61 353.324 145.613 352.688 144.52 352.267C143.427 351.847 142.26 351.65 141.089 351.69V351.64Z" fill="white"/>
<path d="M79.1502 314.139C78.9131 312.838 78.9575 311.502 79.2802 310.219C81.0882 303.267 80.936 295.95 78.8402 289.079C74.1702 274.489 55.2402 261.569 55.2402 261.569C55.2402 261.569 60.3802 283.099 64.6002 292.259C67.6902 298.969 73.1002 306.609 76.1102 310.629C76.944 311.742 77.5087 313.032 77.7602 314.399C79.6059 324.375 80.48 334.505 80.3702 344.649L81.7902 344.709C81.9041 334.458 81.0199 324.22 79.1502 314.139Z" fill="#DEE3FC"/>
<path d="M94.2497 300.45C96.755 291.972 98.5973 283.313 99.7597 274.55C99.7597 274.55 82.7597 288.55 81.3897 299.39C80.7143 304.449 81.1095 309.593 82.5497 314.49C82.9564 315.816 83.0924 317.21 82.9497 318.59C81.8982 328.008 81.781 337.508 82.5997 346.95L83.8797 346.8C83.1101 337.94 83.177 329.027 84.0797 320.18C84.2899 318.117 85.1039 316.162 86.4197 314.56C89.8678 310.373 92.5214 305.591 94.2497 300.45Z" fill="#B4C1EF"/>
<path d="M111.5 274C111.5 274 93.2097 280.79 88.4297 295.72C86.2637 302.82 86.1251 310.385 88.0297 317.56C88.3395 318.784 88.3395 320.066 88.0297 321.29C85.3342 332.839 83.876 344.642 83.6797 356.5H85.1497C85.3486 344.901 86.7596 333.355 89.3597 322.05C89.7658 320.374 90.5037 318.796 91.5297 317.41C94.6497 313.21 99.9597 305.65 103.03 298.98C107.34 289.6 111.5 274 111.5 274Z" fill="#DEE3FC"/>
<path d="M79.2303 337.009C78.7695 331.278 77.3427 325.665 75.0103 320.409C74.5945 319.468 74.4457 318.43 74.5803 317.409C74.9238 314.429 74.7786 311.413 74.1503 308.479C72.6703 301.149 62.9404 285.319 48.8604 284.399C51.6862 288.979 54.1471 293.774 56.2203 298.739C59.3803 307.009 63.9003 315.659 71.3803 318.979C72.6961 319.57 73.7345 320.644 74.2803 321.979C76.3081 326.803 77.5472 331.922 77.9503 337.139L79.2303 337.009Z" fill="#B4C1EF"/>
<path d="M69.7095 369.08H92.9495L98.9495 332.24C99.0101 331.856 98.987 331.464 98.8818 331.091C98.7766 330.717 98.5918 330.371 98.34 330.075C98.0883 329.78 97.7756 329.542 97.4233 329.379C97.0711 329.216 96.6877 329.131 96.2996 329.13H66.2996C65.9112 329.129 65.5272 329.213 65.1745 329.375C64.8218 329.538 64.5089 329.776 64.2575 330.072C64.0061 330.368 63.8225 330.715 63.7192 331.09C63.6159 331.464 63.5955 331.857 63.6595 332.24L69.7095 369.08Z" fill="#DEE3FC"/>
<path opacity="0.5" d="M23 369L653.5 369" stroke="#4D96FC" stroke-width="2" stroke-miterlimit="10" stroke-linecap="round"/>
</svg>
