<svg width="918" height="968" viewBox="0 0 918 968" fill="none" xmlns="http://www.w3.org/2000/svg">
<g opacity="0.6" clip-path="url(#clip0_352_563)">
<path d="M-89.9539 356.268C-28.5776 285.78 92.6283 376.969 268.25 337.061C420.358 302.478 429.109 210.621 550.641 215.177C639.431 218.487 736.183 269.755 789.356 359.072C847.996 457.551 826.679 557.809 820.695 582.139C793.983 691.263 714.697 748.826 686.727 768.487C571.487 849.439 442.173 835.253 380.135 828.479C147.099 802.956 -102.387 636.583 -113.495 455.701C-114.972 432.02 -117.659 388.098 -89.9539 356.268Z" fill="url(#paint0_linear_352_563)" fill-opacity="0.7"/>
</g>
<defs>
<linearGradient id="paint0_linear_352_563" x1="494.823" y1="69.8263" x2="260.582" y2="775.635" gradientUnits="userSpaceOnUse">
<stop stop-color="#F3F7FF"/>
<stop offset="1" stop-color="#DEEEFE"/>
</linearGradient>
<clipPath id="clip0_352_563">
<rect width="937.962" height="671.376" fill="white" transform="translate(44.5771) rotate(21.4558)"/>
</clipPath>
</defs>
</svg>
