<svg width="55" height="55" viewBox="0 0 55 55" fill="none" xmlns="http://www.w3.org/2000/svg">
<path opacity="0.4" d="M38.5383 0.73999H47.7086C51.5064 0.73999 54.5838 3.80814 54.5838 7.59458V16.7375C54.5838 20.5239 51.5064 23.592 47.7086 23.592H38.5383C34.7404 23.592 31.6631 20.5239 31.6631 16.7375V7.59458C31.6631 3.80814 34.7404 0.73999 38.5383 0.73999" fill="#4D96FC"/>
<path fill-rule="evenodd" clip-rule="evenodd" d="M7.29216 0.73999H16.4625C20.2603 0.73999 23.3377 3.80814 23.3377 7.59458V16.7375C23.3377 20.5239 20.2603 23.592 16.4625 23.592H7.29216C3.49435 23.592 0.416992 20.5239 0.416992 16.7375V7.59458C0.416992 3.80814 3.49435 0.73999 7.29216 0.73999ZM7.29216 31.4402H16.4625C20.2603 31.4402 23.3377 34.5083 23.3377 38.2948V47.4376C23.3377 51.2215 20.2603 54.2922 16.4625 54.2922H7.29216C3.49435 54.2922 0.416992 51.2215 0.416992 47.4376V38.2948C0.416992 34.5083 3.49435 31.4402 7.29216 31.4402ZM47.7085 31.4402H38.5382C34.7404 31.4402 31.663 34.5083 31.663 38.2948V47.4376C31.663 51.2215 34.7404 54.2922 38.5382 54.2922H47.7085C51.5063 54.2922 54.5837 51.2215 54.5837 47.4376V38.2948C54.5837 34.5083 51.5063 31.4402 47.7085 31.4402Z" fill="#4D96FC"/>
</svg>
