<svg width="65" height="65" viewBox="0 0 65 65" fill="none" xmlns="http://www.w3.org/2000/svg">
<path opacity="0.4" d="M54.1465 51.1342H38.7245C37.2199 51.1342 35.9961 52.3633 35.9961 53.8744C35.9961 55.3884 37.2199 56.6146 38.7245 56.6146H54.1465C55.6512 56.6146 56.875 55.3884 56.875 53.8744C56.875 52.3633 55.6512 51.1342 54.1465 51.1342Z" fill="#4D96FC"/>
<path d="M27.9203 18.8707L42.5341 30.5453C42.8866 30.8245 42.9468 31.3369 42.6716 31.6938L25.3466 54.0126C24.2575 55.3913 22.6525 56.1714 20.9329 56.2001L11.4751 56.3153C10.9707 56.321 10.5293 55.9756 10.4147 55.4806L8.26517 46.241C7.89259 44.5428 8.26517 42.787 9.35425 41.4342L26.7653 19.0088C27.0461 18.6491 27.5649 18.5857 27.9203 18.8707Z" fill="#4D96FC"/>
<path opacity="0.4" d="M49.077 23.5875L46.2597 27.0645C45.976 27.4185 45.4658 27.4761 45.1133 27.194C41.6884 24.4538 32.9184 17.422 30.4852 15.4734C30.1298 15.1855 30.0811 14.6732 30.3677 14.3163L33.0846 10.9802C35.5494 7.84282 39.8484 7.55498 43.3163 10.2894L47.3001 13.4268C48.9337 14.6933 50.0228 16.3628 50.3953 18.1186C50.8252 20.0499 50.3667 21.9468 49.077 23.5875Z" fill="#4D96FC"/>
</svg>
