<svg width="65" height="66" viewBox="0 0 65 66" fill="none" xmlns="http://www.w3.org/2000/svg">
<path opacity="0.4" d="M27.3092 43.5534H9.50053C7.24661 43.5534 5.41699 45.3305 5.41699 47.5198C5.41699 49.7062 7.24661 51.4862 9.50053 51.4862H27.3092C29.5632 51.4862 31.3928 49.7062 31.3928 47.5198C31.3928 45.3305 29.5632 43.5534 27.3092 43.5534Z" fill="#4D96FC"/>
<path opacity="0.4" d="M59.5841 17.9036C59.5841 15.7172 57.7545 13.9401 55.5036 13.9401H37.6949C35.4409 13.9401 33.6113 15.7172 33.6113 17.9036C33.6113 20.0928 35.4409 21.87 37.6949 21.87H55.5036C57.7545 21.87 59.5841 20.0928 59.5841 17.9036Z" fill="#4D96FC"/>
<path d="M24.0442 17.9035C24.0442 22.9017 19.8764 26.9529 14.7306 26.9529C9.5878 26.9529 5.41699 22.9017 5.41699 17.9035C5.41699 12.9082 9.5878 8.85706 14.7306 8.85706C19.8764 8.85706 24.0442 12.9082 24.0442 17.9035Z" fill="#4D96FC"/>
<path d="M59.5833 47.4126C59.5833 52.4078 55.4155 56.459 50.2697 56.459C45.1269 56.459 40.9561 52.4078 40.9561 47.4126C40.9561 42.4143 45.1269 38.3632 50.2697 38.3632C55.4155 38.3632 59.5833 42.4143 59.5833 47.4126Z" fill="#4D96FC"/>
</svg>
