<svg width="65" height="66" viewBox="0 0 65 66" fill="none" xmlns="http://www.w3.org/2000/svg">
<path opacity="0.4" d="M50.9409 24.979C49.718 24.979 48.0983 24.9522 46.0817 24.9522C41.1635 24.9522 37.1195 20.9277 37.1195 16.0197V7.40847C37.1195 6.73103 36.5698 6.17944 35.894 6.17944H21.5685C14.8831 6.17944 9.47949 11.6043 9.47949 18.2528V47.1041C9.47949 54.0793 15.1405 59.7317 22.1263 59.7317H43.4563C50.1203 59.7317 55.5212 54.3417 55.5212 47.6878V26.1839C55.5212 25.5038 54.9741 24.9549 54.293 24.9575C53.1506 24.9656 51.7749 24.979 50.9409 24.979Z" fill="#4D96FC"/>
<path opacity="0.4" d="M43.5614 7.69846C42.7516 6.86572 41.3379 7.43873 41.3379 8.59278V15.6536C41.3379 18.6151 43.8052 21.0517 46.7979 21.0517C48.6883 21.0731 51.31 21.0785 53.5362 21.0731C54.6764 21.0705 55.256 19.7236 54.4652 18.9096C51.6079 15.9723 46.4918 10.7081 43.5614 7.69846Z" fill="#4D96FC"/>
<path d="M40.9103 35.3218C40.1222 36.0956 38.8465 36.101 38.0557 35.3164L33.7522 31.0403V43.9651C33.7522 45.0656 32.8476 45.9599 31.7344 45.9599C30.6213 45.9599 29.7194 45.0656 29.7194 43.9651V31.0403L25.4105 35.3164C24.6251 36.101 23.3467 36.0956 22.5586 35.3218C21.7705 34.5479 21.7678 33.2841 22.5532 32.5022L30.3044 24.8041C30.3072 24.8014 30.3072 24.8014 30.3072 24.8014C30.4913 24.6194 30.7134 24.4721 30.9572 24.373C31.2009 24.2713 31.4663 24.2177 31.7344 24.2177C32.0053 24.2177 32.2707 24.2713 32.5144 24.373C32.7555 24.4721 32.9749 24.6194 33.159 24.7988C33.1617 24.8014 33.1644 24.8014 33.1644 24.8041L40.9157 32.5022C41.7011 33.2841 41.7011 34.5479 40.9103 35.3218Z" fill="#4D96FC"/>
</svg>
