<svg width="61" height="49" viewBox="0 0 61 49" fill="none" xmlns="http://www.w3.org/2000/svg">
<path opacity="0.4" fill-rule="evenodd" clip-rule="evenodd" d="M22.886 2.41836C22.886 1.31296 21.9625 0.417603 20.825 0.417603H20.8223L16.4104 0.420228C10.4764 0.42548 5.64746 5.1123 5.64746 10.8678V15.846C5.64746 16.9488 6.571 17.8468 7.7085 17.8468C8.846 17.8468 9.77225 16.9488 9.77225 15.846V10.8678C9.77225 7.31523 12.7514 4.42437 16.4131 4.41912L20.825 4.41649C21.9652 4.41649 22.886 3.52114 22.886 2.41836ZM44.5659 0.41839H40.2516C39.1141 0.41839 38.1905 1.31374 38.1905 2.41915C38.1905 3.52193 39.1141 4.41466 40.2516 4.41466H44.5659C48.2411 4.41466 51.2311 7.31339 51.2311 10.8764V15.8468C51.2311 16.9496 52.1547 17.8476 53.2922 17.8476C54.4324 17.8476 55.3532 16.9496 55.3532 15.8468V10.8764C55.3532 5.10783 50.5161 0.41839 44.5659 0.41839ZM23.0209 10.439H37.9817C39.6203 10.439 41.1938 11.077 42.3394 12.2139C43.4932 13.3614 44.1323 14.9026 44.1296 16.5069V19.8415C44.1161 20.2327 43.7938 20.5504 43.3903 20.5609H17.6069C17.2061 20.5478 16.8838 20.2301 16.8757 19.8415V16.5069C16.8459 13.1854 19.5975 10.4731 23.0209 10.439Z" fill="#4D96FC"/>
<path d="M58.2303 24.6265H2.77176C1.63426 24.6265 0.708008 25.5219 0.708008 26.6273C0.708008 27.7301 1.63426 28.6228 2.77176 28.6228H5.6453V38.1645C5.6453 43.9199 10.477 48.6068 16.4109 48.612L20.8228 48.6146V48.6146C21.963 48.6146 22.8838 47.7193 22.8865 46.6139C22.8865 45.5111 21.963 44.6157 20.8255 44.6157L16.4163 44.6131C12.752 44.6079 9.77009 41.717 9.77009 38.1645V28.6228H16.874V31.2773C16.847 34.5988 19.5959 37.3138 23.0193 37.3453H37.9801C41.4061 37.3138 44.1551 34.5988 44.128 31.2773V28.6228H51.232V38.154C51.232 41.7196 48.242 44.6157 44.5668 44.6157H40.2524C39.1122 44.6157 38.1886 45.5111 38.1886 46.6139C38.1886 47.7193 39.1122 48.6146 40.2524 48.6146H44.5668C50.5143 48.6146 55.354 43.9252 55.354 38.154V28.6228H58.2303C59.3678 28.6228 60.2913 27.7301 60.2913 26.6273C60.2913 25.5219 59.3678 24.6265 58.2303 24.6265" fill="#4D96FC"/>
</svg>
