<svg width="55" height="50" viewBox="0 0 55 50" fill="none" xmlns="http://www.w3.org/2000/svg">
<path opacity="0.4" d="M52.5524 28.9088C50.3289 28.9088 48.5197 27.1365 48.5197 24.9582C48.5197 22.7773 50.3289 21.005 52.5524 21.005C53.0914 21.005 53.6087 20.7954 53.9878 20.424C54.3697 20.0499 54.5837 19.5432 54.5837 19.0152L54.581 11.8464C54.581 5.7866 49.5462 0.857056 43.3603 0.857056H11.6403C5.45449 0.857056 0.419701 5.7866 0.419701 11.8464L0.416992 19.246C0.416992 19.774 0.630951 20.2807 1.01283 20.6548C1.39199 21.0263 1.90928 21.2359 2.44824 21.2359C4.74762 21.2359 6.48095 22.8357 6.48095 24.9582C6.48095 27.1365 4.67178 28.9088 2.44824 28.9088C1.32699 28.9088 0.416992 29.8002 0.416992 30.8986V38.0621C0.416992 44.1219 5.44908 49.0541 11.6376 49.0541H43.363C49.5516 49.0541 54.5837 44.1219 54.5837 38.0621V30.8986C54.5837 29.8002 53.6737 28.9088 52.5524 28.9088" fill="#4D96FC"/>
<path d="M36.7911 23.854L33.598 26.9279L34.3536 31.2736C34.4836 32.026 34.1776 32.7677 33.552 33.2122C32.9318 33.6621 32.122 33.7183 31.4395 33.3595L27.4988 31.3111L23.5501 33.3622C23.2576 33.5148 22.938 33.5951 22.6211 33.5951C22.2068 33.5951 21.7978 33.4666 21.4457 33.2149C20.8228 32.7677 20.5168 32.026 20.6468 31.2736L21.3997 26.9279L18.2065 23.854C17.654 23.3238 17.4618 22.5446 17.7001 21.819C17.9411 21.096 18.564 20.5819 19.3251 20.4748L23.7288 19.8402L25.7032 15.8854C26.0472 15.2053 26.7351 14.7822 27.4988 14.7822H27.5043C28.2707 14.7849 28.9586 15.208 29.2972 15.8881L31.2715 19.8402L35.6834 20.4775C36.4363 20.5819 37.0593 21.096 37.2976 21.819C37.5386 22.5446 37.3463 23.3238 36.7911 23.854" fill="#4D96FC"/>
</svg>
